# Tiled2Unity generated file. Do not modify by hand.
# Wavefront file for 'R_mesh_0006.obj'

# Vertices (Count = 48)
v -6 -12 0
v -8 -12 0
v -8 -10 0
v -6 -10 0
v -6 -14 0
v -8 -14 0
v -8 -12 0
v -6 -12 0
v -36 -14 0
v -38 -14 0
v -38 -12 0
v -36 -12 0
v -38 -14 0
v -40 -14 0
v -40 -12 0
v -38 -12 0
v -40 -14 0
v -42 -14 0
v -42 -12 0
v -40 -12 0
v -6 -16 0
v -8 -16 0
v -8 -14 0
v -6 -14 0
v -6 -18 0
v -8 -18 0
v -8 -16 0
v -6 -16 0
v -36 -18 0
v -38 -18 0
v -38 -16 0
v -36 -16 0
v -38 -18 0
v -40 -18 0
v -40 -16 0
v -38 -16 0
v -40 -18 0
v -42 -18 0
v -42 -16 0
v -40 -16 0
v -6 -20 0
v -8 -20 0
v -8 -18 0
v -6 -18 0
v -6 -22 0
v -8 -22 0
v -8 -20 0
v -6 -20 0

# Texture cooridinates (Count = 10)
vt 0 0.84375
vt 0.125 0.84375
vt 0.125 0.875
vt 0 0.875
vt 0.25 0.875
vt 0.25 0.90625
vt 0.125 0.90625
vt 0.125 0.8125
vt 0.25 0.8125
vt 0.25 0.84375

# Normal
vn 0 0 -1

# Mesh description
g R_mesh_0006

# Faces
f 1/1/1 2/2/1 3/3/1 4/4/1
f 5/1/1 6/2/1 7/3/1 8/4/1
f 9/3/1 10/5/1 11/6/1 12/7/1
f 13/3/1 14/5/1 15/6/1 16/7/1
f 17/3/1 18/5/1 19/6/1 20/7/1
f 21/1/1 22/2/1 23/3/1 24/4/1
f 25/1/1 26/2/1 27/3/1 28/4/1
f 29/8/1 30/9/1 31/10/1 32/2/1
f 33/8/1 34/9/1 35/10/1 36/2/1
f 37/8/1 38/9/1 39/10/1 40/2/1
f 41/1/1 42/2/1 43/3/1 44/4/1
f 45/1/1 46/2/1 47/3/1 48/4/1

