# Tiled2Unity generated file. Do not modify by hand.
# Wavefront file for 'TR_mesh_0003.obj'

# Vertices (Count = 108)
v -6 -8 0
v -8 -8 0
v -8 -6 0
v -6 -6 0
v -34 -8 0
v -36 -8 0
v -36 -6 0
v -34 -6 0
v -6 -10 0
v -8 -10 0
v -8 -8 0
v -6 -8 0
v -34 -10 0
v -36 -10 0
v -36 -8 0
v -34 -8 0
v -6 -12 0
v -8 -12 0
v -8 -10 0
v -6 -10 0
v -34 -12 0
v -36 -12 0
v -36 -10 0
v -34 -10 0
v -6 -20 0
v -8 -20 0
v -8 -18 0
v -6 -18 0
v -34 -20 0
v -36 -20 0
v -36 -18 0
v -34 -18 0
v -6 -22 0
v -8 -22 0
v -8 -20 0
v -6 -20 0
v -34 -22 0
v -36 -22 0
v -36 -20 0
v -34 -20 0
v -6 -24 0
v -8 -24 0
v -8 -22 0
v -6 -22 0
v -34 -24 0
v -36 -24 0
v -36 -22 0
v -34 -22 0
v -6 -26 0
v -8 -26 0
v -8 -24 0
v -6 -24 0
v -8 -26 0
v -10 -26 0
v -10 -24 0
v -8 -24 0
v -10 -26 0
v -12 -26 0
v -12 -24 0
v -10 -24 0
v -12 -26 0
v -14 -26 0
v -14 -24 0
v -12 -24 0
v -14 -26 0
v -16 -26 0
v -16 -24 0
v -14 -24 0
v -16 -26 0
v -18 -26 0
v -18 -24 0
v -16 -24 0
v -18 -26 0
v -20 -26 0
v -20 -24 0
v -18 -24 0
v -20 -26 0
v -22 -26 0
v -22 -24 0
v -20 -24 0
v -22 -26 0
v -24 -26 0
v -24 -24 0
v -22 -24 0
v -24 -26 0
v -26 -26 0
v -26 -24 0
v -24 -24 0
v -26 -26 0
v -28 -26 0
v -28 -24 0
v -26 -24 0
v -28 -26 0
v -30 -26 0
v -30 -24 0
v -28 -24 0
v -30 -26 0
v -32 -26 0
v -32 -24 0
v -30 -24 0
v -32 -26 0
v -34 -26 0
v -34 -24 0
v -32 -24 0
v -34 -26 0
v -36 -26 0
v -36 -24 0
v -34 -24 0

# Texture cooridinates (Count = 14)
vt 0 0.84375
vt 0.125 0.84375
vt 0.125 0.875
vt 0 0.875
vt 0.25 0.84375
vt 0.375 0.84375
vt 0.375 0.875
vt 0.25 0.875
vt 0 0.8125
vt 0.125 0.8125
vt 0.25 0.90625
vt 0.125 0.90625
vt 0.25 0.8125
vt 0.375 0.8125

# Normal
vn 0 0 -1

# Mesh description
g TR_mesh_0003

# Faces
f 1/1/1 2/2/1 3/3/1 4/4/1
f 5/5/1 6/6/1 7/7/1 8/8/1
f 9/1/1 10/2/1 11/3/1 12/4/1
f 13/5/1 14/6/1 15/7/1 16/8/1
f 17/1/1 18/2/1 19/3/1 20/4/1
f 21/5/1 22/6/1 23/7/1 24/8/1
f 25/1/1 26/2/1 27/3/1 28/4/1
f 29/5/1 30/6/1 31/7/1 32/8/1
f 33/1/1 34/2/1 35/3/1 36/4/1
f 37/5/1 38/6/1 39/7/1 40/8/1
f 41/1/1 42/2/1 43/3/1 44/4/1
f 45/5/1 46/6/1 47/7/1 48/8/1
f 49/9/1 50/10/1 51/2/1 52/1/1
f 53/3/1 54/8/1 55/11/1 56/12/1
f 57/3/1 58/8/1 59/11/1 60/12/1
f 61/3/1 62/8/1 63/11/1 64/12/1
f 65/3/1 66/8/1 67/11/1 68/12/1
f 69/10/1 70/13/1 71/5/1 72/2/1
f 73/10/1 74/13/1 75/5/1 76/2/1
f 77/10/1 78/13/1 79/5/1 80/2/1
f 81/10/1 82/13/1 83/5/1 84/2/1
f 85/10/1 86/13/1 87/5/1 88/2/1
f 89/10/1 90/13/1 91/5/1 92/2/1
f 93/10/1 94/13/1 95/5/1 96/2/1
f 97/10/1 98/13/1 99/5/1 100/2/1
f 101/10/1 102/13/1 103/5/1 104/2/1
f 105/13/1 106/14/1 107/6/1 108/5/1

