# Tiled2Unity generated file. Do not modify by hand.
# Wavefront file for 'TR_mesh_0002.obj'

# Vertices (Count = 308)
v -18 -2 0
v -20 -2 0
v -20 0 0
v -18 0 0
v -20 -2 0
v -22 -2 0
v -22 0 0
v -20 0 0
v -22 -2 0
v -24 -2 0
v -24 0 0
v -22 0 0
v -18 -4 0
v -20 -4 0
v -20 -2 0
v -18 -2 0
v -20 -4 0
v -22 -4 0
v -22 -2 0
v -20 -2 0
v -22 -4 0
v -24 -4 0
v -24 -2 0
v -22 -2 0
v -18 -6 0
v -20 -6 0
v -20 -4 0
v -18 -4 0
v -20 -6 0
v -22 -6 0
v -22 -4 0
v -20 -4 0
v -22 -6 0
v -24 -6 0
v -24 -4 0
v -22 -4 0
v -6 -10 0
v -8 -10 0
v -8 -8 0
v -6 -8 0
v -22 -10 0
v -24 -10 0
v -24 -8 0
v -22 -8 0
v -24 -10 0
v -26 -10 0
v -26 -8 0
v -24 -8 0
v -26 -10 0
v -28 -10 0
v -28 -8 0
v -26 -8 0
v -16 -12 0
v -18 -12 0
v -18 -10 0
v -16 -10 0
v -18 -12 0
v -20 -12 0
v -20 -10 0
v -18 -10 0
v -20 -12 0
v -22 -12 0
v -22 -10 0
v -20 -10 0
v -22 -12 0
v -24 -12 0
v -24 -10 0
v -22 -10 0
v -24 -12 0
v -26 -12 0
v -26 -10 0
v -24 -10 0
v -26 -12 0
v -28 -12 0
v -28 -10 0
v -26 -10 0
v -16 -14 0
v -18 -14 0
v -18 -12 0
v -16 -12 0
v -18 -14 0
v -20 -14 0
v -20 -12 0
v -18 -12 0
v -20 -14 0
v -22 -14 0
v -22 -12 0
v -20 -12 0
v -22 -14 0
v -24 -14 0
v -24 -12 0
v -22 -12 0
v -24 -14 0
v -26 -14 0
v -26 -12 0
v -24 -12 0
v -26 -14 0
v -28 -14 0
v -28 -12 0
v -26 -12 0
v -36 -14 0
v -38 -14 0
v -38 -12 0
v -36 -12 0
v -38 -14 0
v -40 -14 0
v -40 -12 0
v -38 -12 0
v -40 -14 0
v -42 -14 0
v -42 -12 0
v -40 -12 0
v -22 -16 0
v -24 -16 0
v -24 -14 0
v -22 -14 0
v -24 -16 0
v -26 -16 0
v -26 -14 0
v -24 -14 0
v -26 -16 0
v -28 -16 0
v -28 -14 0
v -26 -14 0
v -36 -16 0
v -38 -16 0
v -38 -14 0
v -36 -14 0
v -38 -16 0
v -40 -16 0
v -40 -14 0
v -38 -14 0
v -40 -16 0
v -42 -16 0
v -42 -14 0
v -40 -14 0
v -12 -18 0
v -14 -18 0
v -14 -16 0
v -12 -16 0
v -14 -18 0
v -16 -18 0
v -16 -16 0
v -14 -16 0
v -16 -18 0
v -18 -18 0
v -18 -16 0
v -16 -16 0
v -18 -18 0
v -20 -18 0
v -20 -16 0
v -18 -16 0
v -20 -18 0
v -22 -18 0
v -22 -16 0
v -20 -16 0
v -22 -18 0
v -24 -18 0
v -24 -16 0
v -22 -16 0
v -24 -18 0
v -26 -18 0
v -26 -16 0
v -24 -16 0
v -26 -18 0
v -28 -18 0
v -28 -16 0
v -26 -16 0
v -36 -18 0
v -38 -18 0
v -38 -16 0
v -36 -16 0
v -38 -18 0
v -40 -18 0
v -40 -16 0
v -38 -16 0
v -40 -18 0
v -42 -18 0
v -42 -16 0
v -40 -16 0
v -14 -20 0
v -16 -20 0
v -16 -18 0
v -14 -18 0
v -16 -20 0
v -18 -20 0
v -18 -18 0
v -16 -18 0
v -18 -20 0
v -20 -20 0
v -20 -18 0
v -18 -18 0
v -20 -20 0
v -22 -20 0
v -22 -18 0
v -20 -18 0
v -22 -20 0
v -24 -20 0
v -24 -18 0
v -22 -18 0
v -24 -20 0
v -26 -20 0
v -26 -18 0
v -24 -18 0
v -26 -20 0
v -28 -20 0
v -28 -18 0
v -26 -18 0
v -16 -22 0
v -18 -22 0
v -18 -20 0
v -16 -20 0
v -18 -22 0
v -20 -22 0
v -20 -20 0
v -18 -20 0
v -20 -22 0
v -22 -22 0
v -22 -20 0
v -20 -20 0
v -22 -22 0
v -24 -22 0
v -24 -20 0
v -22 -20 0
v -24 -22 0
v -26 -22 0
v -26 -20 0
v -24 -20 0
v -26 -22 0
v -28 -22 0
v -28 -20 0
v -26 -20 0
v -28 -22 0
v -30 -22 0
v -30 -20 0
v -28 -20 0
v -18 -24 0
v -20 -24 0
v -20 -22 0
v -18 -22 0
v -20 -24 0
v -22 -24 0
v -22 -22 0
v -20 -22 0
v -22 -24 0
v -24 -24 0
v -24 -22 0
v -22 -22 0
v 0 -30 0
v -2 -30 0
v -2 -28 0
v 0 -28 0
v -2 -30 0
v -4 -30 0
v -4 -28 0
v -2 -28 0
v -4 -30 0
v -6 -30 0
v -6 -28 0
v -4 -28 0
v -6 -30 0
v -8 -30 0
v -8 -28 0
v -6 -28 0
v -8 -30 0
v -10 -30 0
v -10 -28 0
v -8 -28 0
v -10 -30 0
v -12 -30 0
v -12 -28 0
v -10 -28 0
v -12 -30 0
v -14 -30 0
v -14 -28 0
v -12 -28 0
v -14 -30 0
v -16 -30 0
v -16 -28 0
v -14 -28 0
v -26 -30 0
v -28 -30 0
v -28 -28 0
v -26 -28 0
v -28 -30 0
v -30 -30 0
v -30 -28 0
v -28 -28 0
v -30 -30 0
v -32 -30 0
v -32 -28 0
v -30 -28 0
v -32 -30 0
v -34 -30 0
v -34 -28 0
v -32 -28 0
v -34 -30 0
v -36 -30 0
v -36 -28 0
v -34 -28 0
v -36 -30 0
v -38 -30 0
v -38 -28 0
v -36 -28 0
v -38 -30 0
v -40 -30 0
v -40 -28 0
v -38 -28 0

# Texture cooridinates (Count = 23)
vt 0 0.34375
vt 0.125 0.34375
vt 0.125 0.375
vt 0 0.375
vt 0.25 0.34375
vt 0.25 0.375
vt 0.375 0.34375
vt 0.375 0.375
vt 0 0.3125
vt 0.125 0.3125
vt 0.25 0.3125
vt 0.375 0.3125
vt 0.625 0.40625
vt 0.75 0.40625
vt 0.75 0.4375
vt 0.625 0.4375
vt 0.125 0.25
vt 0.25 0.25
vt 0.25 0.28125
vt 0.125 0.28125
vt 0.125 0.40625
vt 0 0.40625
vt 0.25 0.40625

# Normal
vn 0 0 -1

# Mesh description
g TR_mesh_0002

# Faces
f 1/1/1 2/2/1 3/3/1 4/4/1
f 5/2/1 6/5/1 7/6/1 8/3/1
f 9/5/1 10/7/1 11/8/1 12/6/1
f 13/1/1 14/2/1 15/3/1 16/4/1
f 17/2/1 18/5/1 19/6/1 20/3/1
f 21/5/1 22/7/1 23/8/1 24/6/1
f 25/9/1 26/10/1 27/2/1 28/1/1
f 29/10/1 30/11/1 31/5/1 32/2/1
f 33/11/1 34/12/1 35/7/1 36/5/1
f 37/13/1 38/14/1 39/15/1 40/16/1
f 41/17/1 42/18/1 43/19/1 44/20/1
f 45/17/1 46/18/1 47/19/1 48/20/1
f 49/17/1 50/18/1 51/19/1 52/20/1
f 53/17/1 54/18/1 55/19/1 56/20/1
f 57/17/1 58/18/1 59/19/1 60/20/1
f 61/17/1 62/18/1 63/19/1 64/20/1
f 65/17/1 66/18/1 67/19/1 68/20/1
f 69/17/1 70/18/1 71/19/1 72/20/1
f 73/17/1 74/18/1 75/19/1 76/20/1
f 77/17/1 78/18/1 79/19/1 80/20/1
f 81/17/1 82/18/1 83/19/1 84/20/1
f 85/17/1 86/18/1 87/19/1 88/20/1
f 89/17/1 90/18/1 91/19/1 92/20/1
f 93/17/1 94/18/1 95/19/1 96/20/1
f 97/17/1 98/18/1 99/19/1 100/20/1
f 101/4/1 102/3/1 103/21/1 104/22/1
f 105/3/1 106/6/1 107/23/1 108/21/1
f 109/3/1 110/6/1 111/23/1 112/21/1
f 113/17/1 114/18/1 115/19/1 116/20/1
f 117/17/1 118/18/1 119/19/1 120/20/1
f 121/17/1 122/18/1 123/19/1 124/20/1
f 125/1/1 126/2/1 127/3/1 128/4/1
f 129/2/1 130/5/1 131/6/1 132/3/1
f 133/2/1 134/5/1 135/6/1 136/3/1
f 137/17/1 138/18/1 139/19/1 140/20/1
f 141/17/1 142/18/1 143/19/1 144/20/1
f 145/17/1 146/18/1 147/19/1 148/20/1
f 149/17/1 150/18/1 151/19/1 152/20/1
f 153/17/1 154/18/1 155/19/1 156/20/1
f 157/17/1 158/18/1 159/19/1 160/20/1
f 161/17/1 162/18/1 163/19/1 164/20/1
f 165/17/1 166/18/1 167/19/1 168/20/1
f 169/9/1 170/10/1 171/2/1 172/1/1
f 173/10/1 174/11/1 175/5/1 176/2/1
f 177/10/1 178/11/1 179/5/1 180/2/1
f 181/17/1 182/18/1 183/19/1 184/20/1
f 185/17/1 186/18/1 187/19/1 188/20/1
f 189/17/1 190/18/1 191/19/1 192/20/1
f 193/17/1 194/18/1 195/19/1 196/20/1
f 197/17/1 198/18/1 199/19/1 200/20/1
f 201/17/1 202/18/1 203/19/1 204/20/1
f 205/17/1 206/18/1 207/19/1 208/20/1
f 209/17/1 210/18/1 211/19/1 212/20/1
f 213/17/1 214/18/1 215/19/1 216/20/1
f 217/17/1 218/18/1 219/19/1 220/20/1
f 221/17/1 222/18/1 223/19/1 224/20/1
f 225/17/1 226/18/1 227/19/1 228/20/1
f 229/17/1 230/18/1 231/19/1 232/20/1
f 233/17/1 234/18/1 235/19/1 236/20/1
f 237/17/1 238/18/1 239/19/1 240/20/1
f 241/17/1 242/18/1 243/19/1 244/20/1
f 245/17/1 246/18/1 247/19/1 248/20/1
f 249/13/1 250/14/1 251/15/1 252/16/1
f 253/13/1 254/14/1 255/15/1 256/16/1
f 257/13/1 258/14/1 259/15/1 260/16/1
f 261/13/1 262/14/1 263/15/1 264/16/1
f 265/13/1 266/14/1 267/15/1 268/16/1
f 269/13/1 270/14/1 271/15/1 272/16/1
f 273/13/1 274/14/1 275/15/1 276/16/1
f 277/13/1 278/14/1 279/15/1 280/16/1
f 281/13/1 282/14/1 283/15/1 284/16/1
f 285/13/1 286/14/1 287/15/1 288/16/1
f 289/13/1 290/14/1 291/15/1 292/16/1
f 293/13/1 294/14/1 295/15/1 296/16/1
f 297/13/1 298/14/1 299/15/1 300/16/1
f 301/13/1 302/14/1 303/15/1 304/16/1
f 305/13/1 306/14/1 307/15/1 308/16/1

