# Tiled2Unity generated file. Do not modify by hand.
# Wavefront file for 'Room2_mesh_0003.obj'

# Vertices (Count = 684)
v 0 -2 0
v -2 -2 0
v -2 0 0
v 0 0 0
v -2 -2 0
v -4 -2 0
v -4 0 0
v -2 0 0
v -4 -2 0
v -6 -2 0
v -6 0 0
v -4 0 0
v -6 -2 0
v -8 -2 0
v -8 0 0
v -6 0 0
v -8 -2 0
v -10 -2 0
v -10 0 0
v -8 0 0
v -10 -2 0
v -12 -2 0
v -12 0 0
v -10 0 0
v -12 -2 0
v -14 -2 0
v -14 0 0
v -12 0 0
v -14 -2 0
v -16 -2 0
v -16 0 0
v -14 0 0
v -16 -2 0
v -18 -2 0
v -18 0 0
v -16 0 0
v -18 -2 0
v -20 -2 0
v -20 0 0
v -18 0 0
v -20 -2 0
v -22 -2 0
v -22 0 0
v -20 0 0
v -22 -2 0
v -24 -2 0
v -24 0 0
v -22 0 0
v -24 -2 0
v -26 -2 0
v -26 0 0
v -24 0 0
v -26 -2 0
v -28 -2 0
v -28 0 0
v -26 0 0
v -28 -2 0
v -30 -2 0
v -30 0 0
v -28 0 0
v -30 -2 0
v -32 -2 0
v -32 0 0
v -30 0 0
v -32 -2 0
v -34 -2 0
v -34 0 0
v -32 0 0
v -34 -2 0
v -36 -2 0
v -36 0 0
v -34 0 0
v -36 -2 0
v -38 -2 0
v -38 0 0
v -36 0 0
v -38 -2 0
v -40 -2 0
v -40 0 0
v -38 0 0
v -40 -2 0
v -42 -2 0
v -42 0 0
v -40 0 0
v 0 -4 0
v -2 -4 0
v -2 -2 0
v 0 -2 0
v -2 -4 0
v -4 -4 0
v -4 -2 0
v -2 -2 0
v -4 -4 0
v -6 -4 0
v -6 -2 0
v -4 -2 0
v -6 -4 0
v -8 -4 0
v -8 -2 0
v -6 -2 0
v -8 -4 0
v -10 -4 0
v -10 -2 0
v -8 -2 0
v -10 -4 0
v -12 -4 0
v -12 -2 0
v -10 -2 0
v -12 -4 0
v -14 -4 0
v -14 -2 0
v -12 -2 0
v -14 -4 0
v -16 -4 0
v -16 -2 0
v -14 -2 0
v -16 -4 0
v -18 -4 0
v -18 -2 0
v -16 -2 0
v -18 -4 0
v -20 -4 0
v -20 -2 0
v -18 -2 0
v -20 -4 0
v -22 -4 0
v -22 -2 0
v -20 -2 0
v -22 -4 0
v -24 -4 0
v -24 -2 0
v -22 -2 0
v -24 -4 0
v -26 -4 0
v -26 -2 0
v -24 -2 0
v -26 -4 0
v -28 -4 0
v -28 -2 0
v -26 -2 0
v -28 -4 0
v -30 -4 0
v -30 -2 0
v -28 -2 0
v -30 -4 0
v -32 -4 0
v -32 -2 0
v -30 -2 0
v -32 -4 0
v -34 -4 0
v -34 -2 0
v -32 -2 0
v -34 -4 0
v -36 -4 0
v -36 -2 0
v -34 -2 0
v -36 -4 0
v -38 -4 0
v -38 -2 0
v -36 -2 0
v -38 -4 0
v -40 -4 0
v -40 -2 0
v -38 -2 0
v -40 -4 0
v -42 -4 0
v -42 -2 0
v -40 -2 0
v 0 -6 0
v -2 -6 0
v -2 -4 0
v 0 -4 0
v -2 -6 0
v -4 -6 0
v -4 -4 0
v -2 -4 0
v -4 -6 0
v -6 -6 0
v -6 -4 0
v -4 -4 0
v -6 -6 0
v -8 -6 0
v -8 -4 0
v -6 -4 0
v -8 -6 0
v -10 -6 0
v -10 -4 0
v -8 -4 0
v -10 -6 0
v -12 -6 0
v -12 -4 0
v -10 -4 0
v -12 -6 0
v -14 -6 0
v -14 -4 0
v -12 -4 0
v -14 -6 0
v -16 -6 0
v -16 -4 0
v -14 -4 0
v -16 -6 0
v -18 -6 0
v -18 -4 0
v -16 -4 0
v -18 -6 0
v -20 -6 0
v -20 -4 0
v -18 -4 0
v -20 -6 0
v -22 -6 0
v -22 -4 0
v -20 -4 0
v -22 -6 0
v -24 -6 0
v -24 -4 0
v -22 -4 0
v -24 -6 0
v -26 -6 0
v -26 -4 0
v -24 -4 0
v -26 -6 0
v -28 -6 0
v -28 -4 0
v -26 -4 0
v -28 -6 0
v -30 -6 0
v -30 -4 0
v -28 -4 0
v -30 -6 0
v -32 -6 0
v -32 -4 0
v -30 -4 0
v -32 -6 0
v -34 -6 0
v -34 -4 0
v -32 -4 0
v -34 -6 0
v -36 -6 0
v -36 -4 0
v -34 -4 0
v -36 -6 0
v -38 -6 0
v -38 -4 0
v -36 -4 0
v -38 -6 0
v -40 -6 0
v -40 -4 0
v -38 -4 0
v -40 -6 0
v -42 -6 0
v -42 -4 0
v -40 -4 0
v 0 -8 0
v -2 -8 0
v -2 -6 0
v 0 -6 0
v -2 -8 0
v -4 -8 0
v -4 -6 0
v -2 -6 0
v -4 -8 0
v -6 -8 0
v -6 -6 0
v -4 -6 0
v -36 -8 0
v -38 -8 0
v -38 -6 0
v -36 -6 0
v -38 -8 0
v -40 -8 0
v -40 -6 0
v -38 -6 0
v -40 -8 0
v -42 -8 0
v -42 -6 0
v -40 -6 0
v 0 -10 0
v -2 -10 0
v -2 -8 0
v 0 -8 0
v -2 -10 0
v -4 -10 0
v -4 -8 0
v -2 -8 0
v -4 -10 0
v -6 -10 0
v -6 -8 0
v -4 -8 0
v -36 -10 0
v -38 -10 0
v -38 -8 0
v -36 -8 0
v -38 -10 0
v -40 -10 0
v -40 -8 0
v -38 -8 0
v -40 -10 0
v -42 -10 0
v -42 -8 0
v -40 -8 0
v 0 -12 0
v -2 -12 0
v -2 -10 0
v 0 -10 0
v -2 -12 0
v -4 -12 0
v -4 -10 0
v -2 -10 0
v -4 -12 0
v -6 -12 0
v -6 -10 0
v -4 -10 0
v -36 -12 0
v -38 -12 0
v -38 -10 0
v -36 -10 0
v -38 -12 0
v -40 -12 0
v -40 -10 0
v -38 -10 0
v -40 -12 0
v -42 -12 0
v -42 -10 0
v -40 -10 0
v 0 -14 0
v -2 -14 0
v -2 -12 0
v 0 -12 0
v -2 -14 0
v -4 -14 0
v -4 -12 0
v -2 -12 0
v -4 -14 0
v -6 -14 0
v -6 -12 0
v -4 -12 0
v -36 -14 0
v -38 -14 0
v -38 -12 0
v -36 -12 0
v -38 -14 0
v -40 -14 0
v -40 -12 0
v -38 -12 0
v -40 -14 0
v -42 -14 0
v -42 -12 0
v -40 -12 0
v 0 -16 0
v -2 -16 0
v -2 -14 0
v 0 -14 0
v -2 -16 0
v -4 -16 0
v -4 -14 0
v -2 -14 0
v -4 -16 0
v -6 -16 0
v -6 -14 0
v -4 -14 0
v -36 -16 0
v -38 -16 0
v -38 -14 0
v -36 -14 0
v -38 -16 0
v -40 -16 0
v -40 -14 0
v -38 -14 0
v -40 -16 0
v -42 -16 0
v -42 -14 0
v -40 -14 0
v 0 -18 0
v -2 -18 0
v -2 -16 0
v 0 -16 0
v -2 -18 0
v -4 -18 0
v -4 -16 0
v -2 -16 0
v -4 -18 0
v -6 -18 0
v -6 -16 0
v -4 -16 0
v -36 -18 0
v -38 -18 0
v -38 -16 0
v -36 -16 0
v -38 -18 0
v -40 -18 0
v -40 -16 0
v -38 -16 0
v -40 -18 0
v -42 -18 0
v -42 -16 0
v -40 -16 0
v 0 -20 0
v -2 -20 0
v -2 -18 0
v 0 -18 0
v -2 -20 0
v -4 -20 0
v -4 -18 0
v -2 -18 0
v -4 -20 0
v -6 -20 0
v -6 -18 0
v -4 -18 0
v -36 -20 0
v -38 -20 0
v -38 -18 0
v -36 -18 0
v -38 -20 0
v -40 -20 0
v -40 -18 0
v -38 -18 0
v -40 -20 0
v -42 -20 0
v -42 -18 0
v -40 -18 0
v 0 -22 0
v -2 -22 0
v -2 -20 0
v 0 -20 0
v -2 -22 0
v -4 -22 0
v -4 -20 0
v -2 -20 0
v -4 -22 0
v -6 -22 0
v -6 -20 0
v -4 -20 0
v -36 -22 0
v -38 -22 0
v -38 -20 0
v -36 -20 0
v -38 -22 0
v -40 -22 0
v -40 -20 0
v -38 -20 0
v -40 -22 0
v -42 -22 0
v -42 -20 0
v -40 -20 0
v 0 -24 0
v -2 -24 0
v -2 -22 0
v 0 -22 0
v -2 -24 0
v -4 -24 0
v -4 -22 0
v -2 -22 0
v -4 -24 0
v -6 -24 0
v -6 -22 0
v -4 -22 0
v -36 -24 0
v -38 -24 0
v -38 -22 0
v -36 -22 0
v -38 -24 0
v -40 -24 0
v -40 -22 0
v -38 -22 0
v -40 -24 0
v -42 -24 0
v -42 -22 0
v -40 -22 0
v 0 -26 0
v -2 -26 0
v -2 -24 0
v 0 -24 0
v -2 -26 0
v -4 -26 0
v -4 -24 0
v -2 -24 0
v -4 -26 0
v -6 -26 0
v -6 -24 0
v -4 -24 0
v -6 -26 0
v -8 -26 0
v -8 -24 0
v -6 -24 0
v -8 -26 0
v -10 -26 0
v -10 -24 0
v -8 -24 0
v -10 -26 0
v -12 -26 0
v -12 -24 0
v -10 -24 0
v -12 -26 0
v -14 -26 0
v -14 -24 0
v -12 -24 0
v -14 -26 0
v -16 -26 0
v -16 -24 0
v -14 -24 0
v -16 -26 0
v -18 -26 0
v -18 -24 0
v -16 -24 0
v -24 -26 0
v -26 -26 0
v -26 -24 0
v -24 -24 0
v -26 -26 0
v -28 -26 0
v -28 -24 0
v -26 -24 0
v -28 -26 0
v -30 -26 0
v -30 -24 0
v -28 -24 0
v -30 -26 0
v -32 -26 0
v -32 -24 0
v -30 -24 0
v -32 -26 0
v -34 -26 0
v -34 -24 0
v -32 -24 0
v -34 -26 0
v -36 -26 0
v -36 -24 0
v -34 -24 0
v -36 -26 0
v -38 -26 0
v -38 -24 0
v -36 -24 0
v -38 -26 0
v -40 -26 0
v -40 -24 0
v -38 -24 0
v -40 -26 0
v -42 -26 0
v -42 -24 0
v -40 -24 0
v 0 -28 0
v -2 -28 0
v -2 -26 0
v 0 -26 0
v -2 -28 0
v -4 -28 0
v -4 -26 0
v -2 -26 0
v -4 -28 0
v -6 -28 0
v -6 -26 0
v -4 -26 0
v -6 -28 0
v -8 -28 0
v -8 -26 0
v -6 -26 0
v -8 -28 0
v -10 -28 0
v -10 -26 0
v -8 -26 0
v -10 -28 0
v -12 -28 0
v -12 -26 0
v -10 -26 0
v -12 -28 0
v -14 -28 0
v -14 -26 0
v -12 -26 0
v -14 -28 0
v -16 -28 0
v -16 -26 0
v -14 -26 0
v -16 -28 0
v -18 -28 0
v -18 -26 0
v -16 -26 0
v -24 -28 0
v -26 -28 0
v -26 -26 0
v -24 -26 0
v -26 -28 0
v -28 -28 0
v -28 -26 0
v -26 -26 0
v -28 -28 0
v -30 -28 0
v -30 -26 0
v -28 -26 0
v -30 -28 0
v -32 -28 0
v -32 -26 0
v -30 -26 0
v -32 -28 0
v -34 -28 0
v -34 -26 0
v -32 -26 0
v -34 -28 0
v -36 -28 0
v -36 -26 0
v -34 -26 0
v -36 -28 0
v -38 -28 0
v -38 -26 0
v -36 -26 0
v -38 -28 0
v -40 -28 0
v -40 -26 0
v -38 -26 0
v -40 -28 0
v -42 -28 0
v -42 -26 0
v -40 -26 0
v 0 -30 0
v -2 -30 0
v -2 -28 0
v 0 -28 0
v -2 -30 0
v -4 -30 0
v -4 -28 0
v -2 -28 0
v -4 -30 0
v -6 -30 0
v -6 -28 0
v -4 -28 0
v -6 -30 0
v -8 -30 0
v -8 -28 0
v -6 -28 0
v -8 -30 0
v -10 -30 0
v -10 -28 0
v -8 -28 0
v -10 -30 0
v -12 -30 0
v -12 -28 0
v -10 -28 0
v -12 -30 0
v -14 -30 0
v -14 -28 0
v -12 -28 0
v -14 -30 0
v -16 -30 0
v -16 -28 0
v -14 -28 0
v -16 -30 0
v -18 -30 0
v -18 -28 0
v -16 -28 0
v -24 -30 0
v -26 -30 0
v -26 -28 0
v -24 -28 0
v -26 -30 0
v -28 -30 0
v -28 -28 0
v -26 -28 0
v -28 -30 0
v -30 -30 0
v -30 -28 0
v -28 -28 0
v -30 -30 0
v -32 -30 0
v -32 -28 0
v -30 -28 0
v -32 -30 0
v -34 -30 0
v -34 -28 0
v -32 -28 0
v -34 -30 0
v -36 -30 0
v -36 -28 0
v -34 -28 0
v -36 -30 0
v -38 -30 0
v -38 -28 0
v -36 -28 0
v -38 -30 0
v -40 -30 0
v -40 -28 0
v -38 -28 0
v -40 -30 0
v -42 -30 0
v -42 -28 0
v -40 -28 0

# Texture cooridinates (Count = 16)
vt 0.375 0.875
vt 0.5 0.875
vt 0.5 0.90625
vt 0.375 0.90625
vt 0.625 0.875
vt 0.625 0.90625
vt 0.75 0.875
vt 0.75 0.90625
vt 0.375 0.84375
vt 0.5 0.84375
vt 0.625 0.84375
vt 0.75 0.84375
vt 0.375 0.8125
vt 0.5 0.8125
vt 0.625 0.8125
vt 0.75 0.8125

# Normal
vn 0 0 -1

# Mesh description
g Room2_mesh_0003

# Faces
f 1/1/1 2/2/1 3/3/1 4/4/1
f 5/2/1 6/5/1 7/6/1 8/3/1
f 9/5/1 10/7/1 11/8/1 12/6/1
f 13/1/1 14/2/1 15/3/1 16/4/1
f 17/2/1 18/5/1 19/6/1 20/3/1
f 21/5/1 22/7/1 23/8/1 24/6/1
f 25/1/1 26/2/1 27/3/1 28/4/1
f 29/2/1 30/5/1 31/6/1 32/3/1
f 33/5/1 34/7/1 35/8/1 36/6/1
f 37/1/1 38/2/1 39/3/1 40/4/1
f 41/2/1 42/5/1 43/6/1 44/3/1
f 45/5/1 46/7/1 47/8/1 48/6/1
f 49/1/1 50/2/1 51/3/1 52/4/1
f 53/2/1 54/5/1 55/6/1 56/3/1
f 57/5/1 58/7/1 59/8/1 60/6/1
f 61/1/1 62/2/1 63/3/1 64/4/1
f 65/2/1 66/5/1 67/6/1 68/3/1
f 69/5/1 70/7/1 71/8/1 72/6/1
f 73/1/1 74/2/1 75/3/1 76/4/1
f 77/2/1 78/5/1 79/6/1 80/3/1
f 81/5/1 82/7/1 83/8/1 84/6/1
f 85/9/1 86/10/1 87/2/1 88/1/1
f 89/10/1 90/11/1 91/5/1 92/2/1
f 93/11/1 94/12/1 95/7/1 96/5/1
f 97/9/1 98/10/1 99/2/1 100/1/1
f 101/10/1 102/11/1 103/5/1 104/2/1
f 105/11/1 106/12/1 107/7/1 108/5/1
f 109/9/1 110/10/1 111/2/1 112/1/1
f 113/10/1 114/11/1 115/5/1 116/2/1
f 117/11/1 118/12/1 119/7/1 120/5/1
f 121/9/1 122/10/1 123/2/1 124/1/1
f 125/10/1 126/11/1 127/5/1 128/2/1
f 129/11/1 130/12/1 131/7/1 132/5/1
f 133/9/1 134/10/1 135/2/1 136/1/1
f 137/10/1 138/11/1 139/5/1 140/2/1
f 141/11/1 142/12/1 143/7/1 144/5/1
f 145/9/1 146/10/1 147/2/1 148/1/1
f 149/10/1 150/11/1 151/5/1 152/2/1
f 153/11/1 154/12/1 155/7/1 156/5/1
f 157/9/1 158/10/1 159/2/1 160/1/1
f 161/10/1 162/11/1 163/5/1 164/2/1
f 165/11/1 166/12/1 167/7/1 168/5/1
f 169/13/1 170/14/1 171/10/1 172/9/1
f 173/14/1 174/15/1 175/11/1 176/10/1
f 177/15/1 178/16/1 179/12/1 180/11/1
f 181/13/1 182/14/1 183/10/1 184/9/1
f 185/14/1 186/15/1 187/11/1 188/10/1
f 189/15/1 190/16/1 191/12/1 192/11/1
f 193/13/1 194/14/1 195/10/1 196/9/1
f 197/14/1 198/15/1 199/11/1 200/10/1
f 201/15/1 202/16/1 203/12/1 204/11/1
f 205/13/1 206/14/1 207/10/1 208/9/1
f 209/14/1 210/15/1 211/11/1 212/10/1
f 213/15/1 214/16/1 215/12/1 216/11/1
f 217/13/1 218/14/1 219/10/1 220/9/1
f 221/14/1 222/15/1 223/11/1 224/10/1
f 225/15/1 226/16/1 227/12/1 228/11/1
f 229/13/1 230/14/1 231/10/1 232/9/1
f 233/14/1 234/15/1 235/11/1 236/10/1
f 237/15/1 238/16/1 239/12/1 240/11/1
f 241/13/1 242/14/1 243/10/1 244/9/1
f 245/14/1 246/15/1 247/11/1 248/10/1
f 249/15/1 250/16/1 251/12/1 252/11/1
f 253/1/1 254/2/1 255/3/1 256/4/1
f 257/2/1 258/5/1 259/6/1 260/3/1
f 261/5/1 262/7/1 263/8/1 264/6/1
f 265/1/1 266/2/1 267/3/1 268/4/1
f 269/2/1 270/5/1 271/6/1 272/3/1
f 273/5/1 274/7/1 275/8/1 276/6/1
f 277/9/1 278/10/1 279/2/1 280/1/1
f 281/10/1 282/11/1 283/5/1 284/2/1
f 285/11/1 286/12/1 287/7/1 288/5/1
f 289/9/1 290/10/1 291/2/1 292/1/1
f 293/10/1 294/11/1 295/5/1 296/2/1
f 297/11/1 298/12/1 299/7/1 300/5/1
f 301/13/1 302/14/1 303/10/1 304/9/1
f 305/14/1 306/15/1 307/11/1 308/10/1
f 309/15/1 310/16/1 311/12/1 312/11/1
f 313/13/1 314/14/1 315/10/1 316/9/1
f 317/14/1 318/15/1 319/11/1 320/10/1
f 321/15/1 322/16/1 323/12/1 324/11/1
f 325/1/1 326/2/1 327/3/1 328/4/1
f 329/2/1 330/5/1 331/6/1 332/3/1
f 333/5/1 334/7/1 335/8/1 336/6/1
f 337/1/1 338/2/1 339/3/1 340/4/1
f 341/2/1 342/5/1 343/6/1 344/3/1
f 345/5/1 346/7/1 347/8/1 348/6/1
f 349/9/1 350/10/1 351/2/1 352/1/1
f 353/10/1 354/11/1 355/5/1 356/2/1
f 357/11/1 358/12/1 359/7/1 360/5/1
f 361/9/1 362/10/1 363/2/1 364/1/1
f 365/10/1 366/11/1 367/5/1 368/2/1
f 369/11/1 370/12/1 371/7/1 372/5/1
f 373/13/1 374/14/1 375/10/1 376/9/1
f 377/14/1 378/15/1 379/11/1 380/10/1
f 381/15/1 382/16/1 383/12/1 384/11/1
f 385/13/1 386/14/1 387/10/1 388/9/1
f 389/14/1 390/15/1 391/11/1 392/10/1
f 393/15/1 394/16/1 395/12/1 396/11/1
f 397/1/1 398/2/1 399/3/1 400/4/1
f 401/2/1 402/5/1 403/6/1 404/3/1
f 405/5/1 406/7/1 407/8/1 408/6/1
f 409/1/1 410/2/1 411/3/1 412/4/1
f 413/2/1 414/5/1 415/6/1 416/3/1
f 417/5/1 418/7/1 419/8/1 420/6/1
f 421/9/1 422/10/1 423/2/1 424/1/1
f 425/10/1 426/11/1 427/5/1 428/2/1
f 429/11/1 430/12/1 431/7/1 432/5/1
f 433/9/1 434/10/1 435/2/1 436/1/1
f 437/10/1 438/11/1 439/5/1 440/2/1
f 441/11/1 442/12/1 443/7/1 444/5/1
f 445/13/1 446/14/1 447/10/1 448/9/1
f 449/14/1 450/15/1 451/11/1 452/10/1
f 453/15/1 454/16/1 455/12/1 456/11/1
f 457/13/1 458/14/1 459/10/1 460/9/1
f 461/14/1 462/15/1 463/11/1 464/10/1
f 465/15/1 466/16/1 467/12/1 468/11/1
f 469/1/1 470/2/1 471/3/1 472/4/1
f 473/2/1 474/5/1 475/6/1 476/3/1
f 477/5/1 478/7/1 479/8/1 480/6/1
f 481/1/1 482/2/1 483/3/1 484/4/1
f 485/2/1 486/5/1 487/6/1 488/3/1
f 489/5/1 490/7/1 491/8/1 492/6/1
f 493/1/1 494/2/1 495/3/1 496/4/1
f 497/2/1 498/5/1 499/6/1 500/3/1
f 501/5/1 502/7/1 503/8/1 504/6/1
f 505/1/1 506/2/1 507/3/1 508/4/1
f 509/2/1 510/5/1 511/6/1 512/3/1
f 513/5/1 514/7/1 515/8/1 516/6/1
f 517/1/1 518/2/1 519/3/1 520/4/1
f 521/2/1 522/5/1 523/6/1 524/3/1
f 525/5/1 526/7/1 527/8/1 528/6/1
f 529/1/1 530/2/1 531/3/1 532/4/1
f 533/2/1 534/5/1 535/6/1 536/3/1
f 537/5/1 538/7/1 539/8/1 540/6/1
f 541/9/1 542/10/1 543/2/1 544/1/1
f 545/10/1 546/11/1 547/5/1 548/2/1
f 549/11/1 550/12/1 551/7/1 552/5/1
f 553/9/1 554/10/1 555/2/1 556/1/1
f 557/10/1 558/11/1 559/5/1 560/2/1
f 561/11/1 562/12/1 563/7/1 564/5/1
f 565/9/1 566/10/1 567/2/1 568/1/1
f 569/10/1 570/11/1 571/5/1 572/2/1
f 573/11/1 574/12/1 575/7/1 576/5/1
f 577/9/1 578/10/1 579/2/1 580/1/1
f 581/10/1 582/11/1 583/5/1 584/2/1
f 585/11/1 586/12/1 587/7/1 588/5/1
f 589/9/1 590/10/1 591/2/1 592/1/1
f 593/10/1 594/11/1 595/5/1 596/2/1
f 597/11/1 598/12/1 599/7/1 600/5/1
f 601/9/1 602/10/1 603/2/1 604/1/1
f 605/10/1 606/11/1 607/5/1 608/2/1
f 609/11/1 610/12/1 611/7/1 612/5/1
f 613/13/1 614/14/1 615/10/1 616/9/1
f 617/14/1 618/15/1 619/11/1 620/10/1
f 621/15/1 622/16/1 623/12/1 624/11/1
f 625/13/1 626/14/1 627/10/1 628/9/1
f 629/14/1 630/15/1 631/11/1 632/10/1
f 633/15/1 634/16/1 635/12/1 636/11/1
f 637/13/1 638/14/1 639/10/1 640/9/1
f 641/14/1 642/15/1 643/11/1 644/10/1
f 645/15/1 646/16/1 647/12/1 648/11/1
f 649/13/1 650/14/1 651/10/1 652/9/1
f 653/14/1 654/15/1 655/11/1 656/10/1
f 657/15/1 658/16/1 659/12/1 660/11/1
f 661/13/1 662/14/1 663/10/1 664/9/1
f 665/14/1 666/15/1 667/11/1 668/10/1
f 669/15/1 670/16/1 671/12/1 672/11/1
f 673/13/1 674/14/1 675/10/1 676/9/1
f 677/14/1 678/15/1 679/11/1 680/10/1
f 681/15/1 682/16/1 683/12/1 684/11/1

