# Tiled2Unity generated file. Do not modify by hand.
# Wavefront file for 'ClosedRoom_mesh_0002.obj'

# Vertices (Count = 244)
v -6 -10 0
v -8 -10 0
v -8 -8 0
v -6 -8 0
v -22 -10 0
v -24 -10 0
v -24 -8 0
v -22 -8 0
v -24 -10 0
v -26 -10 0
v -26 -8 0
v -24 -8 0
v -26 -10 0
v -28 -10 0
v -28 -8 0
v -26 -8 0
v -16 -12 0
v -18 -12 0
v -18 -10 0
v -16 -10 0
v -18 -12 0
v -20 -12 0
v -20 -10 0
v -18 -10 0
v -20 -12 0
v -22 -12 0
v -22 -10 0
v -20 -10 0
v -22 -12 0
v -24 -12 0
v -24 -10 0
v -22 -10 0
v -24 -12 0
v -26 -12 0
v -26 -10 0
v -24 -10 0
v -26 -12 0
v -28 -12 0
v -28 -10 0
v -26 -10 0
v -16 -14 0
v -18 -14 0
v -18 -12 0
v -16 -12 0
v -18 -14 0
v -20 -14 0
v -20 -12 0
v -18 -12 0
v -20 -14 0
v -22 -14 0
v -22 -12 0
v -20 -12 0
v -22 -14 0
v -24 -14 0
v -24 -12 0
v -22 -12 0
v -24 -14 0
v -26 -14 0
v -26 -12 0
v -24 -12 0
v -26 -14 0
v -28 -14 0
v -28 -12 0
v -26 -12 0
v -22 -16 0
v -24 -16 0
v -24 -14 0
v -22 -14 0
v -24 -16 0
v -26 -16 0
v -26 -14 0
v -24 -14 0
v -26 -16 0
v -28 -16 0
v -28 -14 0
v -26 -14 0
v -12 -18 0
v -14 -18 0
v -14 -16 0
v -12 -16 0
v -14 -18 0
v -16 -18 0
v -16 -16 0
v -14 -16 0
v -16 -18 0
v -18 -18 0
v -18 -16 0
v -16 -16 0
v -18 -18 0
v -20 -18 0
v -20 -16 0
v -18 -16 0
v -20 -18 0
v -22 -18 0
v -22 -16 0
v -20 -16 0
v -22 -18 0
v -24 -18 0
v -24 -16 0
v -22 -16 0
v -24 -18 0
v -26 -18 0
v -26 -16 0
v -24 -16 0
v -26 -18 0
v -28 -18 0
v -28 -16 0
v -26 -16 0
v -14 -20 0
v -16 -20 0
v -16 -18 0
v -14 -18 0
v -16 -20 0
v -18 -20 0
v -18 -18 0
v -16 -18 0
v -18 -20 0
v -20 -20 0
v -20 -18 0
v -18 -18 0
v -20 -20 0
v -22 -20 0
v -22 -18 0
v -20 -18 0
v -22 -20 0
v -24 -20 0
v -24 -18 0
v -22 -18 0
v -24 -20 0
v -26 -20 0
v -26 -18 0
v -24 -18 0
v -26 -20 0
v -28 -20 0
v -28 -18 0
v -26 -18 0
v -16 -22 0
v -18 -22 0
v -18 -20 0
v -16 -20 0
v -18 -22 0
v -20 -22 0
v -20 -20 0
v -18 -20 0
v -20 -22 0
v -22 -22 0
v -22 -20 0
v -20 -20 0
v -22 -22 0
v -24 -22 0
v -24 -20 0
v -22 -20 0
v -24 -22 0
v -26 -22 0
v -26 -20 0
v -24 -20 0
v -26 -22 0
v -28 -22 0
v -28 -20 0
v -26 -20 0
v -28 -22 0
v -30 -22 0
v -30 -20 0
v -28 -20 0
v -18 -24 0
v -20 -24 0
v -20 -22 0
v -18 -22 0
v -20 -24 0
v -22 -24 0
v -22 -22 0
v -20 -22 0
v -22 -24 0
v -24 -24 0
v -24 -22 0
v -22 -22 0
v 0 -30 0
v -2 -30 0
v -2 -28 0
v 0 -28 0
v -2 -30 0
v -4 -30 0
v -4 -28 0
v -2 -28 0
v -4 -30 0
v -6 -30 0
v -6 -28 0
v -4 -28 0
v -6 -30 0
v -8 -30 0
v -8 -28 0
v -6 -28 0
v -8 -30 0
v -10 -30 0
v -10 -28 0
v -8 -28 0
v -10 -30 0
v -12 -30 0
v -12 -28 0
v -10 -28 0
v -12 -30 0
v -14 -30 0
v -14 -28 0
v -12 -28 0
v -14 -30 0
v -16 -30 0
v -16 -28 0
v -14 -28 0
v -16 -30 0
v -18 -30 0
v -18 -28 0
v -16 -28 0
v -24 -30 0
v -26 -30 0
v -26 -28 0
v -24 -28 0
v -26 -30 0
v -28 -30 0
v -28 -28 0
v -26 -28 0
v -28 -30 0
v -30 -30 0
v -30 -28 0
v -28 -28 0
v -30 -30 0
v -32 -30 0
v -32 -28 0
v -30 -28 0
v -32 -30 0
v -34 -30 0
v -34 -28 0
v -32 -28 0
v -34 -30 0
v -36 -30 0
v -36 -28 0
v -34 -28 0
v -36 -30 0
v -38 -30 0
v -38 -28 0
v -36 -28 0
v -38 -30 0
v -40 -30 0
v -40 -28 0
v -38 -28 0

# Texture cooridinates (Count = 8)
vt 0.625 0.40625
vt 0.75 0.40625
vt 0.75 0.4375
vt 0.625 0.4375
vt 0.125 0.25
vt 0.25 0.25
vt 0.25 0.28125
vt 0.125 0.28125

# Normal
vn 0 0 -1

# Mesh description
g ClosedRoom_mesh_0002

# Faces
f 1/1/1 2/2/1 3/3/1 4/4/1
f 5/5/1 6/6/1 7/7/1 8/8/1
f 9/5/1 10/6/1 11/7/1 12/8/1
f 13/5/1 14/6/1 15/7/1 16/8/1
f 17/5/1 18/6/1 19/7/1 20/8/1
f 21/5/1 22/6/1 23/7/1 24/8/1
f 25/5/1 26/6/1 27/7/1 28/8/1
f 29/5/1 30/6/1 31/7/1 32/8/1
f 33/5/1 34/6/1 35/7/1 36/8/1
f 37/5/1 38/6/1 39/7/1 40/8/1
f 41/5/1 42/6/1 43/7/1 44/8/1
f 45/5/1 46/6/1 47/7/1 48/8/1
f 49/5/1 50/6/1 51/7/1 52/8/1
f 53/5/1 54/6/1 55/7/1 56/8/1
f 57/5/1 58/6/1 59/7/1 60/8/1
f 61/5/1 62/6/1 63/7/1 64/8/1
f 65/5/1 66/6/1 67/7/1 68/8/1
f 69/5/1 70/6/1 71/7/1 72/8/1
f 73/5/1 74/6/1 75/7/1 76/8/1
f 77/5/1 78/6/1 79/7/1 80/8/1
f 81/5/1 82/6/1 83/7/1 84/8/1
f 85/5/1 86/6/1 87/7/1 88/8/1
f 89/5/1 90/6/1 91/7/1 92/8/1
f 93/5/1 94/6/1 95/7/1 96/8/1
f 97/5/1 98/6/1 99/7/1 100/8/1
f 101/5/1 102/6/1 103/7/1 104/8/1
f 105/5/1 106/6/1 107/7/1 108/8/1
f 109/5/1 110/6/1 111/7/1 112/8/1
f 113/5/1 114/6/1 115/7/1 116/8/1
f 117/5/1 118/6/1 119/7/1 120/8/1
f 121/5/1 122/6/1 123/7/1 124/8/1
f 125/5/1 126/6/1 127/7/1 128/8/1
f 129/5/1 130/6/1 131/7/1 132/8/1
f 133/5/1 134/6/1 135/7/1 136/8/1
f 137/5/1 138/6/1 139/7/1 140/8/1
f 141/5/1 142/6/1 143/7/1 144/8/1
f 145/5/1 146/6/1 147/7/1 148/8/1
f 149/5/1 150/6/1 151/7/1 152/8/1
f 153/5/1 154/6/1 155/7/1 156/8/1
f 157/5/1 158/6/1 159/7/1 160/8/1
f 161/5/1 162/6/1 163/7/1 164/8/1
f 165/5/1 166/6/1 167/7/1 168/8/1
f 169/5/1 170/6/1 171/7/1 172/8/1
f 173/5/1 174/6/1 175/7/1 176/8/1
f 177/1/1 178/2/1 179/3/1 180/4/1
f 181/1/1 182/2/1 183/3/1 184/4/1
f 185/1/1 186/2/1 187/3/1 188/4/1
f 189/1/1 190/2/1 191/3/1 192/4/1
f 193/1/1 194/2/1 195/3/1 196/4/1
f 197/1/1 198/2/1 199/3/1 200/4/1
f 201/1/1 202/2/1 203/3/1 204/4/1
f 205/1/1 206/2/1 207/3/1 208/4/1
f 209/1/1 210/2/1 211/3/1 212/4/1
f 213/1/1 214/2/1 215/3/1 216/4/1
f 217/1/1 218/2/1 219/3/1 220/4/1
f 221/1/1 222/2/1 223/3/1 224/4/1
f 225/1/1 226/2/1 227/3/1 228/4/1
f 229/1/1 230/2/1 231/3/1 232/4/1
f 233/1/1 234/2/1 235/3/1 236/4/1
f 237/1/1 238/2/1 239/3/1 240/4/1
f 241/1/1 242/2/1 243/3/1 244/4/1

