# Tiled2Unity generated file. Do not modify by hand.
# Wavefront file for 'BeachTR_mesh_0003.obj'

# Vertices (Count = 36)
v -6 -14 0
v -8 -14 0
v -8 -12 0
v -6 -12 0
v -6 -16 0
v -8 -16 0
v -8 -14 0
v -6 -14 0
v -6 -18 0
v -8 -18 0
v -8 -16 0
v -6 -16 0
v -6 -20 0
v -8 -20 0
v -8 -18 0
v -6 -18 0
v -16 -26 0
v -18 -26 0
v -18 -24 0
v -16 -24 0
v -18 -26 0
v -20 -26 0
v -20 -24 0
v -18 -24 0
v -20 -26 0
v -22 -26 0
v -22 -24 0
v -20 -24 0
v -22 -26 0
v -24 -26 0
v -24 -24 0
v -22 -24 0
v -24 -26 0
v -26 -26 0
v -26 -24 0
v -24 -24 0

# Texture cooridinates (Count = 7)
vt 0 0.9375
vt 0.125 0.9375
vt 0.125 0.96875
vt 0 0.96875
vt 0.25 0.96875
vt 0.25 1
vt 0.125 1

# Normal
vn 0 0 -1

# Mesh description
g BeachTR_mesh_0003

# Faces
f 1/1/1 2/2/1 3/3/1 4/4/1
f 5/1/1 6/2/1 7/3/1 8/4/1
f 9/1/1 10/2/1 11/3/1 12/4/1
f 13/1/1 14/2/1 15/3/1 16/4/1
f 17/3/1 18/5/1 19/6/1 20/7/1
f 21/3/1 22/5/1 23/6/1 24/7/1
f 25/3/1 26/5/1 27/6/1 28/7/1
f 29/3/1 30/5/1 31/6/1 32/7/1
f 33/3/1 34/5/1 35/6/1 36/7/1

