# Tiled2Unity generated file. Do not modify by hand.
# Wavefront file for 'Tressure_Room_Bottom_Enterence_Only_mesh_0007.obj'

# Vertices (Count = 196)
v -6 -6 0
v -8 -6 0
v -8 -4 0
v -6 -4 0
v -8 -6 0
v -10 -6 0
v -10 -4 0
v -8 -4 0
v -10 -6 0
v -12 -6 0
v -12 -4 0
v -10 -4 0
v -12 -6 0
v -14 -6 0
v -14 -4 0
v -12 -4 0
v -14 -6 0
v -16 -6 0
v -16 -4 0
v -14 -4 0
v -16 -6 0
v -18 -6 0
v -18 -4 0
v -16 -4 0
v -18 -6 0
v -20 -6 0
v -20 -4 0
v -18 -4 0
v -20 -6 0
v -22 -6 0
v -22 -4 0
v -20 -4 0
v -22 -6 0
v -24 -6 0
v -24 -4 0
v -22 -4 0
v -24 -6 0
v -26 -6 0
v -26 -4 0
v -24 -4 0
v -26 -6 0
v -28 -6 0
v -28 -4 0
v -26 -4 0
v -28 -6 0
v -30 -6 0
v -30 -4 0
v -28 -4 0
v -30 -6 0
v -32 -6 0
v -32 -4 0
v -30 -4 0
v -32 -6 0
v -34 -6 0
v -34 -4 0
v -32 -4 0
v -34 -6 0
v -36 -6 0
v -36 -4 0
v -34 -4 0
v -6 -8 0
v -8 -8 0
v -8 -6 0
v -6 -6 0
v -34 -8 0
v -36 -8 0
v -36 -6 0
v -34 -6 0
v -6 -10 0
v -8 -10 0
v -8 -8 0
v -6 -8 0
v -34 -10 0
v -36 -10 0
v -36 -8 0
v -34 -8 0
v -6 -12 0
v -8 -12 0
v -8 -10 0
v -6 -10 0
v -34 -12 0
v -36 -12 0
v -36 -10 0
v -34 -10 0
v -6 -14 0
v -8 -14 0
v -8 -12 0
v -6 -12 0
v -34 -14 0
v -36 -14 0
v -36 -12 0
v -34 -12 0
v -6 -16 0
v -8 -16 0
v -8 -14 0
v -6 -14 0
v -34 -16 0
v -36 -16 0
v -36 -14 0
v -34 -14 0
v -6 -18 0
v -8 -18 0
v -8 -16 0
v -6 -16 0
v -34 -18 0
v -36 -18 0
v -36 -16 0
v -34 -16 0
v -6 -20 0
v -8 -20 0
v -8 -18 0
v -6 -18 0
v -34 -20 0
v -36 -20 0
v -36 -18 0
v -34 -18 0
v -6 -22 0
v -8 -22 0
v -8 -20 0
v -6 -20 0
v -34 -22 0
v -36 -22 0
v -36 -20 0
v -34 -20 0
v -6 -24 0
v -8 -24 0
v -8 -22 0
v -6 -22 0
v -34 -24 0
v -36 -24 0
v -36 -22 0
v -34 -22 0
v -6 -26 0
v -8 -26 0
v -8 -24 0
v -6 -24 0
v -8 -26 0
v -10 -26 0
v -10 -24 0
v -8 -24 0
v -10 -26 0
v -12 -26 0
v -12 -24 0
v -10 -24 0
v -12 -26 0
v -14 -26 0
v -14 -24 0
v -12 -24 0
v -14 -26 0
v -16 -26 0
v -16 -24 0
v -14 -24 0
v -16 -26 0
v -18 -26 0
v -18 -24 0
v -16 -24 0
v -24 -26 0
v -26 -26 0
v -26 -24 0
v -24 -24 0
v -26 -26 0
v -28 -26 0
v -28 -24 0
v -26 -24 0
v -28 -26 0
v -30 -26 0
v -30 -24 0
v -28 -24 0
v -30 -26 0
v -32 -26 0
v -32 -24 0
v -30 -24 0
v -32 -26 0
v -34 -26 0
v -34 -24 0
v -32 -24 0
v -34 -26 0
v -36 -26 0
v -36 -24 0
v -34 -24 0
v -18 -28 0
v -20 -28 0
v -20 -26 0
v -18 -26 0
v -22 -28 0
v -24 -28 0
v -24 -26 0
v -22 -26 0
v -18 -30 0
v -20 -30 0
v -20 -28 0
v -18 -28 0
v -22 -30 0
v -24 -30 0
v -24 -28 0
v -22 -28 0

# Texture cooridinates (Count = 16)
vt 0 0.875
vt 0.125 0.875
vt 0.125 0.90625
vt 0 0.90625
vt 0.125 0.8125
vt 0.25 0.8125
vt 0.25 0.84375
vt 0.125 0.84375
vt 0.25 0.875
vt 0.375 0.875
vt 0.375 0.90625
vt 0.25 0.90625
vt 0 0.84375
vt 0.375 0.84375
vt 0 0.8125
vt 0.375 0.8125

# Normal
vn 0 0 -1

# Mesh description
g Tressure_Room_Bottom_Enterence_Only_mesh_0007

# Faces
f 1/1/1 2/2/1 3/3/1 4/4/1
f 5/5/1 6/6/1 7/7/1 8/8/1
f 9/5/1 10/6/1 11/7/1 12/8/1
f 13/5/1 14/6/1 15/7/1 16/8/1
f 17/5/1 18/6/1 19/7/1 20/8/1
f 21/5/1 22/6/1 23/7/1 24/8/1
f 25/5/1 26/6/1 27/7/1 28/8/1
f 29/5/1 30/6/1 31/7/1 32/8/1
f 33/5/1 34/6/1 35/7/1 36/8/1
f 37/5/1 38/6/1 39/7/1 40/8/1
f 41/5/1 42/6/1 43/7/1 44/8/1
f 45/5/1 46/6/1 47/7/1 48/8/1
f 49/5/1 50/6/1 51/7/1 52/8/1
f 53/5/1 54/6/1 55/7/1 56/8/1
f 57/9/1 58/10/1 59/11/1 60/12/1
f 61/13/1 62/8/1 63/2/1 64/1/1
f 65/7/1 66/14/1 67/10/1 68/9/1
f 69/13/1 70/8/1 71/2/1 72/1/1
f 73/7/1 74/14/1 75/10/1 76/9/1
f 77/13/1 78/8/1 79/2/1 80/1/1
f 81/7/1 82/14/1 83/10/1 84/9/1
f 85/13/1 86/8/1 87/2/1 88/1/1
f 89/7/1 90/14/1 91/10/1 92/9/1
f 93/13/1 94/8/1 95/2/1 96/1/1
f 97/7/1 98/14/1 99/10/1 100/9/1
f 101/13/1 102/8/1 103/2/1 104/1/1
f 105/7/1 106/14/1 107/10/1 108/9/1
f 109/13/1 110/8/1 111/2/1 112/1/1
f 113/7/1 114/14/1 115/10/1 116/9/1
f 117/13/1 118/8/1 119/2/1 120/1/1
f 121/7/1 122/14/1 123/10/1 124/9/1
f 125/13/1 126/8/1 127/2/1 128/1/1
f 129/7/1 130/14/1 131/10/1 132/9/1
f 133/15/1 134/5/1 135/8/1 136/13/1
f 137/5/1 138/6/1 139/7/1 140/8/1
f 141/5/1 142/6/1 143/7/1 144/8/1
f 145/5/1 146/6/1 147/7/1 148/8/1
f 149/5/1 150/6/1 151/7/1 152/8/1
f 153/5/1 154/6/1 155/7/1 156/8/1
f 157/5/1 158/6/1 159/7/1 160/8/1
f 161/5/1 162/6/1 163/7/1 164/8/1
f 165/5/1 166/6/1 167/7/1 168/8/1
f 169/5/1 170/6/1 171/7/1 172/8/1
f 173/5/1 174/6/1 175/7/1 176/8/1
f 177/6/1 178/16/1 179/14/1 180/7/1
f 181/13/1 182/8/1 183/2/1 184/1/1
f 185/7/1 186/14/1 187/10/1 188/9/1
f 189/13/1 190/8/1 191/2/1 192/1/1
f 193/7/1 194/14/1 195/10/1 196/9/1

