# Tiled2Unity generated file. Do not modify by hand.
# Wavefront file for 'Tressure_Room_Bottom_Enterence_Only_mesh_0002.obj'

# Vertices (Count = 36)
v -18 -26 0
v -20 -26 0
v -20 -24 0
v -18 -24 0
v -20 -26 0
v -22 -26 0
v -22 -24 0
v -20 -24 0
v -22 -26 0
v -24 -26 0
v -24 -24 0
v -22 -24 0
v -18 -28 0
v -20 -28 0
v -20 -26 0
v -18 -26 0
v -20 -28 0
v -22 -28 0
v -22 -26 0
v -20 -26 0
v -22 -28 0
v -24 -28 0
v -24 -26 0
v -22 -26 0
v -18 -30 0
v -20 -30 0
v -20 -28 0
v -18 -28 0
v -20 -30 0
v -22 -30 0
v -22 -28 0
v -20 -28 0
v -22 -30 0
v -24 -30 0
v -24 -28 0
v -22 -28 0

# Texture cooridinates (Count = 12)
vt 0 0.375
vt 0.125 0.375
vt 0.125 0.40625
vt 0 0.40625
vt 0.25 0.375
vt 0.25 0.40625
vt 0.375 0.375
vt 0.375 0.40625
vt 0 0.34375
vt 0.125 0.34375
vt 0.25 0.34375
vt 0.375 0.34375

# Normal
vn 0 0 -1

# Mesh description
g Tressure_Room_Bottom_Enterence_Only_mesh_0002

# Faces
f 1/1/1 2/2/1 3/3/1 4/4/1
f 5/2/1 6/5/1 7/6/1 8/3/1
f 9/5/1 10/7/1 11/8/1 12/6/1
f 13/9/1 14/10/1 15/2/1 16/1/1
f 17/10/1 18/11/1 19/5/1 20/2/1
f 21/11/1 22/12/1 23/7/1 24/5/1
f 25/9/1 26/10/1 27/2/1 28/1/1
f 29/10/1 30/11/1 31/5/1 32/2/1
f 33/11/1 34/12/1 35/7/1 36/5/1

