# Tiled2Unity generated file. Do not modify by hand.
# Wavefront file for 'Tressure_Room_Left_Enterence_Only_mesh_0006.obj'

# Vertices (Count = 36)
v -36 -18 0
v -38 -18 0
v -38 -16 0
v -36 -16 0
v -38 -18 0
v -40 -18 0
v -40 -16 0
v -38 -16 0
v -40 -18 0
v -42 -18 0
v -42 -16 0
v -40 -16 0
v -36 -20 0
v -38 -20 0
v -38 -18 0
v -36 -18 0
v -38 -20 0
v -40 -20 0
v -40 -18 0
v -38 -18 0
v -40 -20 0
v -42 -20 0
v -42 -18 0
v -40 -18 0
v -36 -22 0
v -38 -22 0
v -38 -20 0
v -36 -20 0
v -38 -22 0
v -40 -22 0
v -40 -20 0
v -38 -20 0
v -40 -22 0
v -42 -22 0
v -42 -20 0
v -40 -20 0

# Texture cooridinates (Count = 19)
vt 0 0.71875
vt 0.125 0.71875
vt 0.125 0.75
vt 0 0.75
vt 0.125 0.96875
vt 0.25 0.96875
vt 0.25 1
vt 0.125 1
vt 0.375 0.96875
vt 0.375 1
vt 0 0.9375
vt 0.125 0.9375
vt 0 0.96875
vt 0.25 0.9375
vt 0.375 0.9375
vt 0 0.90625
vt 0.125 0.90625
vt 0.25 0.90625
vt 0.375 0.90625

# Normal
vn 0 0 -1

# Mesh description
g Tressure_Room_Left_Enterence_Only_mesh_0006

# Faces
f 1/1/1 2/2/1 3/3/1 4/4/1
f 5/5/1 6/6/1 7/7/1 8/8/1
f 9/6/1 10/9/1 11/10/1 12/7/1
f 13/11/1 14/12/1 15/5/1 16/13/1
f 17/12/1 18/14/1 19/6/1 20/5/1
f 21/14/1 22/15/1 23/9/1 24/6/1
f 25/16/1 26/17/1 27/12/1 28/11/1
f 29/17/1 30/18/1 31/14/1 32/12/1
f 33/18/1 34/19/1 35/15/1 36/14/1

