# Tiled2Unity generated file. Do not modify by hand.
# Wavefront file for 'Tressure_Room_Left_Enterence_Only_mesh_0010.obj'

# Vertices (Count = 324)
v 0 -6 0
v -2 -6 0
v -2 -4 0
v 0 -4 0
v -2 -6 0
v -4 -6 0
v -4 -4 0
v -2 -4 0
v -4 -6 0
v -6 -6 0
v -6 -4 0
v -4 -4 0
v -36 -6 0
v -38 -6 0
v -38 -4 0
v -36 -4 0
v -38 -6 0
v -40 -6 0
v -40 -4 0
v -38 -4 0
v -40 -6 0
v -42 -6 0
v -42 -4 0
v -40 -4 0
v 0 -8 0
v -2 -8 0
v -2 -6 0
v 0 -6 0
v -2 -8 0
v -4 -8 0
v -4 -6 0
v -2 -6 0
v -4 -8 0
v -6 -8 0
v -6 -6 0
v -4 -6 0
v -36 -8 0
v -38 -8 0
v -38 -6 0
v -36 -6 0
v -38 -8 0
v -40 -8 0
v -40 -6 0
v -38 -6 0
v -40 -8 0
v -42 -8 0
v -42 -6 0
v -40 -6 0
v 0 -10 0
v -2 -10 0
v -2 -8 0
v 0 -8 0
v -2 -10 0
v -4 -10 0
v -4 -8 0
v -2 -8 0
v -4 -10 0
v -6 -10 0
v -6 -8 0
v -4 -8 0
v -36 -10 0
v -38 -10 0
v -38 -8 0
v -36 -8 0
v -38 -10 0
v -40 -10 0
v -40 -8 0
v -38 -8 0
v -40 -10 0
v -42 -10 0
v -42 -8 0
v -40 -8 0
v 0 -26 0
v -2 -26 0
v -2 -24 0
v 0 -24 0
v -2 -26 0
v -4 -26 0
v -4 -24 0
v -2 -24 0
v -4 -26 0
v -6 -26 0
v -6 -24 0
v -4 -24 0
v -6 -26 0
v -8 -26 0
v -8 -24 0
v -6 -24 0
v -8 -26 0
v -10 -26 0
v -10 -24 0
v -8 -24 0
v -10 -26 0
v -12 -26 0
v -12 -24 0
v -10 -24 0
v -12 -26 0
v -14 -26 0
v -14 -24 0
v -12 -24 0
v -14 -26 0
v -16 -26 0
v -16 -24 0
v -14 -24 0
v -16 -26 0
v -18 -26 0
v -18 -24 0
v -16 -24 0
v -18 -26 0
v -20 -26 0
v -20 -24 0
v -18 -24 0
v -20 -26 0
v -22 -26 0
v -22 -24 0
v -20 -24 0
v -22 -26 0
v -24 -26 0
v -24 -24 0
v -22 -24 0
v -24 -26 0
v -26 -26 0
v -26 -24 0
v -24 -24 0
v -26 -26 0
v -28 -26 0
v -28 -24 0
v -26 -24 0
v -28 -26 0
v -30 -26 0
v -30 -24 0
v -28 -24 0
v -30 -26 0
v -32 -26 0
v -32 -24 0
v -30 -24 0
v -32 -26 0
v -34 -26 0
v -34 -24 0
v -32 -24 0
v -34 -26 0
v -36 -26 0
v -36 -24 0
v -34 -24 0
v -36 -26 0
v -38 -26 0
v -38 -24 0
v -36 -24 0
v -38 -26 0
v -40 -26 0
v -40 -24 0
v -38 -24 0
v -40 -26 0
v -42 -26 0
v -42 -24 0
v -40 -24 0
v 0 -28 0
v -2 -28 0
v -2 -26 0
v 0 -26 0
v -2 -28 0
v -4 -28 0
v -4 -26 0
v -2 -26 0
v -4 -28 0
v -6 -28 0
v -6 -26 0
v -4 -26 0
v -6 -28 0
v -8 -28 0
v -8 -26 0
v -6 -26 0
v -8 -28 0
v -10 -28 0
v -10 -26 0
v -8 -26 0
v -10 -28 0
v -12 -28 0
v -12 -26 0
v -10 -26 0
v -12 -28 0
v -14 -28 0
v -14 -26 0
v -12 -26 0
v -14 -28 0
v -16 -28 0
v -16 -26 0
v -14 -26 0
v -16 -28 0
v -18 -28 0
v -18 -26 0
v -16 -26 0
v -18 -28 0
v -20 -28 0
v -20 -26 0
v -18 -26 0
v -20 -28 0
v -22 -28 0
v -22 -26 0
v -20 -26 0
v -22 -28 0
v -24 -28 0
v -24 -26 0
v -22 -26 0
v -24 -28 0
v -26 -28 0
v -26 -26 0
v -24 -26 0
v -26 -28 0
v -28 -28 0
v -28 -26 0
v -26 -26 0
v -28 -28 0
v -30 -28 0
v -30 -26 0
v -28 -26 0
v -30 -28 0
v -32 -28 0
v -32 -26 0
v -30 -26 0
v -32 -28 0
v -34 -28 0
v -34 -26 0
v -32 -26 0
v -34 -28 0
v -36 -28 0
v -36 -26 0
v -34 -26 0
v -36 -28 0
v -38 -28 0
v -38 -26 0
v -36 -26 0
v -38 -28 0
v -40 -28 0
v -40 -26 0
v -38 -26 0
v -40 -28 0
v -42 -28 0
v -42 -26 0
v -40 -26 0
v 0 -30 0
v -2 -30 0
v -2 -28 0
v 0 -28 0
v -2 -30 0
v -4 -30 0
v -4 -28 0
v -2 -28 0
v -4 -30 0
v -6 -30 0
v -6 -28 0
v -4 -28 0
v -6 -30 0
v -8 -30 0
v -8 -28 0
v -6 -28 0
v -8 -30 0
v -10 -30 0
v -10 -28 0
v -8 -28 0
v -10 -30 0
v -12 -30 0
v -12 -28 0
v -10 -28 0
v -12 -30 0
v -14 -30 0
v -14 -28 0
v -12 -28 0
v -14 -30 0
v -16 -30 0
v -16 -28 0
v -14 -28 0
v -16 -30 0
v -18 -30 0
v -18 -28 0
v -16 -28 0
v -18 -30 0
v -20 -30 0
v -20 -28 0
v -18 -28 0
v -20 -30 0
v -22 -30 0
v -22 -28 0
v -20 -28 0
v -22 -30 0
v -24 -30 0
v -24 -28 0
v -22 -28 0
v -24 -30 0
v -26 -30 0
v -26 -28 0
v -24 -28 0
v -26 -30 0
v -28 -30 0
v -28 -28 0
v -26 -28 0
v -28 -30 0
v -30 -30 0
v -30 -28 0
v -28 -28 0
v -30 -30 0
v -32 -30 0
v -32 -28 0
v -30 -28 0
v -32 -30 0
v -34 -30 0
v -34 -28 0
v -32 -28 0
v -34 -30 0
v -36 -30 0
v -36 -28 0
v -34 -28 0
v -36 -30 0
v -38 -30 0
v -38 -28 0
v -36 -28 0
v -38 -30 0
v -40 -30 0
v -40 -28 0
v -38 -28 0
v -40 -30 0
v -42 -30 0
v -42 -28 0
v -40 -28 0

# Texture cooridinates (Count = 19)
vt 0 0.71875
vt 0.125 0.71875
vt 0.125 0.75
vt 0 0.75
vt 0.125 0.96875
vt 0.25 0.96875
vt 0.25 1
vt 0.125 1
vt 0.375 0.96875
vt 0.375 1
vt 0 0.9375
vt 0.125 0.9375
vt 0 0.96875
vt 0.25 0.9375
vt 0.375 0.9375
vt 0 0.90625
vt 0.125 0.90625
vt 0.25 0.90625
vt 0.375 0.90625

# Normal
vn 0 0 -1

# Mesh description
g Tressure_Room_Left_Enterence_Only_mesh_0010

# Faces
f 1/1/1 2/2/1 3/3/1 4/4/1
f 5/5/1 6/6/1 7/7/1 8/8/1
f 9/6/1 10/9/1 11/10/1 12/7/1
f 13/1/1 14/2/1 15/3/1 16/4/1
f 17/5/1 18/6/1 19/7/1 20/8/1
f 21/6/1 22/9/1 23/10/1 24/7/1
f 25/11/1 26/12/1 27/5/1 28/13/1
f 29/12/1 30/14/1 31/6/1 32/5/1
f 33/14/1 34/15/1 35/9/1 36/6/1
f 37/11/1 38/12/1 39/5/1 40/13/1
f 41/12/1 42/14/1 43/6/1 44/5/1
f 45/14/1 46/15/1 47/9/1 48/6/1
f 49/16/1 50/17/1 51/12/1 52/11/1
f 53/17/1 54/18/1 55/14/1 56/12/1
f 57/18/1 58/19/1 59/15/1 60/14/1
f 61/16/1 62/17/1 63/12/1 64/11/1
f 65/17/1 66/18/1 67/14/1 68/12/1
f 69/18/1 70/19/1 71/15/1 72/14/1
f 73/1/1 74/2/1 75/3/1 76/4/1
f 77/5/1 78/6/1 79/7/1 80/8/1
f 81/6/1 82/9/1 83/10/1 84/7/1
f 85/1/1 86/2/1 87/3/1 88/4/1
f 89/5/1 90/6/1 91/7/1 92/8/1
f 93/6/1 94/9/1 95/10/1 96/7/1
f 97/1/1 98/2/1 99/3/1 100/4/1
f 101/5/1 102/6/1 103/7/1 104/8/1
f 105/6/1 106/9/1 107/10/1 108/7/1
f 109/1/1 110/2/1 111/3/1 112/4/1
f 113/5/1 114/6/1 115/7/1 116/8/1
f 117/6/1 118/9/1 119/10/1 120/7/1
f 121/1/1 122/2/1 123/3/1 124/4/1
f 125/5/1 126/6/1 127/7/1 128/8/1
f 129/6/1 130/9/1 131/10/1 132/7/1
f 133/1/1 134/2/1 135/3/1 136/4/1
f 137/5/1 138/6/1 139/7/1 140/8/1
f 141/6/1 142/9/1 143/10/1 144/7/1
f 145/1/1 146/2/1 147/3/1 148/4/1
f 149/5/1 150/6/1 151/7/1 152/8/1
f 153/6/1 154/9/1 155/10/1 156/7/1
f 157/11/1 158/12/1 159/5/1 160/13/1
f 161/12/1 162/14/1 163/6/1 164/5/1
f 165/14/1 166/15/1 167/9/1 168/6/1
f 169/11/1 170/12/1 171/5/1 172/13/1
f 173/12/1 174/14/1 175/6/1 176/5/1
f 177/14/1 178/15/1 179/9/1 180/6/1
f 181/11/1 182/12/1 183/5/1 184/13/1
f 185/12/1 186/14/1 187/6/1 188/5/1
f 189/14/1 190/15/1 191/9/1 192/6/1
f 193/11/1 194/12/1 195/5/1 196/13/1
f 197/12/1 198/14/1 199/6/1 200/5/1
f 201/14/1 202/15/1 203/9/1 204/6/1
f 205/11/1 206/12/1 207/5/1 208/13/1
f 209/12/1 210/14/1 211/6/1 212/5/1
f 213/14/1 214/15/1 215/9/1 216/6/1
f 217/11/1 218/12/1 219/5/1 220/13/1
f 221/12/1 222/14/1 223/6/1 224/5/1
f 225/14/1 226/15/1 227/9/1 228/6/1
f 229/11/1 230/12/1 231/5/1 232/13/1
f 233/12/1 234/14/1 235/6/1 236/5/1
f 237/14/1 238/15/1 239/9/1 240/6/1
f 241/16/1 242/17/1 243/12/1 244/11/1
f 245/17/1 246/18/1 247/14/1 248/12/1
f 249/18/1 250/19/1 251/15/1 252/14/1
f 253/16/1 254/17/1 255/12/1 256/11/1
f 257/17/1 258/18/1 259/14/1 260/12/1
f 261/18/1 262/19/1 263/15/1 264/14/1
f 265/16/1 266/17/1 267/12/1 268/11/1
f 269/17/1 270/18/1 271/14/1 272/12/1
f 273/18/1 274/19/1 275/15/1 276/14/1
f 277/16/1 278/17/1 279/12/1 280/11/1
f 281/17/1 282/18/1 283/14/1 284/12/1
f 285/18/1 286/19/1 287/15/1 288/14/1
f 289/16/1 290/17/1 291/12/1 292/11/1
f 293/17/1 294/18/1 295/14/1 296/12/1
f 297/18/1 298/19/1 299/15/1 300/14/1
f 301/16/1 302/17/1 303/12/1 304/11/1
f 305/17/1 306/18/1 307/14/1 308/12/1
f 309/18/1 310/19/1 311/15/1 312/14/1
f 313/16/1 314/17/1 315/12/1 316/11/1
f 317/17/1 318/18/1 319/14/1 320/12/1
f 321/18/1 322/19/1 323/15/1 324/14/1

