# Tiled2Unity generated file. Do not modify by hand.
# Wavefront file for 'Tressure_Room_Left_Enterence_Only_mesh_0008.obj'

# Vertices (Count = 140)
v -16 -12 0
v -18 -12 0
v -18 -10 0
v -16 -10 0
v -18 -12 0
v -20 -12 0
v -20 -10 0
v -18 -10 0
v -20 -12 0
v -22 -12 0
v -22 -10 0
v -20 -10 0
v -22 -12 0
v -24 -12 0
v -24 -10 0
v -22 -10 0
v -24 -12 0
v -26 -12 0
v -26 -10 0
v -24 -10 0
v -26 -12 0
v -28 -12 0
v -28 -10 0
v -26 -10 0
v -28 -12 0
v -30 -12 0
v -30 -10 0
v -28 -10 0
v -16 -14 0
v -18 -14 0
v -18 -12 0
v -16 -12 0
v -18 -14 0
v -20 -14 0
v -20 -12 0
v -18 -12 0
v -20 -14 0
v -22 -14 0
v -22 -12 0
v -20 -12 0
v -22 -14 0
v -24 -14 0
v -24 -12 0
v -22 -12 0
v -24 -14 0
v -26 -14 0
v -26 -12 0
v -24 -12 0
v -26 -14 0
v -28 -14 0
v -28 -12 0
v -26 -12 0
v -28 -14 0
v -30 -14 0
v -30 -12 0
v -28 -12 0
v -16 -16 0
v -18 -16 0
v -18 -14 0
v -16 -14 0
v -18 -16 0
v -20 -16 0
v -20 -14 0
v -18 -14 0
v -20 -16 0
v -22 -16 0
v -22 -14 0
v -20 -14 0
v -22 -16 0
v -24 -16 0
v -24 -14 0
v -22 -14 0
v -24 -16 0
v -26 -16 0
v -26 -14 0
v -24 -14 0
v -26 -16 0
v -28 -16 0
v -28 -14 0
v -26 -14 0
v -28 -16 0
v -30 -16 0
v -30 -14 0
v -28 -14 0
v -16 -18 0
v -18 -18 0
v -18 -16 0
v -16 -16 0
v -18 -18 0
v -20 -18 0
v -20 -16 0
v -18 -16 0
v -20 -18 0
v -22 -18 0
v -22 -16 0
v -20 -16 0
v -22 -18 0
v -24 -18 0
v -24 -16 0
v -22 -16 0
v -24 -18 0
v -26 -18 0
v -26 -16 0
v -24 -16 0
v -26 -18 0
v -28 -18 0
v -28 -16 0
v -26 -16 0
v -28 -18 0
v -30 -18 0
v -30 -16 0
v -28 -16 0
v -16 -20 0
v -18 -20 0
v -18 -18 0
v -16 -18 0
v -18 -20 0
v -20 -20 0
v -20 -18 0
v -18 -18 0
v -20 -20 0
v -22 -20 0
v -22 -18 0
v -20 -18 0
v -22 -20 0
v -24 -20 0
v -24 -18 0
v -22 -18 0
v -24 -20 0
v -26 -20 0
v -26 -18 0
v -24 -18 0
v -26 -20 0
v -28 -20 0
v -28 -18 0
v -26 -18 0
v -28 -20 0
v -30 -20 0
v -30 -18 0
v -28 -18 0

# Texture cooridinates (Count = 16)
vt 0 0.96875
vt 0.125 0.96875
vt 0.125 1
vt 0 1
vt 0.25 0.96875
vt 0.25 1
vt 0.375 0.96875
vt 0.375 1
vt 0 0.9375
vt 0.125 0.9375
vt 0.25 0.9375
vt 0.375 0.9375
vt 0 0.90625
vt 0.125 0.90625
vt 0.25 0.90625
vt 0.375 0.90625

# Normal
vn 0 0 -1

# Mesh description
g Tressure_Room_Left_Enterence_Only_mesh_0008

# Faces
f 1/1/1 2/2/1 3/3/1 4/4/1
f 5/2/1 6/5/1 7/6/1 8/3/1
f 9/2/1 10/5/1 11/6/1 12/3/1
f 13/2/1 14/5/1 15/6/1 16/3/1
f 17/2/1 18/5/1 19/6/1 20/3/1
f 21/2/1 22/5/1 23/6/1 24/3/1
f 25/5/1 26/7/1 27/8/1 28/6/1
f 29/9/1 30/10/1 31/2/1 32/1/1
f 33/10/1 34/11/1 35/5/1 36/2/1
f 37/10/1 38/11/1 39/5/1 40/2/1
f 41/10/1 42/11/1 43/5/1 44/2/1
f 45/10/1 46/11/1 47/5/1 48/2/1
f 49/10/1 50/11/1 51/5/1 52/2/1
f 53/11/1 54/12/1 55/7/1 56/5/1
f 57/9/1 58/10/1 59/2/1 60/1/1
f 61/10/1 62/11/1 63/5/1 64/2/1
f 65/10/1 66/11/1 67/5/1 68/2/1
f 69/10/1 70/11/1 71/5/1 72/2/1
f 73/10/1 74/11/1 75/5/1 76/2/1
f 77/10/1 78/11/1 79/5/1 80/2/1
f 81/11/1 82/12/1 83/7/1 84/5/1
f 85/9/1 86/10/1 87/2/1 88/1/1
f 89/10/1 90/11/1 91/5/1 92/2/1
f 93/10/1 94/11/1 95/5/1 96/2/1
f 97/10/1 98/11/1 99/5/1 100/2/1
f 101/10/1 102/11/1 103/5/1 104/2/1
f 105/10/1 106/11/1 107/5/1 108/2/1
f 109/11/1 110/12/1 111/7/1 112/5/1
f 113/13/1 114/14/1 115/10/1 116/9/1
f 117/14/1 118/15/1 119/11/1 120/10/1
f 121/14/1 122/15/1 123/11/1 124/10/1
f 125/14/1 126/15/1 127/11/1 128/10/1
f 129/14/1 130/15/1 131/11/1 132/10/1
f 133/14/1 134/15/1 135/11/1 136/10/1
f 137/15/1 138/16/1 139/12/1 140/11/1

