# Tiled2Unity generated file. Do not modify by hand.
# Wavefront file for 'Tressure_Room_Left_Enterence_Only_mesh_0015.obj'

# Vertices (Count = 12)
v -36 -14 0
v -38 -14 0
v -38 -12 0
v -36 -12 0
v -38 -14 0
v -40 -14 0
v -40 -12 0
v -38 -12 0
v -40 -14 0
v -42 -14 0
v -42 -12 0
v -40 -12 0

# Texture cooridinates (Count = 10)
vt 0 0.71875
vt 0.125 0.71875
vt 0.125 0.75
vt 0 0.75
vt 0.125 0.96875
vt 0.25 0.96875
vt 0.25 1
vt 0.125 1
vt 0.375 0.96875
vt 0.375 1

# Normal
vn 0 0 -1

# Mesh description
g Tressure_Room_Left_Enterence_Only_mesh_0015

# Faces
f 1/1/1 2/2/1 3/3/1 4/4/1
f 5/5/1 6/6/1 7/7/1 8/8/1
f 9/6/1 10/9/1 11/10/1 12/7/1

