# Tiled2Unity generated file. Do not modify by hand.
# Wavefront file for 'Tressure_Room_Left_Enterence_Only_mesh_0012.obj'

# Vertices (Count = 8)
v 0 -18 0
v -2 -18 0
v -2 -16 0
v 0 -16 0
v -2 -18 0
v -4 -18 0
v -4 -16 0
v -2 -16 0

# Texture cooridinates (Count = 6)
vt 0.75 0.90625
vt 0.875 0.90625
vt 0.875 0.9375
vt 0.75 0.9375
vt 1 0.90625
vt 1 0.9375

# Normal
vn 0 0 -1

# Mesh description
g Tressure_Room_Left_Enterence_Only_mesh_0012

# Faces
f 1/1/1 2/2/1 3/3/1 4/4/1
f 5/2/1 6/5/1 7/6/1 8/3/1

