# Tiled2Unity generated file. Do not modify by hand.
# Wavefront file for 'BeachRB_mesh_0004.obj'

# Vertices (Count = 32)
v -16 -6 0
v -18 -6 0
v -18 -4 0
v -16 -4 0
v -22 -6 0
v -24 -6 0
v -24 -4 0
v -22 -4 0
v -36 -6 0
v -38 -6 0
v -38 -4 0
v -36 -4 0
v -38 -6 0
v -40 -6 0
v -40 -4 0
v -38 -4 0
v -36 -8 0
v -38 -8 0
v -38 -6 0
v -36 -6 0
v -38 -8 0
v -40 -8 0
v -40 -6 0
v -38 -6 0
v -36 -10 0
v -38 -10 0
v -38 -8 0
v -36 -8 0
v -38 -10 0
v -40 -10 0
v -40 -8 0
v -38 -8 0

# Texture cooridinates (Count = 20)
vt 0.25 0.90625
vt 0.375 0.90625
vt 0.375 0.9375
vt 0.25 0.9375
vt 0 0.9375
vt 0.125 0.9375
vt 0.125 0.96875
vt 0 0.96875
vt 0.75 0.96875
vt 0.875 0.96875
vt 0.875 1
vt 0.75 1
vt 1 0.96875
vt 1 1
vt 0.75 0.9375
vt 0.875 0.9375
vt 1 0.9375
vt 0.75 0.90625
vt 0.875 0.90625
vt 1 0.90625

# Normal
vn 0 0 -1

# Mesh description
g BeachRB_mesh_0004

# Faces
f 1/1/1 2/2/1 3/3/1 4/4/1
f 5/5/1 6/6/1 7/7/1 8/8/1
f 9/9/1 10/10/1 11/11/1 12/12/1
f 13/10/1 14/13/1 15/14/1 16/11/1
f 17/15/1 18/16/1 19/10/1 20/9/1
f 21/16/1 22/17/1 23/13/1 24/10/1
f 25/18/1 26/19/1 27/16/1 28/15/1
f 29/19/1 30/20/1 31/17/1 32/16/1

