# Tiled2Unity generated file. Do not modify by hand.
# Wavefront file for 'T_mesh_0005.obj'

# Vertices (Count = 64)
v -18 -2 0
v -20 -2 0
v -20 0 0
v -18 0 0
v -22 -2 0
v -24 -2 0
v -24 0 0
v -22 0 0
v -18 -4 0
v -20 -4 0
v -20 -2 0
v -18 -2 0
v -22 -4 0
v -24 -4 0
v -24 -2 0
v -22 -2 0
v -18 -6 0
v -20 -6 0
v -20 -4 0
v -18 -4 0
v -22 -6 0
v -24 -6 0
v -24 -4 0
v -22 -4 0
v -6 -14 0
v -8 -14 0
v -8 -12 0
v -6 -12 0
v -34 -14 0
v -36 -14 0
v -36 -12 0
v -34 -12 0
v -6 -16 0
v -8 -16 0
v -8 -14 0
v -6 -14 0
v -34 -16 0
v -36 -16 0
v -36 -14 0
v -34 -14 0
v -6 -18 0
v -8 -18 0
v -8 -16 0
v -6 -16 0
v -34 -18 0
v -36 -18 0
v -36 -16 0
v -34 -16 0
v -6 -20 0
v -8 -20 0
v -8 -18 0
v -6 -18 0
v -18 -26 0
v -20 -26 0
v -20 -24 0
v -18 -24 0
v -20 -26 0
v -22 -26 0
v -22 -24 0
v -20 -24 0
v -22 -26 0
v -24 -26 0
v -24 -24 0
v -22 -24 0

# Texture cooridinates (Count = 10)
vt 0 0.84375
vt 0.125 0.84375
vt 0.125 0.875
vt 0 0.875
vt 0.25 0.84375
vt 0.375 0.84375
vt 0.375 0.875
vt 0.25 0.875
vt 0.25 0.90625
vt 0.125 0.90625

# Normal
vn 0 0 -1

# Mesh description
g T_mesh_0005

# Faces
f 1/1/1 2/2/1 3/3/1 4/4/1
f 5/5/1 6/6/1 7/7/1 8/8/1
f 9/1/1 10/2/1 11/3/1 12/4/1
f 13/5/1 14/6/1 15/7/1 16/8/1
f 17/1/1 18/2/1 19/3/1 20/4/1
f 21/5/1 22/6/1 23/7/1 24/8/1
f 25/1/1 26/2/1 27/3/1 28/4/1
f 29/5/1 30/6/1 31/7/1 32/8/1
f 33/1/1 34/2/1 35/3/1 36/4/1
f 37/5/1 38/6/1 39/7/1 40/8/1
f 41/1/1 42/2/1 43/3/1 44/4/1
f 45/5/1 46/6/1 47/7/1 48/8/1
f 49/1/1 50/2/1 51/3/1 52/4/1
f 53/3/1 54/8/1 55/9/1 56/10/1
f 57/3/1 58/8/1 59/9/1 60/10/1
f 61/3/1 62/8/1 63/9/1 64/10/1

