# Tiled2Unity generated file. Do not modify by hand.
# Wavefront file for 'BeachL_mesh_0007.obj'

# Vertices (Count = 16)
v -6 -12 0
v -8 -12 0
v -8 -10 0
v -6 -10 0
v -6 -14 0
v -8 -14 0
v -8 -12 0
v -6 -12 0
v -6 -16 0
v -8 -16 0
v -8 -14 0
v -6 -14 0
v -6 -18 0
v -8 -18 0
v -8 -16 0
v -6 -16 0

# Texture cooridinates (Count = 6)
vt 0.5 0.875
vt 0.625 0.875
vt 0.625 0.90625
vt 0.5 0.90625
vt 0.5 0.84375
vt 0.625 0.84375

# Normal
vn 0 0 -1

# Mesh description
g BeachL_mesh_0007

# Faces
f 1/1/1 2/2/1 3/3/1 4/4/1
f 5/5/1 6/6/1 7/2/1 8/1/1
f 9/1/1 10/2/1 11/3/1 12/4/1
f 13/5/1 14/6/1 15/2/1 16/1/1

