# Tiled2Unity generated file. Do not modify by hand.
# Wavefront file for 'BeachTL_mesh_0006.obj'

# Vertices (Count = 324)
v 0 -2 0
v -2 -2 0
v -2 0 0
v 0 0 0
v -4 -2 0
v -6 -2 0
v -6 0 0
v -4 0 0
v -6 -2 0
v -8 -2 0
v -8 0 0
v -6 0 0
v -12 -2 0
v -14 -2 0
v -14 0 0
v -12 0 0
v -14 -2 0
v -16 -2 0
v -16 0 0
v -14 0 0
v -16 -2 0
v -18 -2 0
v -18 0 0
v -16 0 0
v -22 -2 0
v -24 -2 0
v -24 0 0
v -22 0 0
v -24 -2 0
v -26 -2 0
v -26 0 0
v -24 0 0
v -26 -2 0
v -28 -2 0
v -28 0 0
v -26 0 0
v -32 -2 0
v -34 -2 0
v -34 0 0
v -32 0 0
v -34 -2 0
v -36 -2 0
v -36 0 0
v -34 0 0
v -36 -2 0
v -38 -2 0
v -38 0 0
v -36 0 0
v 0 -4 0
v -2 -4 0
v -2 -2 0
v 0 -2 0
v -4 -4 0
v -6 -4 0
v -6 -2 0
v -4 -2 0
v -6 -4 0
v -8 -4 0
v -8 -2 0
v -6 -2 0
v -12 -4 0
v -14 -4 0
v -14 -2 0
v -12 -2 0
v -14 -4 0
v -16 -4 0
v -16 -2 0
v -14 -2 0
v -16 -4 0
v -18 -4 0
v -18 -2 0
v -16 -2 0
v -22 -4 0
v -24 -4 0
v -24 -2 0
v -22 -2 0
v -24 -4 0
v -26 -4 0
v -26 -2 0
v -24 -2 0
v -26 -4 0
v -28 -4 0
v -28 -2 0
v -26 -2 0
v -32 -4 0
v -34 -4 0
v -34 -2 0
v -32 -2 0
v -34 -4 0
v -36 -4 0
v -36 -2 0
v -34 -2 0
v -36 -4 0
v -38 -4 0
v -38 -2 0
v -36 -2 0
v 0 -6 0
v -2 -6 0
v -2 -4 0
v 0 -4 0
v -2 -6 0
v -4 -6 0
v -4 -4 0
v -2 -4 0
v -12 -6 0
v -14 -6 0
v -14 -4 0
v -12 -4 0
v -14 -6 0
v -16 -6 0
v -16 -4 0
v -14 -4 0
v 0 -8 0
v -2 -8 0
v -2 -6 0
v 0 -6 0
v -2 -8 0
v -4 -8 0
v -4 -6 0
v -2 -6 0
v 0 -10 0
v -2 -10 0
v -2 -8 0
v 0 -8 0
v -2 -10 0
v -4 -10 0
v -4 -8 0
v -2 -8 0
v -4 -10 0
v -6 -10 0
v -6 -8 0
v -4 -8 0
v -38 -10 0
v -40 -10 0
v -40 -8 0
v -38 -8 0
v -40 -10 0
v -42 -10 0
v -42 -8 0
v -40 -8 0
v -4 -12 0
v -6 -12 0
v -6 -10 0
v -4 -10 0
v -38 -12 0
v -40 -12 0
v -40 -10 0
v -38 -10 0
v -40 -12 0
v -42 -12 0
v -42 -10 0
v -40 -10 0
v -38 -14 0
v -40 -14 0
v -40 -12 0
v -38 -12 0
v -40 -14 0
v -42 -14 0
v -42 -12 0
v -40 -12 0
v 0 -16 0
v -2 -16 0
v -2 -14 0
v 0 -14 0
v 0 -18 0
v -2 -18 0
v -2 -16 0
v 0 -16 0
v 0 -20 0
v -2 -20 0
v -2 -18 0
v 0 -18 0
v -38 -22 0
v -40 -22 0
v -40 -20 0
v -38 -20 0
v -40 -22 0
v -42 -22 0
v -42 -20 0
v -40 -20 0
v -4 -24 0
v -6 -24 0
v -6 -22 0
v -4 -22 0
v -38 -24 0
v -40 -24 0
v -40 -22 0
v -38 -22 0
v -40 -24 0
v -42 -24 0
v -42 -22 0
v -40 -22 0
v -4 -26 0
v -6 -26 0
v -6 -24 0
v -4 -24 0
v -12 -26 0
v -14 -26 0
v -14 -24 0
v -12 -24 0
v -14 -26 0
v -16 -26 0
v -16 -24 0
v -14 -24 0
v -16 -26 0
v -18 -26 0
v -18 -24 0
v -16 -24 0
v -18 -26 0
v -20 -26 0
v -20 -24 0
v -18 -24 0
v -20 -26 0
v -22 -26 0
v -22 -24 0
v -20 -24 0
v -22 -26 0
v -24 -26 0
v -24 -24 0
v -22 -24 0
v -30 -26 0
v -32 -26 0
v -32 -24 0
v -30 -24 0
v -32 -26 0
v -34 -26 0
v -34 -24 0
v -32 -24 0
v -38 -26 0
v -40 -26 0
v -40 -24 0
v -38 -24 0
v -40 -26 0
v -42 -26 0
v -42 -24 0
v -40 -24 0
v -4 -28 0
v -6 -28 0
v -6 -26 0
v -4 -26 0
v -6 -28 0
v -8 -28 0
v -8 -26 0
v -6 -26 0
v -12 -28 0
v -14 -28 0
v -14 -26 0
v -12 -26 0
v -14 -28 0
v -16 -28 0
v -16 -26 0
v -14 -26 0
v -22 -28 0
v -24 -28 0
v -24 -26 0
v -22 -26 0
v -24 -28 0
v -26 -28 0
v -26 -26 0
v -24 -26 0
v -28 -28 0
v -30 -28 0
v -30 -26 0
v -28 -26 0
v -30 -28 0
v -32 -28 0
v -32 -26 0
v -30 -26 0
v -32 -28 0
v -34 -28 0
v -34 -26 0
v -32 -26 0
v -38 -28 0
v -40 -28 0
v -40 -26 0
v -38 -26 0
v -40 -28 0
v -42 -28 0
v -42 -26 0
v -40 -26 0
v -4 -30 0
v -6 -30 0
v -6 -28 0
v -4 -28 0
v -6 -30 0
v -8 -30 0
v -8 -28 0
v -6 -28 0
v -12 -30 0
v -14 -30 0
v -14 -28 0
v -12 -28 0
v -14 -30 0
v -16 -30 0
v -16 -28 0
v -14 -28 0
v -22 -30 0
v -24 -30 0
v -24 -28 0
v -22 -28 0
v -24 -30 0
v -26 -30 0
v -26 -28 0
v -24 -28 0
v -28 -30 0
v -30 -30 0
v -30 -28 0
v -28 -28 0
v -30 -30 0
v -32 -30 0
v -32 -28 0
v -30 -28 0
v -32 -30 0
v -34 -30 0
v -34 -28 0
v -32 -28 0
v -38 -30 0
v -40 -30 0
v -40 -28 0
v -38 -28 0
v -40 -30 0
v -42 -30 0
v -42 -28 0
v -40 -28 0

# Texture cooridinates (Count = 25)
vt 0.75 0.78125
vt 0.875 0.78125
vt 0.875 0.8125
vt 0.75 0.8125
vt 0.75 0.9375
vt 0.875 0.9375
vt 0.875 0.96875
vt 0.75 0.96875
vt 1 0.9375
vt 1 0.96875
vt 0.875 1
vt 0.75 1
vt 1 1
vt 0.25 0.9375
vt 0.375 0.9375
vt 0.375 0.96875
vt 0.25 0.96875
vt 0.75 0.75
vt 0.875 0.75
vt 0.75 0.90625
vt 0.875 0.90625
vt 1 0.90625
vt 0.125 0.90625
vt 0.25 0.90625
vt 0.125 0.9375

# Normal
vn 0 0 -1

# Mesh description
g BeachTL_mesh_0006

# Faces
f 1/1/1 2/2/1 3/3/1 4/4/1
f 5/5/1 6/6/1 7/7/1 8/8/1
f 9/6/1 10/9/1 11/10/1 12/7/1
f 13/8/1 14/7/1 15/11/1 16/12/1
f 17/7/1 18/10/1 19/13/1 20/11/1
f 21/14/1 22/15/1 23/16/1 24/17/1
f 25/5/1 26/6/1 27/7/1 28/8/1
f 29/6/1 30/9/1 31/10/1 32/7/1
f 33/1/1 34/2/1 35/3/1 36/4/1
f 37/5/1 38/6/1 39/7/1 40/8/1
f 41/6/1 42/9/1 43/10/1 44/7/1
f 45/1/1 46/2/1 47/3/1 48/4/1
f 49/18/1 50/19/1 51/2/1 52/1/1
f 53/20/1 54/21/1 55/6/1 56/5/1
f 57/21/1 58/22/1 59/9/1 60/6/1
f 61/5/1 62/6/1 63/7/1 64/8/1
f 65/6/1 66/9/1 67/10/1 68/7/1
f 69/14/1 70/15/1 71/16/1 72/17/1
f 73/20/1 74/21/1 75/6/1 76/5/1
f 77/21/1 78/22/1 79/9/1 80/6/1
f 81/18/1 82/19/1 83/2/1 84/1/1
f 85/20/1 86/21/1 87/6/1 88/5/1
f 89/21/1 90/22/1 91/9/1 92/6/1
f 93/18/1 94/19/1 95/2/1 96/1/1
f 97/8/1 98/7/1 99/11/1 100/12/1
f 101/7/1 102/10/1 103/13/1 104/11/1
f 105/20/1 106/21/1 107/6/1 108/5/1
f 109/21/1 110/22/1 111/9/1 112/6/1
f 113/5/1 114/6/1 115/7/1 116/8/1
f 117/6/1 118/9/1 119/10/1 120/7/1
f 121/20/1 122/21/1 123/6/1 124/5/1
f 125/21/1 126/22/1 127/9/1 128/6/1
f 129/1/1 130/2/1 131/3/1 132/4/1
f 133/8/1 134/7/1 135/11/1 136/12/1
f 137/7/1 138/10/1 139/13/1 140/11/1
f 141/18/1 142/19/1 143/2/1 144/1/1
f 145/5/1 146/6/1 147/7/1 148/8/1
f 149/6/1 150/9/1 151/10/1 152/7/1
f 153/20/1 154/21/1 155/6/1 156/5/1
f 157/21/1 158/22/1 159/9/1 160/6/1
f 161/7/1 162/10/1 163/13/1 164/11/1
f 165/6/1 166/9/1 167/10/1 168/7/1
f 169/21/1 170/22/1 171/9/1 172/6/1
f 173/8/1 174/7/1 175/11/1 176/12/1
f 177/7/1 178/10/1 179/13/1 180/11/1
f 181/1/1 182/2/1 183/3/1 184/4/1
f 185/5/1 186/6/1 187/7/1 188/8/1
f 189/6/1 190/9/1 191/10/1 192/7/1
f 193/18/1 194/19/1 195/2/1 196/1/1
f 197/8/1 198/7/1 199/11/1 200/12/1
f 201/23/1 202/24/1 203/14/1 204/25/1
f 205/23/1 206/24/1 207/14/1 208/25/1
f 209/23/1 210/24/1 211/14/1 212/25/1
f 213/23/1 214/24/1 215/14/1 216/25/1
f 217/23/1 218/24/1 219/14/1 220/25/1
f 221/8/1 222/7/1 223/11/1 224/12/1
f 225/7/1 226/10/1 227/13/1 228/11/1
f 229/20/1 230/21/1 231/6/1 232/5/1
f 233/21/1 234/22/1 235/9/1 236/6/1
f 237/8/1 238/7/1 239/11/1 240/12/1
f 241/7/1 242/10/1 243/13/1 244/11/1
f 245/5/1 246/6/1 247/7/1 248/8/1
f 249/6/1 250/9/1 251/10/1 252/7/1
f 253/8/1 254/7/1 255/11/1 256/12/1
f 257/7/1 258/10/1 259/13/1 260/11/1
f 261/1/1 262/2/1 263/3/1 264/4/1
f 265/5/1 266/6/1 267/7/1 268/8/1
f 269/6/1 270/9/1 271/10/1 272/7/1
f 273/8/1 274/7/1 275/11/1 276/12/1
f 277/7/1 278/10/1 279/13/1 280/11/1
f 281/5/1 282/6/1 283/7/1 284/8/1
f 285/6/1 286/9/1 287/10/1 288/7/1
f 289/20/1 290/21/1 291/6/1 292/5/1
f 293/21/1 294/22/1 295/9/1 296/6/1
f 297/5/1 298/6/1 299/7/1 300/8/1
f 301/6/1 302/9/1 303/10/1 304/7/1
f 305/18/1 306/19/1 307/2/1 308/1/1
f 309/20/1 310/21/1 311/6/1 312/5/1
f 313/21/1 314/22/1 315/9/1 316/6/1
f 317/5/1 318/6/1 319/7/1 320/8/1
f 321/6/1 322/9/1 323/10/1 324/7/1

