# Tiled2Unity generated file. Do not modify by hand.
# Wavefront file for 'BeachTL_mesh_0005.obj'

# Vertices (Count = 352)
v -2 -2 0
v -4 -2 0
v -4 0 0
v -2 0 0
v -4 -2 0
v -6 -2 0
v -6 0 0
v -4 0 0
v -10 -2 0
v -12 -2 0
v -12 0 0
v -10 0 0
v -12 -2 0
v -14 -2 0
v -14 0 0
v -12 0 0
v -28 -2 0
v -30 -2 0
v -30 0 0
v -28 0 0
v -30 -2 0
v -32 -2 0
v -32 0 0
v -30 0 0
v -38 -2 0
v -40 -2 0
v -40 0 0
v -38 0 0
v -40 -2 0
v -42 -2 0
v -42 0 0
v -40 0 0
v -2 -4 0
v -4 -4 0
v -4 -2 0
v -2 -2 0
v -4 -4 0
v -6 -4 0
v -6 -2 0
v -4 -2 0
v -10 -4 0
v -12 -4 0
v -12 -2 0
v -10 -2 0
v -12 -4 0
v -14 -4 0
v -14 -2 0
v -12 -2 0
v -28 -4 0
v -30 -4 0
v -30 -2 0
v -28 -2 0
v -30 -4 0
v -32 -4 0
v -32 -2 0
v -30 -2 0
v -38 -4 0
v -40 -4 0
v -40 -2 0
v -38 -2 0
v -40 -4 0
v -42 -4 0
v -42 -2 0
v -40 -2 0
v -2 -6 0
v -4 -6 0
v -4 -4 0
v -2 -4 0
v -4 -6 0
v -6 -6 0
v -6 -4 0
v -4 -4 0
v -6 -6 0
v -8 -6 0
v -8 -4 0
v -6 -4 0
v -8 -6 0
v -10 -6 0
v -10 -4 0
v -8 -4 0
v -10 -6 0
v -12 -6 0
v -12 -4 0
v -10 -4 0
v -12 -6 0
v -14 -6 0
v -14 -4 0
v -12 -4 0
v -14 -6 0
v -16 -6 0
v -16 -4 0
v -14 -4 0
v -22 -6 0
v -24 -6 0
v -24 -4 0
v -22 -4 0
v -24 -6 0
v -26 -6 0
v -26 -4 0
v -24 -4 0
v -26 -6 0
v -28 -6 0
v -28 -4 0
v -26 -4 0
v -28 -6 0
v -30 -6 0
v -30 -4 0
v -28 -4 0
v -30 -6 0
v -32 -6 0
v -32 -4 0
v -30 -4 0
v -32 -6 0
v -34 -6 0
v -34 -4 0
v -32 -4 0
v -34 -6 0
v -36 -6 0
v -36 -4 0
v -34 -4 0
v -38 -6 0
v -40 -6 0
v -40 -4 0
v -38 -4 0
v -40 -6 0
v -42 -6 0
v -42 -4 0
v -40 -4 0
v -6 -8 0
v -8 -8 0
v -8 -6 0
v -6 -6 0
v -34 -8 0
v -36 -8 0
v -36 -6 0
v -34 -6 0
v 0 -10 0
v -2 -10 0
v -2 -8 0
v 0 -8 0
v -2 -10 0
v -4 -10 0
v -4 -8 0
v -2 -8 0
v -6 -10 0
v -8 -10 0
v -8 -8 0
v -6 -8 0
v -34 -10 0
v -36 -10 0
v -36 -8 0
v -34 -8 0
v 0 -12 0
v -2 -12 0
v -2 -10 0
v 0 -10 0
v -2 -12 0
v -4 -12 0
v -4 -10 0
v -2 -10 0
v -6 -12 0
v -8 -12 0
v -8 -10 0
v -6 -10 0
v -34 -12 0
v -36 -12 0
v -36 -10 0
v -34 -10 0
v 0 -14 0
v -2 -14 0
v -2 -12 0
v 0 -12 0
v -2 -14 0
v -4 -14 0
v -4 -12 0
v -2 -12 0
v -34 -14 0
v -36 -14 0
v -36 -12 0
v -34 -12 0
v -34 -16 0
v -36 -16 0
v -36 -14 0
v -34 -14 0
v -2 -18 0
v -4 -18 0
v -4 -16 0
v -2 -16 0
v -4 -18 0
v -6 -18 0
v -6 -16 0
v -4 -16 0
v -34 -18 0
v -36 -18 0
v -36 -16 0
v -34 -16 0
v -2 -20 0
v -4 -20 0
v -4 -18 0
v -2 -18 0
v -4 -20 0
v -6 -20 0
v -6 -18 0
v -4 -18 0
v -6 -20 0
v -8 -20 0
v -8 -18 0
v -6 -18 0
v -34 -20 0
v -36 -20 0
v -36 -18 0
v -34 -18 0
v -36 -20 0
v -38 -20 0
v -38 -18 0
v -36 -18 0
v -38 -20 0
v -40 -20 0
v -40 -18 0
v -38 -18 0
v -2 -22 0
v -4 -22 0
v -4 -20 0
v -2 -20 0
v -4 -22 0
v -6 -22 0
v -6 -20 0
v -4 -20 0
v -6 -22 0
v -8 -22 0
v -8 -20 0
v -6 -20 0
v -34 -22 0
v -36 -22 0
v -36 -20 0
v -34 -20 0
v -36 -22 0
v -38 -22 0
v -38 -20 0
v -36 -20 0
v -38 -22 0
v -40 -22 0
v -40 -20 0
v -38 -20 0
v -6 -24 0
v -8 -24 0
v -8 -22 0
v -6 -22 0
v -34 -24 0
v -36 -24 0
v -36 -22 0
v -34 -22 0
v -36 -24 0
v -38 -24 0
v -38 -22 0
v -36 -22 0
v -38 -24 0
v -40 -24 0
v -40 -22 0
v -38 -22 0
v 0 -26 0
v -2 -26 0
v -2 -24 0
v 0 -24 0
v -2 -26 0
v -4 -26 0
v -4 -24 0
v -2 -24 0
v -6 -26 0
v -8 -26 0
v -8 -24 0
v -6 -24 0
v -8 -26 0
v -10 -26 0
v -10 -24 0
v -8 -24 0
v -10 -26 0
v -12 -26 0
v -12 -24 0
v -10 -24 0
v -12 -26 0
v -14 -26 0
v -14 -24 0
v -12 -24 0
v -14 -26 0
v -16 -26 0
v -16 -24 0
v -14 -24 0
v -24 -26 0
v -26 -26 0
v -26 -24 0
v -24 -24 0
v -26 -26 0
v -28 -26 0
v -28 -24 0
v -26 -24 0
v -28 -26 0
v -30 -26 0
v -30 -24 0
v -28 -24 0
v -30 -26 0
v -32 -26 0
v -32 -24 0
v -30 -24 0
v -32 -26 0
v -34 -26 0
v -34 -24 0
v -32 -24 0
v -34 -26 0
v -36 -26 0
v -36 -24 0
v -34 -24 0
v -36 -26 0
v -38 -26 0
v -38 -24 0
v -36 -24 0
v -38 -26 0
v -40 -26 0
v -40 -24 0
v -38 -24 0
v 0 -28 0
v -2 -28 0
v -2 -26 0
v 0 -26 0
v -2 -28 0
v -4 -28 0
v -4 -26 0
v -2 -26 0
v -36 -28 0
v -38 -28 0
v -38 -26 0
v -36 -26 0
v -38 -28 0
v -40 -28 0
v -40 -26 0
v -38 -26 0
v 0 -30 0
v -2 -30 0
v -2 -28 0
v 0 -28 0
v -2 -30 0
v -4 -30 0
v -4 -28 0
v -2 -28 0
v -36 -30 0
v -38 -30 0
v -38 -28 0
v -36 -28 0
v -38 -30 0
v -40 -30 0
v -40 -28 0
v -38 -28 0

# Texture cooridinates (Count = 27)
vt 0.75 0.875
vt 0.875 0.875
vt 0.875 0.90625
vt 0.75 0.90625
vt 1 0.875
vt 1 0.90625
vt 0.75 0.84375
vt 0.875 0.84375
vt 1 0.84375
vt 0.75 0.8125
vt 0.875 0.8125
vt 1 0.8125
vt 0 0.96875
vt 0.125 0.96875
vt 0.125 1
vt 0 1
vt 0.25 0.96875
vt 0.25 1
vt 0.375 0.96875
vt 0.375 1
vt 0 0.9375
vt 0.125 0.9375
vt 0.25 0.9375
vt 0.375 0.9375
vt 0 0.90625
vt 0.125 0.90625
vt 0.25 0.90625

# Normal
vn 0 0 -1

# Mesh description
g BeachTL_mesh_0005

# Faces
f 1/1/1 2/2/1 3/3/1 4/4/1
f 5/2/1 6/5/1 7/6/1 8/3/1
f 9/7/1 10/8/1 11/2/1 12/1/1
f 13/8/1 14/9/1 15/5/1 16/2/1
f 17/7/1 18/8/1 19/2/1 20/1/1
f 21/8/1 22/9/1 23/5/1 24/2/1
f 25/1/1 26/2/1 27/3/1 28/4/1
f 29/2/1 30/5/1 31/6/1 32/3/1
f 33/7/1 34/8/1 35/2/1 36/1/1
f 37/8/1 38/9/1 39/5/1 40/2/1
f 41/10/1 42/11/1 43/8/1 44/7/1
f 45/11/1 46/12/1 47/9/1 48/8/1
f 49/10/1 50/11/1 51/8/1 52/7/1
f 53/11/1 54/12/1 55/9/1 56/8/1
f 57/7/1 58/8/1 59/2/1 60/1/1
f 61/8/1 62/9/1 63/5/1 64/2/1
f 65/10/1 66/11/1 67/8/1 68/7/1
f 69/11/1 70/12/1 71/9/1 72/8/1
f 73/13/1 74/14/1 75/15/1 76/16/1
f 77/14/1 78/17/1 79/18/1 80/15/1
f 81/14/1 82/17/1 83/18/1 84/15/1
f 85/14/1 86/17/1 87/18/1 88/15/1
f 89/14/1 90/17/1 91/18/1 92/15/1
f 93/14/1 94/17/1 95/18/1 96/15/1
f 97/14/1 98/17/1 99/18/1 100/15/1
f 101/14/1 102/17/1 103/18/1 104/15/1
f 105/14/1 106/17/1 107/18/1 108/15/1
f 109/14/1 110/17/1 111/18/1 112/15/1
f 113/14/1 114/17/1 115/18/1 116/15/1
f 117/17/1 118/19/1 119/20/1 120/18/1
f 121/10/1 122/11/1 123/8/1 124/7/1
f 125/11/1 126/12/1 127/9/1 128/8/1
f 129/21/1 130/22/1 131/14/1 132/13/1
f 133/23/1 134/24/1 135/19/1 136/17/1
f 137/1/1 138/2/1 139/3/1 140/4/1
f 141/2/1 142/5/1 143/6/1 144/3/1
f 145/21/1 146/22/1 147/14/1 148/13/1
f 149/23/1 150/24/1 151/19/1 152/17/1
f 153/7/1 154/8/1 155/2/1 156/1/1
f 157/8/1 158/9/1 159/5/1 160/2/1
f 161/21/1 162/22/1 163/14/1 164/13/1
f 165/23/1 166/24/1 167/19/1 168/17/1
f 169/10/1 170/11/1 171/8/1 172/7/1
f 173/11/1 174/12/1 175/9/1 176/8/1
f 177/23/1 178/24/1 179/19/1 180/17/1
f 181/23/1 182/24/1 183/19/1 184/17/1
f 185/1/1 186/2/1 187/3/1 188/4/1
f 189/2/1 190/5/1 191/6/1 192/3/1
f 193/23/1 194/24/1 195/19/1 196/17/1
f 197/7/1 198/8/1 199/2/1 200/1/1
f 201/8/1 202/9/1 203/5/1 204/2/1
f 205/21/1 206/22/1 207/14/1 208/13/1
f 209/23/1 210/24/1 211/19/1 212/17/1
f 213/1/1 214/2/1 215/3/1 216/4/1
f 217/2/1 218/5/1 219/6/1 220/3/1
f 221/10/1 222/11/1 223/8/1 224/7/1
f 225/11/1 226/12/1 227/9/1 228/8/1
f 229/21/1 230/22/1 231/14/1 232/13/1
f 233/23/1 234/24/1 235/19/1 236/17/1
f 237/7/1 238/8/1 239/2/1 240/1/1
f 241/8/1 242/9/1 243/5/1 244/2/1
f 245/21/1 246/22/1 247/14/1 248/13/1
f 249/23/1 250/24/1 251/19/1 252/17/1
f 253/10/1 254/11/1 255/8/1 256/7/1
f 257/11/1 258/12/1 259/9/1 260/8/1
f 261/1/1 262/2/1 263/3/1 264/4/1
f 265/2/1 266/5/1 267/6/1 268/3/1
f 269/25/1 270/26/1 271/22/1 272/21/1
f 273/26/1 274/27/1 275/23/1 276/22/1
f 277/26/1 278/27/1 279/23/1 280/22/1
f 281/26/1 282/27/1 283/23/1 284/22/1
f 285/26/1 286/27/1 287/23/1 288/22/1
f 289/26/1 290/27/1 291/23/1 292/22/1
f 293/26/1 294/27/1 295/23/1 296/22/1
f 297/26/1 298/27/1 299/23/1 300/22/1
f 301/26/1 302/27/1 303/23/1 304/22/1
f 305/26/1 306/27/1 307/23/1 308/22/1
f 309/26/1 310/27/1 311/23/1 312/22/1
f 313/1/1 314/2/1 315/3/1 316/4/1
f 317/2/1 318/5/1 319/6/1 320/3/1
f 321/7/1 322/8/1 323/2/1 324/1/1
f 325/8/1 326/9/1 327/5/1 328/2/1
f 329/7/1 330/8/1 331/2/1 332/1/1
f 333/8/1 334/9/1 335/5/1 336/2/1
f 337/10/1 338/11/1 339/8/1 340/7/1
f 341/11/1 342/12/1 343/9/1 344/8/1
f 345/10/1 346/11/1 347/8/1 348/7/1
f 349/11/1 350/12/1 351/9/1 352/8/1

