# Tiled2Unity generated file. Do not modify by hand.
# Wavefront file for 'BeachTL_mesh_0004.obj'

# Vertices (Count = 52)
v -22 -2 0
v -24 -2 0
v -24 0 0
v -22 0 0
v -22 -4 0
v -24 -4 0
v -24 -2 0
v -22 -2 0
v -16 -6 0
v -18 -6 0
v -18 -4 0
v -16 -4 0
v -22 -6 0
v -24 -6 0
v -24 -4 0
v -22 -4 0
v -36 -6 0
v -38 -6 0
v -38 -4 0
v -36 -4 0
v -38 -6 0
v -40 -6 0
v -40 -4 0
v -38 -4 0
v -36 -8 0
v -38 -8 0
v -38 -6 0
v -36 -6 0
v -38 -8 0
v -40 -8 0
v -40 -6 0
v -38 -6 0
v -36 -10 0
v -38 -10 0
v -38 -8 0
v -36 -8 0
v -38 -10 0
v -40 -10 0
v -40 -8 0
v -38 -8 0
v 0 -14 0
v -2 -14 0
v -2 -12 0
v 0 -12 0
v -2 -14 0
v -4 -14 0
v -4 -12 0
v -2 -12 0
v -4 -14 0
v -6 -14 0
v -6 -12 0
v -4 -12 0

# Texture cooridinates (Count = 22)
vt 0 0.9375
vt 0.125 0.9375
vt 0.125 0.96875
vt 0 0.96875
vt 0.25 0.90625
vt 0.375 0.90625
vt 0.375 0.9375
vt 0.25 0.9375
vt 0 0.90625
vt 0.125 0.90625
vt 0.75 0.96875
vt 0.875 0.96875
vt 0.875 1
vt 0.75 1
vt 1 0.96875
vt 1 1
vt 0.75 0.9375
vt 0.875 0.9375
vt 1 0.9375
vt 0.75 0.90625
vt 0.875 0.90625
vt 1 0.90625

# Normal
vn 0 0 -1

# Mesh description
g BeachTL_mesh_0004

# Faces
f 1/1/1 2/2/1 3/3/1 4/4/1
f 5/1/1 6/2/1 7/3/1 8/4/1
f 9/5/1 10/6/1 11/7/1 12/8/1
f 13/9/1 14/10/1 15/2/1 16/1/1
f 17/11/1 18/12/1 19/13/1 20/14/1
f 21/12/1 22/15/1 23/16/1 24/13/1
f 25/17/1 26/18/1 27/12/1 28/11/1
f 29/18/1 30/19/1 31/15/1 32/12/1
f 33/20/1 34/21/1 35/18/1 36/17/1
f 37/21/1 38/22/1 39/19/1 40/18/1
f 41/10/1 42/5/1 43/8/1 44/2/1
f 45/10/1 46/5/1 47/8/1 48/2/1
f 49/10/1 50/5/1 51/8/1 52/2/1

