# Tiled2Unity generated file. Do not modify by hand.
# Wavefront file for 'Tressure_Room_Left_Enterence_Only-(1)_mesh_0006.obj'

# Vertices (Count = 324)
v 0 -2 0
v -2 -2 0
v -2 0 0
v 0 0 0
v -2 -2 0
v -4 -2 0
v -4 0 0
v -2 0 0
v -4 -2 0
v -6 -2 0
v -6 0 0
v -4 0 0
v -6 -2 0
v -8 -2 0
v -8 0 0
v -6 0 0
v -8 -2 0
v -10 -2 0
v -10 0 0
v -8 0 0
v -10 -2 0
v -12 -2 0
v -12 0 0
v -10 0 0
v -12 -2 0
v -14 -2 0
v -14 0 0
v -12 0 0
v -14 -2 0
v -16 -2 0
v -16 0 0
v -14 0 0
v -16 -2 0
v -18 -2 0
v -18 0 0
v -16 0 0
v -18 -2 0
v -20 -2 0
v -20 0 0
v -18 0 0
v -20 -2 0
v -22 -2 0
v -22 0 0
v -20 0 0
v -22 -2 0
v -24 -2 0
v -24 0 0
v -22 0 0
v -24 -2 0
v -26 -2 0
v -26 0 0
v -24 0 0
v -26 -2 0
v -28 -2 0
v -28 0 0
v -26 0 0
v -28 -2 0
v -30 -2 0
v -30 0 0
v -28 0 0
v -30 -2 0
v -32 -2 0
v -32 0 0
v -30 0 0
v -32 -2 0
v -34 -2 0
v -34 0 0
v -32 0 0
v -34 -2 0
v -36 -2 0
v -36 0 0
v -34 0 0
v -36 -2 0
v -38 -2 0
v -38 0 0
v -36 0 0
v -38 -2 0
v -40 -2 0
v -40 0 0
v -38 0 0
v -40 -2 0
v -42 -2 0
v -42 0 0
v -40 0 0
v 0 -4 0
v -2 -4 0
v -2 -2 0
v 0 -2 0
v -2 -4 0
v -4 -4 0
v -4 -2 0
v -2 -2 0
v -4 -4 0
v -6 -4 0
v -6 -2 0
v -4 -2 0
v -6 -4 0
v -8 -4 0
v -8 -2 0
v -6 -2 0
v -8 -4 0
v -10 -4 0
v -10 -2 0
v -8 -2 0
v -10 -4 0
v -12 -4 0
v -12 -2 0
v -10 -2 0
v -12 -4 0
v -14 -4 0
v -14 -2 0
v -12 -2 0
v -14 -4 0
v -16 -4 0
v -16 -2 0
v -14 -2 0
v -16 -4 0
v -18 -4 0
v -18 -2 0
v -16 -2 0
v -18 -4 0
v -20 -4 0
v -20 -2 0
v -18 -2 0
v -20 -4 0
v -22 -4 0
v -22 -2 0
v -20 -2 0
v -22 -4 0
v -24 -4 0
v -24 -2 0
v -22 -2 0
v -24 -4 0
v -26 -4 0
v -26 -2 0
v -24 -2 0
v -26 -4 0
v -28 -4 0
v -28 -2 0
v -26 -2 0
v -28 -4 0
v -30 -4 0
v -30 -2 0
v -28 -2 0
v -30 -4 0
v -32 -4 0
v -32 -2 0
v -30 -2 0
v -32 -4 0
v -34 -4 0
v -34 -2 0
v -32 -2 0
v -34 -4 0
v -36 -4 0
v -36 -2 0
v -34 -2 0
v -36 -4 0
v -38 -4 0
v -38 -2 0
v -36 -2 0
v -38 -4 0
v -40 -4 0
v -40 -2 0
v -38 -2 0
v -40 -4 0
v -42 -4 0
v -42 -2 0
v -40 -2 0
v 0 -6 0
v -2 -6 0
v -2 -4 0
v 0 -4 0
v -2 -6 0
v -4 -6 0
v -4 -4 0
v -2 -4 0
v -4 -6 0
v -6 -6 0
v -6 -4 0
v -4 -4 0
v -6 -6 0
v -8 -6 0
v -8 -4 0
v -6 -4 0
v -8 -6 0
v -10 -6 0
v -10 -4 0
v -8 -4 0
v -10 -6 0
v -12 -6 0
v -12 -4 0
v -10 -4 0
v -12 -6 0
v -14 -6 0
v -14 -4 0
v -12 -4 0
v -14 -6 0
v -16 -6 0
v -16 -4 0
v -14 -4 0
v -16 -6 0
v -18 -6 0
v -18 -4 0
v -16 -4 0
v -18 -6 0
v -20 -6 0
v -20 -4 0
v -18 -4 0
v -20 -6 0
v -22 -6 0
v -22 -4 0
v -20 -4 0
v -22 -6 0
v -24 -6 0
v -24 -4 0
v -22 -4 0
v -24 -6 0
v -26 -6 0
v -26 -4 0
v -24 -4 0
v -26 -6 0
v -28 -6 0
v -28 -4 0
v -26 -4 0
v -28 -6 0
v -30 -6 0
v -30 -4 0
v -28 -4 0
v -30 -6 0
v -32 -6 0
v -32 -4 0
v -30 -4 0
v -32 -6 0
v -34 -6 0
v -34 -4 0
v -32 -4 0
v -34 -6 0
v -36 -6 0
v -36 -4 0
v -34 -4 0
v -36 -6 0
v -38 -6 0
v -38 -4 0
v -36 -4 0
v -38 -6 0
v -40 -6 0
v -40 -4 0
v -38 -4 0
v -40 -6 0
v -42 -6 0
v -42 -4 0
v -40 -4 0
v 0 -20 0
v -2 -20 0
v -2 -18 0
v 0 -18 0
v -2 -20 0
v -4 -20 0
v -4 -18 0
v -2 -18 0
v -4 -20 0
v -6 -20 0
v -6 -18 0
v -4 -18 0
v -36 -20 0
v -38 -20 0
v -38 -18 0
v -36 -18 0
v -38 -20 0
v -40 -20 0
v -40 -18 0
v -38 -18 0
v -40 -20 0
v -42 -20 0
v -42 -18 0
v -40 -18 0
v 0 -22 0
v -2 -22 0
v -2 -20 0
v 0 -20 0
v -2 -22 0
v -4 -22 0
v -4 -20 0
v -2 -20 0
v -4 -22 0
v -6 -22 0
v -6 -20 0
v -4 -20 0
v -36 -22 0
v -38 -22 0
v -38 -20 0
v -36 -20 0
v -38 -22 0
v -40 -22 0
v -40 -20 0
v -38 -20 0
v -40 -22 0
v -42 -22 0
v -42 -20 0
v -40 -20 0
v 0 -24 0
v -2 -24 0
v -2 -22 0
v 0 -22 0
v -2 -24 0
v -4 -24 0
v -4 -22 0
v -2 -22 0
v -4 -24 0
v -6 -24 0
v -6 -22 0
v -4 -22 0
v -36 -24 0
v -38 -24 0
v -38 -22 0
v -36 -22 0
v -38 -24 0
v -40 -24 0
v -40 -22 0
v -38 -22 0
v -40 -24 0
v -42 -24 0
v -42 -22 0
v -40 -22 0

# Texture cooridinates (Count = 16)
vt 0.375 0.96875
vt 0.5 0.96875
vt 0.5 1
vt 0.375 1
vt 0.625 0.96875
vt 0.625 1
vt 0.75 0.96875
vt 0.75 1
vt 0.375 0.9375
vt 0.5 0.9375
vt 0.625 0.9375
vt 0.75 0.9375
vt 0.375 0.90625
vt 0.5 0.90625
vt 0.625 0.90625
vt 0.75 0.90625

# Normal
vn 0 0 -1

# Mesh description
g Tressure_Room_Left_Enterence_Only-(1)_mesh_0006

# Faces
f 1/1/1 2/2/1 3/3/1 4/4/1
f 5/2/1 6/5/1 7/6/1 8/3/1
f 9/5/1 10/7/1 11/8/1 12/6/1
f 13/1/1 14/2/1 15/3/1 16/4/1
f 17/2/1 18/5/1 19/6/1 20/3/1
f 21/5/1 22/7/1 23/8/1 24/6/1
f 25/1/1 26/2/1 27/3/1 28/4/1
f 29/2/1 30/5/1 31/6/1 32/3/1
f 33/5/1 34/7/1 35/8/1 36/6/1
f 37/1/1 38/2/1 39/3/1 40/4/1
f 41/2/1 42/5/1 43/6/1 44/3/1
f 45/5/1 46/7/1 47/8/1 48/6/1
f 49/1/1 50/2/1 51/3/1 52/4/1
f 53/2/1 54/5/1 55/6/1 56/3/1
f 57/5/1 58/7/1 59/8/1 60/6/1
f 61/1/1 62/2/1 63/3/1 64/4/1
f 65/2/1 66/5/1 67/6/1 68/3/1
f 69/5/1 70/7/1 71/8/1 72/6/1
f 73/1/1 74/2/1 75/3/1 76/4/1
f 77/2/1 78/5/1 79/6/1 80/3/1
f 81/5/1 82/7/1 83/8/1 84/6/1
f 85/9/1 86/10/1 87/2/1 88/1/1
f 89/10/1 90/11/1 91/5/1 92/2/1
f 93/11/1 94/12/1 95/7/1 96/5/1
f 97/9/1 98/10/1 99/2/1 100/1/1
f 101/10/1 102/11/1 103/5/1 104/2/1
f 105/11/1 106/12/1 107/7/1 108/5/1
f 109/9/1 110/10/1 111/2/1 112/1/1
f 113/10/1 114/11/1 115/5/1 116/2/1
f 117/11/1 118/12/1 119/7/1 120/5/1
f 121/9/1 122/10/1 123/2/1 124/1/1
f 125/10/1 126/11/1 127/5/1 128/2/1
f 129/11/1 130/12/1 131/7/1 132/5/1
f 133/9/1 134/10/1 135/2/1 136/1/1
f 137/10/1 138/11/1 139/5/1 140/2/1
f 141/11/1 142/12/1 143/7/1 144/5/1
f 145/9/1 146/10/1 147/2/1 148/1/1
f 149/10/1 150/11/1 151/5/1 152/2/1
f 153/11/1 154/12/1 155/7/1 156/5/1
f 157/9/1 158/10/1 159/2/1 160/1/1
f 161/10/1 162/11/1 163/5/1 164/2/1
f 165/11/1 166/12/1 167/7/1 168/5/1
f 169/13/1 170/14/1 171/10/1 172/9/1
f 173/14/1 174/15/1 175/11/1 176/10/1
f 177/15/1 178/16/1 179/12/1 180/11/1
f 181/13/1 182/14/1 183/10/1 184/9/1
f 185/14/1 186/15/1 187/11/1 188/10/1
f 189/15/1 190/16/1 191/12/1 192/11/1
f 193/13/1 194/14/1 195/10/1 196/9/1
f 197/14/1 198/15/1 199/11/1 200/10/1
f 201/15/1 202/16/1 203/12/1 204/11/1
f 205/13/1 206/14/1 207/10/1 208/9/1
f 209/14/1 210/15/1 211/11/1 212/10/1
f 213/15/1 214/16/1 215/12/1 216/11/1
f 217/13/1 218/14/1 219/10/1 220/9/1
f 221/14/1 222/15/1 223/11/1 224/10/1
f 225/15/1 226/16/1 227/12/1 228/11/1
f 229/13/1 230/14/1 231/10/1 232/9/1
f 233/14/1 234/15/1 235/11/1 236/10/1
f 237/15/1 238/16/1 239/12/1 240/11/1
f 241/13/1 242/14/1 243/10/1 244/9/1
f 245/14/1 246/15/1 247/11/1 248/10/1
f 249/15/1 250/16/1 251/12/1 252/11/1
f 253/1/1 254/2/1 255/3/1 256/4/1
f 257/2/1 258/5/1 259/6/1 260/3/1
f 261/5/1 262/7/1 263/8/1 264/6/1
f 265/1/1 266/2/1 267/3/1 268/4/1
f 269/2/1 270/5/1 271/6/1 272/3/1
f 273/5/1 274/7/1 275/8/1 276/6/1
f 277/9/1 278/10/1 279/2/1 280/1/1
f 281/10/1 282/11/1 283/5/1 284/2/1
f 285/11/1 286/12/1 287/7/1 288/5/1
f 289/9/1 290/10/1 291/2/1 292/1/1
f 293/10/1 294/11/1 295/5/1 296/2/1
f 297/11/1 298/12/1 299/7/1 300/5/1
f 301/13/1 302/14/1 303/10/1 304/9/1
f 305/14/1 306/15/1 307/11/1 308/10/1
f 309/15/1 310/16/1 311/12/1 312/11/1
f 313/13/1 314/14/1 315/10/1 316/9/1
f 317/14/1 318/15/1 319/11/1 320/10/1
f 321/15/1 322/16/1 323/12/1 324/11/1

