# Tiled2Unity generated file. Do not modify by hand.
# Wavefront file for 'Tressure_Room_Left_Enterence_Only-(1)_mesh_0008.obj'

# Vertices (Count = 36)
v -36 -14 0
v -38 -14 0
v -38 -12 0
v -36 -12 0
v -38 -14 0
v -40 -14 0
v -40 -12 0
v -38 -12 0
v -40 -14 0
v -42 -14 0
v -42 -12 0
v -40 -12 0
v -36 -16 0
v -38 -16 0
v -38 -14 0
v -36 -14 0
v -38 -16 0
v -40 -16 0
v -40 -14 0
v -38 -14 0
v -40 -16 0
v -42 -16 0
v -42 -14 0
v -40 -14 0
v -36 -18 0
v -38 -18 0
v -38 -16 0
v -36 -16 0
v -38 -18 0
v -40 -18 0
v -40 -16 0
v -38 -16 0
v -40 -18 0
v -42 -18 0
v -42 -16 0
v -40 -16 0

# Texture cooridinates (Count = 16)
vt 0.375 0.96875
vt 0.5 0.96875
vt 0.5 1
vt 0.375 1
vt 0.625 0.96875
vt 0.625 1
vt 0.75 0.96875
vt 0.75 1
vt 0.375 0.9375
vt 0.5 0.9375
vt 0.625 0.9375
vt 0.75 0.9375
vt 0.375 0.90625
vt 0.5 0.90625
vt 0.625 0.90625
vt 0.75 0.90625

# Normal
vn 0 0 -1

# Mesh description
g Tressure_Room_Left_Enterence_Only-(1)_mesh_0008

# Faces
f 1/1/1 2/2/1 3/3/1 4/4/1
f 5/2/1 6/5/1 7/6/1 8/3/1
f 9/5/1 10/7/1 11/8/1 12/6/1
f 13/9/1 14/10/1 15/2/1 16/1/1
f 17/10/1 18/11/1 19/5/1 20/2/1
f 21/11/1 22/12/1 23/7/1 24/5/1
f 25/13/1 26/14/1 27/10/1 28/9/1
f 29/14/1 30/15/1 31/11/1 32/10/1
f 33/15/1 34/16/1 35/12/1 36/11/1

