# Tiled2Unity generated file. Do not modify by hand.
# Wavefront file for 'BeachLR_mesh_0004.obj'

# Vertices (Count = 24)
v -36 -6 0
v -38 -6 0
v -38 -4 0
v -36 -4 0
v -38 -6 0
v -40 -6 0
v -40 -4 0
v -38 -4 0
v -36 -8 0
v -38 -8 0
v -38 -6 0
v -36 -6 0
v -38 -8 0
v -40 -8 0
v -40 -6 0
v -38 -6 0
v -36 -10 0
v -38 -10 0
v -38 -8 0
v -36 -8 0
v -38 -10 0
v -40 -10 0
v -40 -8 0
v -38 -8 0

# Texture cooridinates (Count = 12)
vt 0.75 0.96875
vt 0.875 0.96875
vt 0.875 1
vt 0.75 1
vt 1 0.96875
vt 1 1
vt 0.75 0.9375
vt 0.875 0.9375
vt 1 0.9375
vt 0.75 0.90625
vt 0.875 0.90625
vt 1 0.90625

# Normal
vn 0 0 -1

# Mesh description
g BeachLR_mesh_0004

# Faces
f 1/1/1 2/2/1 3/3/1 4/4/1
f 5/2/1 6/5/1 7/6/1 8/3/1
f 9/7/1 10/8/1 11/2/1 12/1/1
f 13/8/1 14/9/1 15/5/1 16/2/1
f 17/10/1 18/11/1 19/8/1 20/7/1
f 21/11/1 22/12/1 23/9/1 24/8/1

