# Tiled2Unity generated file. Do not modify by hand.
# Wavefront file for 'BeachLR_mesh_0003.obj'

# Vertices (Count = 48)
v 0 -14 0
v -2 -14 0
v -2 -12 0
v 0 -12 0
v -2 -14 0
v -4 -14 0
v -4 -12 0
v -2 -12 0
v -4 -14 0
v -6 -14 0
v -6 -12 0
v -4 -12 0
v 0 -18 0
v -2 -18 0
v -2 -16 0
v 0 -16 0
v -2 -18 0
v -4 -18 0
v -4 -16 0
v -2 -16 0
v -4 -18 0
v -6 -18 0
v -6 -16 0
v -4 -16 0
v -16 -26 0
v -18 -26 0
v -18 -24 0
v -16 -24 0
v -22 -26 0
v -24 -26 0
v -24 -24 0
v -22 -24 0
v -16 -28 0
v -18 -28 0
v -18 -26 0
v -16 -26 0
v -22 -28 0
v -24 -28 0
v -24 -26 0
v -22 -26 0
v -16 -30 0
v -18 -30 0
v -18 -28 0
v -16 -28 0
v -22 -30 0
v -24 -30 0
v -24 -28 0
v -22 -28 0

# Texture cooridinates (Count = 14)
vt 0.125 0.90625
vt 0.25 0.90625
vt 0.25 0.9375
vt 0.125 0.9375
vt 0.125 0.96875
vt 0.25 0.96875
vt 0.25 1
vt 0.125 1
vt 0.375 0.96875
vt 0.375 1
vt 0 0.96875
vt 0 1
vt 0.375 0.9375
vt 0 0.9375

# Normal
vn 0 0 -1

# Mesh description
g BeachLR_mesh_0003

# Faces
f 1/1/1 2/2/1 3/3/1 4/4/1
f 5/1/1 6/2/1 7/3/1 8/4/1
f 9/1/1 10/2/1 11/3/1 12/4/1
f 13/5/1 14/6/1 15/7/1 16/8/1
f 17/5/1 18/6/1 19/7/1 20/8/1
f 21/5/1 22/6/1 23/7/1 24/8/1
f 25/6/1 26/9/1 27/10/1 28/7/1
f 29/11/1 30/5/1 31/8/1 32/12/1
f 33/3/1 34/13/1 35/9/1 36/6/1
f 37/14/1 38/4/1 39/5/1 40/11/1
f 41/3/1 42/13/1 43/9/1 44/6/1
f 45/14/1 46/4/1 47/5/1 48/11/1

