# Tiled2Unity generated file. Do not modify by hand.
# Wavefront file for 'BeachLR_mesh_0007.obj'

# Vertices (Count = 32)
v -6 -12 0
v -8 -12 0
v -8 -10 0
v -6 -10 0
v -34 -12 0
v -36 -12 0
v -36 -10 0
v -34 -10 0
v -6 -14 0
v -8 -14 0
v -8 -12 0
v -6 -12 0
v -34 -14 0
v -36 -14 0
v -36 -12 0
v -34 -12 0
v -6 -16 0
v -8 -16 0
v -8 -14 0
v -6 -14 0
v -34 -16 0
v -36 -16 0
v -36 -14 0
v -34 -14 0
v -6 -18 0
v -8 -18 0
v -8 -16 0
v -6 -16 0
v -34 -18 0
v -36 -18 0
v -36 -16 0
v -34 -16 0

# Texture cooridinates (Count = 6)
vt 0.5 0.875
vt 0.625 0.875
vt 0.625 0.90625
vt 0.5 0.90625
vt 0.5 0.84375
vt 0.625 0.84375

# Normal
vn 0 0 -1

# Mesh description
g BeachLR_mesh_0007

# Faces
f 1/1/1 2/2/1 3/3/1 4/4/1
f 5/1/1 6/2/1 7/3/1 8/4/1
f 9/5/1 10/6/1 11/2/1 12/1/1
f 13/5/1 14/6/1 15/2/1 16/1/1
f 17/1/1 18/2/1 19/3/1 20/4/1
f 21/1/1 22/2/1 23/3/1 24/4/1
f 25/5/1 26/6/1 27/2/1 28/1/1
f 29/5/1 30/6/1 31/2/1 32/1/1

