# Tiled2Unity generated file. Do not modify by hand.
# Wavefront file for 'RB_mesh_0003.obj'

# Vertices (Count = 72)
v -18 -2 0
v -20 -2 0
v -20 0 0
v -18 0 0
v -20 -2 0
v -22 -2 0
v -22 0 0
v -20 0 0
v -22 -2 0
v -24 -2 0
v -24 0 0
v -22 0 0
v -18 -4 0
v -20 -4 0
v -20 -2 0
v -18 -2 0
v -20 -4 0
v -22 -4 0
v -22 -2 0
v -20 -2 0
v -22 -4 0
v -24 -4 0
v -24 -2 0
v -22 -2 0
v -18 -6 0
v -20 -6 0
v -20 -4 0
v -18 -4 0
v -20 -6 0
v -22 -6 0
v -22 -4 0
v -20 -4 0
v -22 -6 0
v -24 -6 0
v -24 -4 0
v -22 -4 0
v 0 -14 0
v -2 -14 0
v -2 -12 0
v 0 -12 0
v -2 -14 0
v -4 -14 0
v -4 -12 0
v -2 -12 0
v -4 -14 0
v -6 -14 0
v -6 -12 0
v -4 -12 0
v 0 -16 0
v -2 -16 0
v -2 -14 0
v 0 -14 0
v -2 -16 0
v -4 -16 0
v -4 -14 0
v -2 -14 0
v -4 -16 0
v -6 -16 0
v -6 -14 0
v -4 -14 0
v 0 -18 0
v -2 -18 0
v -2 -16 0
v 0 -16 0
v -2 -18 0
v -4 -18 0
v -4 -16 0
v -2 -16 0
v -4 -18 0
v -6 -18 0
v -6 -16 0
v -4 -16 0

# Texture cooridinates (Count = 16)
vt 0.375 0.875
vt 0.5 0.875
vt 0.5 0.90625
vt 0.375 0.90625
vt 0.625 0.875
vt 0.625 0.90625
vt 0.75 0.875
vt 0.75 0.90625
vt 0.375 0.84375
vt 0.5 0.84375
vt 0.625 0.84375
vt 0.75 0.84375
vt 0.375 0.8125
vt 0.5 0.8125
vt 0.625 0.8125
vt 0.75 0.8125

# Normal
vn 0 0 -1

# Mesh description
g RB_mesh_0003

# Faces
f 1/1/1 2/2/1 3/3/1 4/4/1
f 5/2/1 6/5/1 7/6/1 8/3/1
f 9/5/1 10/7/1 11/8/1 12/6/1
f 13/9/1 14/10/1 15/2/1 16/1/1
f 17/10/1 18/11/1 19/5/1 20/2/1
f 21/11/1 22/12/1 23/7/1 24/5/1
f 25/13/1 26/14/1 27/10/1 28/9/1
f 29/14/1 30/15/1 31/11/1 32/10/1
f 33/15/1 34/16/1 35/12/1 36/11/1
f 37/1/1 38/2/1 39/3/1 40/4/1
f 41/2/1 42/5/1 43/6/1 44/3/1
f 45/5/1 46/7/1 47/8/1 48/6/1
f 49/9/1 50/10/1 51/2/1 52/1/1
f 53/10/1 54/11/1 55/5/1 56/2/1
f 57/11/1 58/12/1 59/7/1 60/5/1
f 61/13/1 62/14/1 63/10/1 64/9/1
f 65/14/1 66/15/1 67/11/1 68/10/1
f 69/15/1 70/16/1 71/12/1 72/11/1

