# Tiled2Unity generated file. Do not modify by hand.
# Wavefront file for 'RB_mesh_0004.obj'

# Vertices (Count = 108)
v -14 -6 0
v -16 -6 0
v -16 -4 0
v -14 -4 0
v -16 -6 0
v -18 -6 0
v -18 -4 0
v -16 -4 0
v -24 -6 0
v -26 -6 0
v -26 -4 0
v -24 -4 0
v -6 -8 0
v -8 -8 0
v -8 -6 0
v -6 -6 0
v -34 -8 0
v -36 -8 0
v -36 -6 0
v -34 -6 0
v -6 -10 0
v -8 -10 0
v -8 -8 0
v -6 -8 0
v -34 -10 0
v -36 -10 0
v -36 -8 0
v -34 -8 0
v -6 -12 0
v -8 -12 0
v -8 -10 0
v -6 -10 0
v -34 -12 0
v -36 -12 0
v -36 -10 0
v -34 -10 0
v -6 -20 0
v -8 -20 0
v -8 -18 0
v -6 -18 0
v -34 -20 0
v -36 -20 0
v -36 -18 0
v -34 -18 0
v -6 -22 0
v -8 -22 0
v -8 -20 0
v -6 -20 0
v -34 -22 0
v -36 -22 0
v -36 -20 0
v -34 -20 0
v -6 -24 0
v -8 -24 0
v -8 -22 0
v -6 -22 0
v -34 -24 0
v -36 -24 0
v -36 -22 0
v -34 -22 0
v -6 -26 0
v -8 -26 0
v -8 -24 0
v -6 -24 0
v -8 -26 0
v -10 -26 0
v -10 -24 0
v -8 -24 0
v -10 -26 0
v -12 -26 0
v -12 -24 0
v -10 -24 0
v -12 -26 0
v -14 -26 0
v -14 -24 0
v -12 -24 0
v -14 -26 0
v -16 -26 0
v -16 -24 0
v -14 -24 0
v -16 -26 0
v -18 -26 0
v -18 -24 0
v -16 -24 0
v -24 -26 0
v -26 -26 0
v -26 -24 0
v -24 -24 0
v -26 -26 0
v -28 -26 0
v -28 -24 0
v -26 -24 0
v -28 -26 0
v -30 -26 0
v -30 -24 0
v -28 -24 0
v -30 -26 0
v -32 -26 0
v -32 -24 0
v -30 -24 0
v -32 -26 0
v -34 -26 0
v -34 -24 0
v -32 -24 0
v -34 -26 0
v -36 -26 0
v -36 -24 0
v -34 -24 0

# Texture cooridinates (Count = 15)
vt 0.125 0.875
vt 0.25 0.875
vt 0.25 0.90625
vt 0.125 0.90625
vt 0 0.84375
vt 0.125 0.84375
vt 0 0.875
vt 0.25 0.84375
vt 0.375 0.84375
vt 0.375 0.875
vt 0 0.8125
vt 0.125 0.8125
vt 0.375 0.90625
vt 0.25 0.8125
vt 0.375 0.8125

# Normal
vn 0 0 -1

# Mesh description
g RB_mesh_0004

# Faces
f 1/1/1 2/2/1 3/3/1 4/4/1
f 5/1/1 6/2/1 7/3/1 8/4/1
f 9/1/1 10/2/1 11/3/1 12/4/1
f 13/5/1 14/6/1 15/1/1 16/7/1
f 17/8/1 18/9/1 19/10/1 20/2/1
f 21/5/1 22/6/1 23/1/1 24/7/1
f 25/8/1 26/9/1 27/10/1 28/2/1
f 29/5/1 30/6/1 31/1/1 32/7/1
f 33/8/1 34/9/1 35/10/1 36/2/1
f 37/5/1 38/6/1 39/1/1 40/7/1
f 41/8/1 42/9/1 43/10/1 44/2/1
f 45/5/1 46/6/1 47/1/1 48/7/1
f 49/8/1 50/9/1 51/10/1 52/2/1
f 53/5/1 54/6/1 55/1/1 56/7/1
f 57/8/1 58/9/1 59/10/1 60/2/1
f 61/11/1 62/12/1 63/6/1 64/5/1
f 65/1/1 66/2/1 67/3/1 68/4/1
f 69/1/1 70/2/1 71/3/1 72/4/1
f 73/1/1 74/2/1 75/3/1 76/4/1
f 77/1/1 78/2/1 79/3/1 80/4/1
f 81/2/1 82/10/1 83/13/1 84/3/1
f 85/12/1 86/14/1 87/8/1 88/6/1
f 89/12/1 90/14/1 91/8/1 92/6/1
f 93/12/1 94/14/1 95/8/1 96/6/1
f 97/12/1 98/14/1 99/8/1 100/6/1
f 101/12/1 102/14/1 103/8/1 104/6/1
f 105/14/1 106/15/1 107/9/1 108/8/1

