# Tiled2Unity generated file. Do not modify by hand.
# Wavefront file for 'TL_mesh_0004.obj'

# Vertices (Count = 648)
v 0 -2 0
v -2 -2 0
v -2 0 0
v 0 0 0
v -2 -2 0
v -4 -2 0
v -4 0 0
v -2 0 0
v -4 -2 0
v -6 -2 0
v -6 0 0
v -4 0 0
v -6 -2 0
v -8 -2 0
v -8 0 0
v -6 0 0
v -8 -2 0
v -10 -2 0
v -10 0 0
v -8 0 0
v -10 -2 0
v -12 -2 0
v -12 0 0
v -10 0 0
v -12 -2 0
v -14 -2 0
v -14 0 0
v -12 0 0
v -14 -2 0
v -16 -2 0
v -16 0 0
v -14 0 0
v -16 -2 0
v -18 -2 0
v -18 0 0
v -16 0 0
v -24 -2 0
v -26 -2 0
v -26 0 0
v -24 0 0
v -26 -2 0
v -28 -2 0
v -28 0 0
v -26 0 0
v -28 -2 0
v -30 -2 0
v -30 0 0
v -28 0 0
v -30 -2 0
v -32 -2 0
v -32 0 0
v -30 0 0
v -32 -2 0
v -34 -2 0
v -34 0 0
v -32 0 0
v -34 -2 0
v -36 -2 0
v -36 0 0
v -34 0 0
v -36 -2 0
v -38 -2 0
v -38 0 0
v -36 0 0
v -38 -2 0
v -40 -2 0
v -40 0 0
v -38 0 0
v -40 -2 0
v -42 -2 0
v -42 0 0
v -40 0 0
v 0 -4 0
v -2 -4 0
v -2 -2 0
v 0 -2 0
v -2 -4 0
v -4 -4 0
v -4 -2 0
v -2 -2 0
v -4 -4 0
v -6 -4 0
v -6 -2 0
v -4 -2 0
v -6 -4 0
v -8 -4 0
v -8 -2 0
v -6 -2 0
v -8 -4 0
v -10 -4 0
v -10 -2 0
v -8 -2 0
v -10 -4 0
v -12 -4 0
v -12 -2 0
v -10 -2 0
v -12 -4 0
v -14 -4 0
v -14 -2 0
v -12 -2 0
v -14 -4 0
v -16 -4 0
v -16 -2 0
v -14 -2 0
v -16 -4 0
v -18 -4 0
v -18 -2 0
v -16 -2 0
v -24 -4 0
v -26 -4 0
v -26 -2 0
v -24 -2 0
v -26 -4 0
v -28 -4 0
v -28 -2 0
v -26 -2 0
v -28 -4 0
v -30 -4 0
v -30 -2 0
v -28 -2 0
v -30 -4 0
v -32 -4 0
v -32 -2 0
v -30 -2 0
v -32 -4 0
v -34 -4 0
v -34 -2 0
v -32 -2 0
v -34 -4 0
v -36 -4 0
v -36 -2 0
v -34 -2 0
v -36 -4 0
v -38 -4 0
v -38 -2 0
v -36 -2 0
v -38 -4 0
v -40 -4 0
v -40 -2 0
v -38 -2 0
v -40 -4 0
v -42 -4 0
v -42 -2 0
v -40 -2 0
v 0 -6 0
v -2 -6 0
v -2 -4 0
v 0 -4 0
v -2 -6 0
v -4 -6 0
v -4 -4 0
v -2 -4 0
v -4 -6 0
v -6 -6 0
v -6 -4 0
v -4 -4 0
v -6 -6 0
v -8 -6 0
v -8 -4 0
v -6 -4 0
v -8 -6 0
v -10 -6 0
v -10 -4 0
v -8 -4 0
v -10 -6 0
v -12 -6 0
v -12 -4 0
v -10 -4 0
v -12 -6 0
v -14 -6 0
v -14 -4 0
v -12 -4 0
v -14 -6 0
v -16 -6 0
v -16 -4 0
v -14 -4 0
v -16 -6 0
v -18 -6 0
v -18 -4 0
v -16 -4 0
v -24 -6 0
v -26 -6 0
v -26 -4 0
v -24 -4 0
v -26 -6 0
v -28 -6 0
v -28 -4 0
v -26 -4 0
v -28 -6 0
v -30 -6 0
v -30 -4 0
v -28 -4 0
v -30 -6 0
v -32 -6 0
v -32 -4 0
v -30 -4 0
v -32 -6 0
v -34 -6 0
v -34 -4 0
v -32 -4 0
v -34 -6 0
v -36 -6 0
v -36 -4 0
v -34 -4 0
v -36 -6 0
v -38 -6 0
v -38 -4 0
v -36 -4 0
v -38 -6 0
v -40 -6 0
v -40 -4 0
v -38 -4 0
v -40 -6 0
v -42 -6 0
v -42 -4 0
v -40 -4 0
v 0 -8 0
v -2 -8 0
v -2 -6 0
v 0 -6 0
v -2 -8 0
v -4 -8 0
v -4 -6 0
v -2 -6 0
v -4 -8 0
v -6 -8 0
v -6 -6 0
v -4 -6 0
v -36 -8 0
v -38 -8 0
v -38 -6 0
v -36 -6 0
v -38 -8 0
v -40 -8 0
v -40 -6 0
v -38 -6 0
v -40 -8 0
v -42 -8 0
v -42 -6 0
v -40 -6 0
v 0 -10 0
v -2 -10 0
v -2 -8 0
v 0 -8 0
v -2 -10 0
v -4 -10 0
v -4 -8 0
v -2 -8 0
v -4 -10 0
v -6 -10 0
v -6 -8 0
v -4 -8 0
v -36 -10 0
v -38 -10 0
v -38 -8 0
v -36 -8 0
v -38 -10 0
v -40 -10 0
v -40 -8 0
v -38 -8 0
v -40 -10 0
v -42 -10 0
v -42 -8 0
v -40 -8 0
v 0 -12 0
v -2 -12 0
v -2 -10 0
v 0 -10 0
v -2 -12 0
v -4 -12 0
v -4 -10 0
v -2 -10 0
v -4 -12 0
v -6 -12 0
v -6 -10 0
v -4 -10 0
v -36 -12 0
v -38 -12 0
v -38 -10 0
v -36 -10 0
v -38 -12 0
v -40 -12 0
v -40 -10 0
v -38 -10 0
v -40 -12 0
v -42 -12 0
v -42 -10 0
v -40 -10 0
v -36 -14 0
v -38 -14 0
v -38 -12 0
v -36 -12 0
v -38 -14 0
v -40 -14 0
v -40 -12 0
v -38 -12 0
v -40 -14 0
v -42 -14 0
v -42 -12 0
v -40 -12 0
v -36 -16 0
v -38 -16 0
v -38 -14 0
v -36 -14 0
v -38 -16 0
v -40 -16 0
v -40 -14 0
v -38 -14 0
v -40 -16 0
v -42 -16 0
v -42 -14 0
v -40 -14 0
v -36 -18 0
v -38 -18 0
v -38 -16 0
v -36 -16 0
v -38 -18 0
v -40 -18 0
v -40 -16 0
v -38 -16 0
v -40 -18 0
v -42 -18 0
v -42 -16 0
v -40 -16 0
v 0 -20 0
v -2 -20 0
v -2 -18 0
v 0 -18 0
v -2 -20 0
v -4 -20 0
v -4 -18 0
v -2 -18 0
v -4 -20 0
v -6 -20 0
v -6 -18 0
v -4 -18 0
v -36 -20 0
v -38 -20 0
v -38 -18 0
v -36 -18 0
v -38 -20 0
v -40 -20 0
v -40 -18 0
v -38 -18 0
v -40 -20 0
v -42 -20 0
v -42 -18 0
v -40 -18 0
v 0 -22 0
v -2 -22 0
v -2 -20 0
v 0 -20 0
v -2 -22 0
v -4 -22 0
v -4 -20 0
v -2 -20 0
v -4 -22 0
v -6 -22 0
v -6 -20 0
v -4 -20 0
v -36 -22 0
v -38 -22 0
v -38 -20 0
v -36 -20 0
v -38 -22 0
v -40 -22 0
v -40 -20 0
v -38 -20 0
v -40 -22 0
v -42 -22 0
v -42 -20 0
v -40 -20 0
v 0 -24 0
v -2 -24 0
v -2 -22 0
v 0 -22 0
v -2 -24 0
v -4 -24 0
v -4 -22 0
v -2 -22 0
v -4 -24 0
v -6 -24 0
v -6 -22 0
v -4 -22 0
v -36 -24 0
v -38 -24 0
v -38 -22 0
v -36 -22 0
v -38 -24 0
v -40 -24 0
v -40 -22 0
v -38 -22 0
v -40 -24 0
v -42 -24 0
v -42 -22 0
v -40 -22 0
v 0 -26 0
v -2 -26 0
v -2 -24 0
v 0 -24 0
v -2 -26 0
v -4 -26 0
v -4 -24 0
v -2 -24 0
v -4 -26 0
v -6 -26 0
v -6 -24 0
v -4 -24 0
v -6 -26 0
v -8 -26 0
v -8 -24 0
v -6 -24 0
v -8 -26 0
v -10 -26 0
v -10 -24 0
v -8 -24 0
v -10 -26 0
v -12 -26 0
v -12 -24 0
v -10 -24 0
v -12 -26 0
v -14 -26 0
v -14 -24 0
v -12 -24 0
v -14 -26 0
v -16 -26 0
v -16 -24 0
v -14 -24 0
v -16 -26 0
v -18 -26 0
v -18 -24 0
v -16 -24 0
v -18 -26 0
v -20 -26 0
v -20 -24 0
v -18 -24 0
v -20 -26 0
v -22 -26 0
v -22 -24 0
v -20 -24 0
v -22 -26 0
v -24 -26 0
v -24 -24 0
v -22 -24 0
v -24 -26 0
v -26 -26 0
v -26 -24 0
v -24 -24 0
v -26 -26 0
v -28 -26 0
v -28 -24 0
v -26 -24 0
v -28 -26 0
v -30 -26 0
v -30 -24 0
v -28 -24 0
v -30 -26 0
v -32 -26 0
v -32 -24 0
v -30 -24 0
v -32 -26 0
v -34 -26 0
v -34 -24 0
v -32 -24 0
v -34 -26 0
v -36 -26 0
v -36 -24 0
v -34 -24 0
v -36 -26 0
v -38 -26 0
v -38 -24 0
v -36 -24 0
v -38 -26 0
v -40 -26 0
v -40 -24 0
v -38 -24 0
v -40 -26 0
v -42 -26 0
v -42 -24 0
v -40 -24 0
v 0 -28 0
v -2 -28 0
v -2 -26 0
v 0 -26 0
v -2 -28 0
v -4 -28 0
v -4 -26 0
v -2 -26 0
v -4 -28 0
v -6 -28 0
v -6 -26 0
v -4 -26 0
v -6 -28 0
v -8 -28 0
v -8 -26 0
v -6 -26 0
v -8 -28 0
v -10 -28 0
v -10 -26 0
v -8 -26 0
v -10 -28 0
v -12 -28 0
v -12 -26 0
v -10 -26 0
v -12 -28 0
v -14 -28 0
v -14 -26 0
v -12 -26 0
v -14 -28 0
v -16 -28 0
v -16 -26 0
v -14 -26 0
v -16 -28 0
v -18 -28 0
v -18 -26 0
v -16 -26 0
v -18 -28 0
v -20 -28 0
v -20 -26 0
v -18 -26 0
v -20 -28 0
v -22 -28 0
v -22 -26 0
v -20 -26 0
v -22 -28 0
v -24 -28 0
v -24 -26 0
v -22 -26 0
v -24 -28 0
v -26 -28 0
v -26 -26 0
v -24 -26 0
v -26 -28 0
v -28 -28 0
v -28 -26 0
v -26 -26 0
v -28 -28 0
v -30 -28 0
v -30 -26 0
v -28 -26 0
v -30 -28 0
v -32 -28 0
v -32 -26 0
v -30 -26 0
v -32 -28 0
v -34 -28 0
v -34 -26 0
v -32 -26 0
v -34 -28 0
v -36 -28 0
v -36 -26 0
v -34 -26 0
v -36 -28 0
v -38 -28 0
v -38 -26 0
v -36 -26 0
v -38 -28 0
v -40 -28 0
v -40 -26 0
v -38 -26 0
v -40 -28 0
v -42 -28 0
v -42 -26 0
v -40 -26 0
v 0 -30 0
v -2 -30 0
v -2 -28 0
v 0 -28 0
v -2 -30 0
v -4 -30 0
v -4 -28 0
v -2 -28 0
v -4 -30 0
v -6 -30 0
v -6 -28 0
v -4 -28 0
v -6 -30 0
v -8 -30 0
v -8 -28 0
v -6 -28 0
v -8 -30 0
v -10 -30 0
v -10 -28 0
v -8 -28 0
v -10 -30 0
v -12 -30 0
v -12 -28 0
v -10 -28 0
v -12 -30 0
v -14 -30 0
v -14 -28 0
v -12 -28 0
v -14 -30 0
v -16 -30 0
v -16 -28 0
v -14 -28 0
v -16 -30 0
v -18 -30 0
v -18 -28 0
v -16 -28 0
v -18 -30 0
v -20 -30 0
v -20 -28 0
v -18 -28 0
v -20 -30 0
v -22 -30 0
v -22 -28 0
v -20 -28 0
v -22 -30 0
v -24 -30 0
v -24 -28 0
v -22 -28 0
v -24 -30 0
v -26 -30 0
v -26 -28 0
v -24 -28 0
v -26 -30 0
v -28 -30 0
v -28 -28 0
v -26 -28 0
v -28 -30 0
v -30 -30 0
v -30 -28 0
v -28 -28 0
v -30 -30 0
v -32 -30 0
v -32 -28 0
v -30 -28 0
v -32 -30 0
v -34 -30 0
v -34 -28 0
v -32 -28 0
v -34 -30 0
v -36 -30 0
v -36 -28 0
v -34 -28 0
v -36 -30 0
v -38 -30 0
v -38 -28 0
v -36 -28 0
v -38 -30 0
v -40 -30 0
v -40 -28 0
v -38 -28 0
v -40 -30 0
v -42 -30 0
v -42 -28 0
v -40 -28 0

# Texture cooridinates (Count = 16)
vt 0.375 0.875
vt 0.5 0.875
vt 0.5 0.90625
vt 0.375 0.90625
vt 0.625 0.875
vt 0.625 0.90625
vt 0.75 0.875
vt 0.75 0.90625
vt 0.375 0.84375
vt 0.5 0.84375
vt 0.625 0.84375
vt 0.75 0.84375
vt 0.375 0.8125
vt 0.5 0.8125
vt 0.625 0.8125
vt 0.75 0.8125

# Normal
vn 0 0 -1

# Mesh description
g TL_mesh_0004

# Faces
f 1/1/1 2/2/1 3/3/1 4/4/1
f 5/2/1 6/5/1 7/6/1 8/3/1
f 9/5/1 10/7/1 11/8/1 12/6/1
f 13/1/1 14/2/1 15/3/1 16/4/1
f 17/2/1 18/5/1 19/6/1 20/3/1
f 21/5/1 22/7/1 23/8/1 24/6/1
f 25/1/1 26/2/1 27/3/1 28/4/1
f 29/2/1 30/5/1 31/6/1 32/3/1
f 33/5/1 34/7/1 35/8/1 36/6/1
f 37/1/1 38/2/1 39/3/1 40/4/1
f 41/2/1 42/5/1 43/6/1 44/3/1
f 45/5/1 46/7/1 47/8/1 48/6/1
f 49/1/1 50/2/1 51/3/1 52/4/1
f 53/2/1 54/5/1 55/6/1 56/3/1
f 57/5/1 58/7/1 59/8/1 60/6/1
f 61/1/1 62/2/1 63/3/1 64/4/1
f 65/2/1 66/5/1 67/6/1 68/3/1
f 69/5/1 70/7/1 71/8/1 72/6/1
f 73/9/1 74/10/1 75/2/1 76/1/1
f 77/10/1 78/11/1 79/5/1 80/2/1
f 81/11/1 82/12/1 83/7/1 84/5/1
f 85/9/1 86/10/1 87/2/1 88/1/1
f 89/10/1 90/11/1 91/5/1 92/2/1
f 93/11/1 94/12/1 95/7/1 96/5/1
f 97/9/1 98/10/1 99/2/1 100/1/1
f 101/10/1 102/11/1 103/5/1 104/2/1
f 105/11/1 106/12/1 107/7/1 108/5/1
f 109/9/1 110/10/1 111/2/1 112/1/1
f 113/10/1 114/11/1 115/5/1 116/2/1
f 117/11/1 118/12/1 119/7/1 120/5/1
f 121/9/1 122/10/1 123/2/1 124/1/1
f 125/10/1 126/11/1 127/5/1 128/2/1
f 129/11/1 130/12/1 131/7/1 132/5/1
f 133/9/1 134/10/1 135/2/1 136/1/1
f 137/10/1 138/11/1 139/5/1 140/2/1
f 141/11/1 142/12/1 143/7/1 144/5/1
f 145/13/1 146/14/1 147/10/1 148/9/1
f 149/14/1 150/15/1 151/11/1 152/10/1
f 153/15/1 154/16/1 155/12/1 156/11/1
f 157/13/1 158/14/1 159/10/1 160/9/1
f 161/14/1 162/15/1 163/11/1 164/10/1
f 165/15/1 166/16/1 167/12/1 168/11/1
f 169/13/1 170/14/1 171/10/1 172/9/1
f 173/14/1 174/15/1 175/11/1 176/10/1
f 177/15/1 178/16/1 179/12/1 180/11/1
f 181/13/1 182/14/1 183/10/1 184/9/1
f 185/14/1 186/15/1 187/11/1 188/10/1
f 189/15/1 190/16/1 191/12/1 192/11/1
f 193/13/1 194/14/1 195/10/1 196/9/1
f 197/14/1 198/15/1 199/11/1 200/10/1
f 201/15/1 202/16/1 203/12/1 204/11/1
f 205/13/1 206/14/1 207/10/1 208/9/1
f 209/14/1 210/15/1 211/11/1 212/10/1
f 213/15/1 214/16/1 215/12/1 216/11/1
f 217/1/1 218/2/1 219/3/1 220/4/1
f 221/2/1 222/5/1 223/6/1 224/3/1
f 225/5/1 226/7/1 227/8/1 228/6/1
f 229/1/1 230/2/1 231/3/1 232/4/1
f 233/2/1 234/5/1 235/6/1 236/3/1
f 237/5/1 238/7/1 239/8/1 240/6/1
f 241/9/1 242/10/1 243/2/1 244/1/1
f 245/10/1 246/11/1 247/5/1 248/2/1
f 249/11/1 250/12/1 251/7/1 252/5/1
f 253/9/1 254/10/1 255/2/1 256/1/1
f 257/10/1 258/11/1 259/5/1 260/2/1
f 261/11/1 262/12/1 263/7/1 264/5/1
f 265/13/1 266/14/1 267/10/1 268/9/1
f 269/14/1 270/15/1 271/11/1 272/10/1
f 273/15/1 274/16/1 275/12/1 276/11/1
f 277/13/1 278/14/1 279/10/1 280/9/1
f 281/14/1 282/15/1 283/11/1 284/10/1
f 285/15/1 286/16/1 287/12/1 288/11/1
f 289/1/1 290/2/1 291/3/1 292/4/1
f 293/2/1 294/5/1 295/6/1 296/3/1
f 297/5/1 298/7/1 299/8/1 300/6/1
f 301/9/1 302/10/1 303/2/1 304/1/1
f 305/10/1 306/11/1 307/5/1 308/2/1
f 309/11/1 310/12/1 311/7/1 312/5/1
f 313/13/1 314/14/1 315/10/1 316/9/1
f 317/14/1 318/15/1 319/11/1 320/10/1
f 321/15/1 322/16/1 323/12/1 324/11/1
f 325/1/1 326/2/1 327/3/1 328/4/1
f 329/2/1 330/5/1 331/6/1 332/3/1
f 333/5/1 334/7/1 335/8/1 336/6/1
f 337/1/1 338/2/1 339/3/1 340/4/1
f 341/2/1 342/5/1 343/6/1 344/3/1
f 345/5/1 346/7/1 347/8/1 348/6/1
f 349/9/1 350/10/1 351/2/1 352/1/1
f 353/10/1 354/11/1 355/5/1 356/2/1
f 357/11/1 358/12/1 359/7/1 360/5/1
f 361/9/1 362/10/1 363/2/1 364/1/1
f 365/10/1 366/11/1 367/5/1 368/2/1
f 369/11/1 370/12/1 371/7/1 372/5/1
f 373/13/1 374/14/1 375/10/1 376/9/1
f 377/14/1 378/15/1 379/11/1 380/10/1
f 381/15/1 382/16/1 383/12/1 384/11/1
f 385/13/1 386/14/1 387/10/1 388/9/1
f 389/14/1 390/15/1 391/11/1 392/10/1
f 393/15/1 394/16/1 395/12/1 396/11/1
f 397/1/1 398/2/1 399/3/1 400/4/1
f 401/2/1 402/5/1 403/6/1 404/3/1
f 405/5/1 406/7/1 407/8/1 408/6/1
f 409/1/1 410/2/1 411/3/1 412/4/1
f 413/2/1 414/5/1 415/6/1 416/3/1
f 417/5/1 418/7/1 419/8/1 420/6/1
f 421/1/1 422/2/1 423/3/1 424/4/1
f 425/2/1 426/5/1 427/6/1 428/3/1
f 429/5/1 430/7/1 431/8/1 432/6/1
f 433/1/1 434/2/1 435/3/1 436/4/1
f 437/2/1 438/5/1 439/6/1 440/3/1
f 441/5/1 442/7/1 443/8/1 444/6/1
f 445/1/1 446/2/1 447/3/1 448/4/1
f 449/2/1 450/5/1 451/6/1 452/3/1
f 453/5/1 454/7/1 455/8/1 456/6/1
f 457/1/1 458/2/1 459/3/1 460/4/1
f 461/2/1 462/5/1 463/6/1 464/3/1
f 465/5/1 466/7/1 467/8/1 468/6/1
f 469/1/1 470/2/1 471/3/1 472/4/1
f 473/2/1 474/5/1 475/6/1 476/3/1
f 477/5/1 478/7/1 479/8/1 480/6/1
f 481/9/1 482/10/1 483/2/1 484/1/1
f 485/10/1 486/11/1 487/5/1 488/2/1
f 489/11/1 490/12/1 491/7/1 492/5/1
f 493/9/1 494/10/1 495/2/1 496/1/1
f 497/10/1 498/11/1 499/5/1 500/2/1
f 501/11/1 502/12/1 503/7/1 504/5/1
f 505/9/1 506/10/1 507/2/1 508/1/1
f 509/10/1 510/11/1 511/5/1 512/2/1
f 513/11/1 514/12/1 515/7/1 516/5/1
f 517/9/1 518/10/1 519/2/1 520/1/1
f 521/10/1 522/11/1 523/5/1 524/2/1
f 525/11/1 526/12/1 527/7/1 528/5/1
f 529/9/1 530/10/1 531/2/1 532/1/1
f 533/10/1 534/11/1 535/5/1 536/2/1
f 537/11/1 538/12/1 539/7/1 540/5/1
f 541/9/1 542/10/1 543/2/1 544/1/1
f 545/10/1 546/11/1 547/5/1 548/2/1
f 549/11/1 550/12/1 551/7/1 552/5/1
f 553/9/1 554/10/1 555/2/1 556/1/1
f 557/10/1 558/11/1 559/5/1 560/2/1
f 561/11/1 562/12/1 563/7/1 564/5/1
f 565/13/1 566/14/1 567/10/1 568/9/1
f 569/14/1 570/15/1 571/11/1 572/10/1
f 573/15/1 574/16/1 575/12/1 576/11/1
f 577/13/1 578/14/1 579/10/1 580/9/1
f 581/14/1 582/15/1 583/11/1 584/10/1
f 585/15/1 586/16/1 587/12/1 588/11/1
f 589/13/1 590/14/1 591/10/1 592/9/1
f 593/14/1 594/15/1 595/11/1 596/10/1
f 597/15/1 598/16/1 599/12/1 600/11/1
f 601/13/1 602/14/1 603/10/1 604/9/1
f 605/14/1 606/15/1 607/11/1 608/10/1
f 609/15/1 610/16/1 611/12/1 612/11/1
f 613/13/1 614/14/1 615/10/1 616/9/1
f 617/14/1 618/15/1 619/11/1 620/10/1
f 621/15/1 622/16/1 623/12/1 624/11/1
f 625/13/1 626/14/1 627/10/1 628/9/1
f 629/14/1 630/15/1 631/11/1 632/10/1
f 633/15/1 634/16/1 635/12/1 636/11/1
f 637/13/1 638/14/1 639/10/1 640/9/1
f 641/14/1 642/15/1 643/11/1 644/10/1
f 645/15/1 646/16/1 647/12/1 648/11/1

