# Tiled2Unity generated file. Do not modify by hand.
# Wavefront file for 'TL_mesh_0005.obj'

# Vertices (Count = 48)
v -18 -2 0
v -20 -2 0
v -20 0 0
v -18 0 0
v -22 -2 0
v -24 -2 0
v -24 0 0
v -22 0 0
v -18 -4 0
v -20 -4 0
v -20 -2 0
v -18 -2 0
v -22 -4 0
v -24 -4 0
v -24 -2 0
v -22 -2 0
v -18 -6 0
v -20 -6 0
v -20 -4 0
v -18 -4 0
v -22 -6 0
v -24 -6 0
v -24 -4 0
v -22 -4 0
v 0 -14 0
v -2 -14 0
v -2 -12 0
v 0 -12 0
v -2 -14 0
v -4 -14 0
v -4 -12 0
v -2 -12 0
v -4 -14 0
v -6 -14 0
v -6 -12 0
v -4 -12 0
v 0 -18 0
v -2 -18 0
v -2 -16 0
v 0 -16 0
v -2 -18 0
v -4 -18 0
v -4 -16 0
v -2 -16 0
v -4 -18 0
v -6 -18 0
v -6 -16 0
v -4 -16 0

# Texture cooridinates (Count = 10)
vt 0 0.84375
vt 0.125 0.84375
vt 0.125 0.875
vt 0 0.875
vt 0.25 0.84375
vt 0.375 0.84375
vt 0.375 0.875
vt 0.25 0.875
vt 0.125 0.8125
vt 0.25 0.8125

# Normal
vn 0 0 -1

# Mesh description
g TL_mesh_0005

# Faces
f 1/1/1 2/2/1 3/3/1 4/4/1
f 5/5/1 6/6/1 7/7/1 8/8/1
f 9/1/1 10/2/1 11/3/1 12/4/1
f 13/5/1 14/6/1 15/7/1 16/8/1
f 17/1/1 18/2/1 19/3/1 20/4/1
f 21/5/1 22/6/1 23/7/1 24/8/1
f 25/9/1 26/10/1 27/5/1 28/2/1
f 29/9/1 30/10/1 31/5/1 32/2/1
f 33/9/1 34/10/1 35/5/1 36/2/1
f 37/9/1 38/10/1 39/5/1 40/2/1
f 41/9/1 42/10/1 43/5/1 44/2/1
f 45/9/1 46/10/1 47/5/1 48/2/1

