# Tiled2Unity generated file. Do not modify by hand.
# Wavefront file for 'Tressure_Room_Right_Enterence_Only_mesh_0011.obj'

# Vertices (Count = 100)
v -16 -12 0
v -18 -12 0
v -18 -10 0
v -16 -10 0
v -18 -12 0
v -20 -12 0
v -20 -10 0
v -18 -10 0
v -20 -12 0
v -22 -12 0
v -22 -10 0
v -20 -10 0
v -22 -12 0
v -24 -12 0
v -24 -10 0
v -22 -10 0
v -24 -12 0
v -26 -12 0
v -26 -10 0
v -24 -10 0
v -16 -14 0
v -18 -14 0
v -18 -12 0
v -16 -12 0
v -18 -14 0
v -20 -14 0
v -20 -12 0
v -18 -12 0
v -20 -14 0
v -22 -14 0
v -22 -12 0
v -20 -12 0
v -22 -14 0
v -24 -14 0
v -24 -12 0
v -22 -12 0
v -24 -14 0
v -26 -14 0
v -26 -12 0
v -24 -12 0
v -16 -16 0
v -18 -16 0
v -18 -14 0
v -16 -14 0
v -18 -16 0
v -20 -16 0
v -20 -14 0
v -18 -14 0
v -20 -16 0
v -22 -16 0
v -22 -14 0
v -20 -14 0
v -22 -16 0
v -24 -16 0
v -24 -14 0
v -22 -14 0
v -24 -16 0
v -26 -16 0
v -26 -14 0
v -24 -14 0
v -16 -18 0
v -18 -18 0
v -18 -16 0
v -16 -16 0
v -18 -18 0
v -20 -18 0
v -20 -16 0
v -18 -16 0
v -20 -18 0
v -22 -18 0
v -22 -16 0
v -20 -16 0
v -22 -18 0
v -24 -18 0
v -24 -16 0
v -22 -16 0
v -24 -18 0
v -26 -18 0
v -26 -16 0
v -24 -16 0
v -16 -20 0
v -18 -20 0
v -18 -18 0
v -16 -18 0
v -18 -20 0
v -20 -20 0
v -20 -18 0
v -18 -18 0
v -20 -20 0
v -22 -20 0
v -22 -18 0
v -20 -18 0
v -22 -20 0
v -24 -20 0
v -24 -18 0
v -22 -18 0
v -24 -20 0
v -26 -20 0
v -26 -18 0
v -24 -18 0

# Texture cooridinates (Count = 16)
vt 0 0.96875
vt 0.125 0.96875
vt 0.125 1
vt 0 1
vt 0.25 0.96875
vt 0.25 1
vt 0.375 0.96875
vt 0.375 1
vt 0 0.9375
vt 0.125 0.9375
vt 0.25 0.9375
vt 0.375 0.9375
vt 0 0.90625
vt 0.125 0.90625
vt 0.25 0.90625
vt 0.375 0.90625

# Normal
vn 0 0 -1

# Mesh description
g Tressure_Room_Right_Enterence_Only_mesh_0011

# Faces
f 1/1/1 2/2/1 3/3/1 4/4/1
f 5/2/1 6/5/1 7/6/1 8/3/1
f 9/2/1 10/5/1 11/6/1 12/3/1
f 13/2/1 14/5/1 15/6/1 16/3/1
f 17/5/1 18/7/1 19/8/1 20/6/1
f 21/9/1 22/10/1 23/2/1 24/1/1
f 25/10/1 26/11/1 27/5/1 28/2/1
f 29/10/1 30/11/1 31/5/1 32/2/1
f 33/10/1 34/11/1 35/5/1 36/2/1
f 37/11/1 38/12/1 39/7/1 40/5/1
f 41/9/1 42/10/1 43/2/1 44/1/1
f 45/10/1 46/11/1 47/5/1 48/2/1
f 49/10/1 50/11/1 51/5/1 52/2/1
f 53/10/1 54/11/1 55/5/1 56/2/1
f 57/11/1 58/12/1 59/7/1 60/5/1
f 61/9/1 62/10/1 63/2/1 64/1/1
f 65/10/1 66/11/1 67/5/1 68/2/1
f 69/10/1 70/11/1 71/5/1 72/2/1
f 73/10/1 74/11/1 75/5/1 76/2/1
f 77/11/1 78/12/1 79/7/1 80/5/1
f 81/13/1 82/14/1 83/10/1 84/9/1
f 85/14/1 86/15/1 87/11/1 88/10/1
f 89/14/1 90/15/1 91/11/1 92/10/1
f 93/14/1 94/15/1 95/11/1 96/10/1
f 97/15/1 98/16/1 99/12/1 100/11/1

