# Tiled2Unity generated file. Do not modify by hand.
# Wavefront file for 'Tressure_Room_Right_Enterence_Only_mesh_0012.obj'

# Vertices (Count = 16)
v -22 -16 0
v -24 -16 0
v -24 -14 0
v -22 -14 0
v -22 -18 0
v -24 -18 0
v -24 -16 0
v -22 -16 0
v -22 -20 0
v -24 -20 0
v -24 -18 0
v -22 -18 0
v -22 -22 0
v -24 -22 0
v -24 -20 0
v -22 -20 0

# Texture cooridinates (Count = 10)
vt 0.375 0.375
vt 0.5 0.375
vt 0.5 0.40625
vt 0.375 0.40625
vt 0.375 0.34375
vt 0.5 0.34375
vt 0.375 0.3125
vt 0.5 0.3125
vt 0.375 0.28125
vt 0.5 0.28125

# Normal
vn 0 0 -1

# Mesh description
g Tressure_Room_Right_Enterence_Only_mesh_0012

# Faces
f 1/1/1 2/2/1 3/3/1 4/4/1
f 5/5/1 6/6/1 7/2/1 8/1/1
f 9/7/1 10/8/1 11/6/1 12/5/1
f 13/9/1 14/10/1 15/8/1 16/7/1

