# Tiled2Unity generated file. Do not modify by hand.
# Wavefront file for 'TB_mesh_0006.obj'

# Vertices (Count = 16)
v -16 -22 0
v -18 -22 0
v -18 -20 0
v -16 -20 0
v -24 -22 0
v -26 -22 0
v -26 -20 0
v -24 -20 0
v -16 -24 0
v -18 -24 0
v -18 -22 0
v -16 -22 0
v -24 -24 0
v -26 -24 0
v -26 -22 0
v -24 -22 0

# Texture cooridinates (Count = 6)
vt 0.375 0.875
vt 0.5 0.875
vt 0.5 0.90625
vt 0.375 0.90625
vt 0.375 0.84375
vt 0.5 0.84375

# Normal
vn 0 0 -1

# Mesh description
g TB_mesh_0006

# Faces
f 1/1/1 2/2/1 3/3/1 4/4/1
f 5/1/1 6/2/1 7/3/1 8/4/1
f 9/5/1 10/6/1 11/2/1 12/1/1
f 13/5/1 14/6/1 15/2/1 16/1/1

