# Tiled2Unity generated file. Do not modify by hand.
# Wavefront file for 'BeachTB_mesh_0006.obj'

# Vertices (Count = 336)
v 0 -2 0
v -2 -2 0
v -2 0 0
v 0 0 0
v -4 -2 0
v -6 -2 0
v -6 0 0
v -4 0 0
v -6 -2 0
v -8 -2 0
v -8 0 0
v -6 0 0
v -12 -2 0
v -14 -2 0
v -14 0 0
v -12 0 0
v -14 -2 0
v -16 -2 0
v -16 0 0
v -14 0 0
v -22 -2 0
v -24 -2 0
v -24 0 0
v -22 0 0
v -24 -2 0
v -26 -2 0
v -26 0 0
v -24 0 0
v -26 -2 0
v -28 -2 0
v -28 0 0
v -26 0 0
v -32 -2 0
v -34 -2 0
v -34 0 0
v -32 0 0
v -34 -2 0
v -36 -2 0
v -36 0 0
v -34 0 0
v -36 -2 0
v -38 -2 0
v -38 0 0
v -36 0 0
v 0 -4 0
v -2 -4 0
v -2 -2 0
v 0 -2 0
v -4 -4 0
v -6 -4 0
v -6 -2 0
v -4 -2 0
v -6 -4 0
v -8 -4 0
v -8 -2 0
v -6 -2 0
v -12 -4 0
v -14 -4 0
v -14 -2 0
v -12 -2 0
v -14 -4 0
v -16 -4 0
v -16 -2 0
v -14 -2 0
v -22 -4 0
v -24 -4 0
v -24 -2 0
v -22 -2 0
v -24 -4 0
v -26 -4 0
v -26 -2 0
v -24 -2 0
v -26 -4 0
v -28 -4 0
v -28 -2 0
v -26 -2 0
v -32 -4 0
v -34 -4 0
v -34 -2 0
v -32 -2 0
v -34 -4 0
v -36 -4 0
v -36 -2 0
v -34 -2 0
v -36 -4 0
v -38 -4 0
v -38 -2 0
v -36 -2 0
v 0 -6 0
v -2 -6 0
v -2 -4 0
v 0 -4 0
v -2 -6 0
v -4 -6 0
v -4 -4 0
v -2 -4 0
v -12 -6 0
v -14 -6 0
v -14 -4 0
v -12 -4 0
v -14 -6 0
v -16 -6 0
v -16 -4 0
v -14 -4 0
v 0 -8 0
v -2 -8 0
v -2 -6 0
v 0 -6 0
v -2 -8 0
v -4 -8 0
v -4 -6 0
v -2 -6 0
v 0 -10 0
v -2 -10 0
v -2 -8 0
v 0 -8 0
v -2 -10 0
v -4 -10 0
v -4 -8 0
v -2 -8 0
v -4 -10 0
v -6 -10 0
v -6 -8 0
v -4 -8 0
v -38 -10 0
v -40 -10 0
v -40 -8 0
v -38 -8 0
v -40 -10 0
v -42 -10 0
v -42 -8 0
v -40 -8 0
v -4 -12 0
v -6 -12 0
v -6 -10 0
v -4 -10 0
v -38 -12 0
v -40 -12 0
v -40 -10 0
v -38 -10 0
v -40 -12 0
v -42 -12 0
v -42 -10 0
v -40 -10 0
v -6 -14 0
v -8 -14 0
v -8 -12 0
v -6 -12 0
v -34 -14 0
v -36 -14 0
v -36 -12 0
v -34 -12 0
v -38 -14 0
v -40 -14 0
v -40 -12 0
v -38 -12 0
v -40 -14 0
v -42 -14 0
v -42 -12 0
v -40 -12 0
v 0 -16 0
v -2 -16 0
v -2 -14 0
v 0 -14 0
v -6 -16 0
v -8 -16 0
v -8 -14 0
v -6 -14 0
v -34 -16 0
v -36 -16 0
v -36 -14 0
v -34 -14 0
v 0 -18 0
v -2 -18 0
v -2 -16 0
v 0 -16 0
v -6 -18 0
v -8 -18 0
v -8 -16 0
v -6 -16 0
v -34 -18 0
v -36 -18 0
v -36 -16 0
v -34 -16 0
v 0 -20 0
v -2 -20 0
v -2 -18 0
v 0 -18 0
v -6 -20 0
v -8 -20 0
v -8 -18 0
v -6 -18 0
v -34 -20 0
v -36 -20 0
v -36 -18 0
v -34 -18 0
v -34 -22 0
v -36 -22 0
v -36 -20 0
v -34 -20 0
v -38 -22 0
v -40 -22 0
v -40 -20 0
v -38 -20 0
v -40 -22 0
v -42 -22 0
v -42 -20 0
v -40 -20 0
v -4 -24 0
v -6 -24 0
v -6 -22 0
v -4 -22 0
v -38 -24 0
v -40 -24 0
v -40 -22 0
v -38 -22 0
v -40 -24 0
v -42 -24 0
v -42 -22 0
v -40 -22 0
v -4 -26 0
v -6 -26 0
v -6 -24 0
v -4 -24 0
v -12 -26 0
v -14 -26 0
v -14 -24 0
v -12 -24 0
v -14 -26 0
v -16 -26 0
v -16 -24 0
v -14 -24 0
v -30 -26 0
v -32 -26 0
v -32 -24 0
v -30 -24 0
v -32 -26 0
v -34 -26 0
v -34 -24 0
v -32 -24 0
v -38 -26 0
v -40 -26 0
v -40 -24 0
v -38 -24 0
v -40 -26 0
v -42 -26 0
v -42 -24 0
v -40 -24 0
v -4 -28 0
v -6 -28 0
v -6 -26 0
v -4 -26 0
v -6 -28 0
v -8 -28 0
v -8 -26 0
v -6 -26 0
v -12 -28 0
v -14 -28 0
v -14 -26 0
v -12 -26 0
v -14 -28 0
v -16 -28 0
v -16 -26 0
v -14 -26 0
v -22 -28 0
v -24 -28 0
v -24 -26 0
v -22 -26 0
v -24 -28 0
v -26 -28 0
v -26 -26 0
v -24 -26 0
v -28 -28 0
v -30 -28 0
v -30 -26 0
v -28 -26 0
v -30 -28 0
v -32 -28 0
v -32 -26 0
v -30 -26 0
v -32 -28 0
v -34 -28 0
v -34 -26 0
v -32 -26 0
v -38 -28 0
v -40 -28 0
v -40 -26 0
v -38 -26 0
v -40 -28 0
v -42 -28 0
v -42 -26 0
v -40 -26 0
v -4 -30 0
v -6 -30 0
v -6 -28 0
v -4 -28 0
v -6 -30 0
v -8 -30 0
v -8 -28 0
v -6 -28 0
v -12 -30 0
v -14 -30 0
v -14 -28 0
v -12 -28 0
v -14 -30 0
v -16 -30 0
v -16 -28 0
v -14 -28 0
v -22 -30 0
v -24 -30 0
v -24 -28 0
v -22 -28 0
v -24 -30 0
v -26 -30 0
v -26 -28 0
v -24 -28 0
v -28 -30 0
v -30 -30 0
v -30 -28 0
v -28 -28 0
v -30 -30 0
v -32 -30 0
v -32 -28 0
v -30 -28 0
v -32 -30 0
v -34 -30 0
v -34 -28 0
v -32 -28 0
v -38 -30 0
v -40 -30 0
v -40 -28 0
v -38 -28 0
v -40 -30 0
v -42 -30 0
v -42 -28 0
v -40 -28 0

# Texture cooridinates (Count = 26)
vt 0.75 0.78125
vt 0.875 0.78125
vt 0.875 0.8125
vt 0.75 0.8125
vt 0.75 0.9375
vt 0.875 0.9375
vt 0.875 0.96875
vt 0.75 0.96875
vt 1 0.9375
vt 1 0.96875
vt 0.875 1
vt 0.75 1
vt 1 1
vt 0.75 0.75
vt 0.875 0.75
vt 0.75 0.90625
vt 0.875 0.90625
vt 1 0.90625
vt 0 0.9375
vt 0.125 0.9375
vt 0.125 0.96875
vt 0 0.96875
vt 0.25 0.9375
vt 0.375 0.9375
vt 0.375 0.96875
vt 0.25 0.96875

# Normal
vn 0 0 -1

# Mesh description
g BeachTB_mesh_0006

# Faces
f 1/1/1 2/2/1 3/3/1 4/4/1
f 5/5/1 6/6/1 7/7/1 8/8/1
f 9/6/1 10/9/1 11/10/1 12/7/1
f 13/8/1 14/7/1 15/11/1 16/12/1
f 17/7/1 18/10/1 19/13/1 20/11/1
f 21/5/1 22/6/1 23/7/1 24/8/1
f 25/6/1 26/9/1 27/10/1 28/7/1
f 29/1/1 30/2/1 31/3/1 32/4/1
f 33/5/1 34/6/1 35/7/1 36/8/1
f 37/6/1 38/9/1 39/10/1 40/7/1
f 41/1/1 42/2/1 43/3/1 44/4/1
f 45/14/1 46/15/1 47/2/1 48/1/1
f 49/16/1 50/17/1 51/6/1 52/5/1
f 53/17/1 54/18/1 55/9/1 56/6/1
f 57/5/1 58/6/1 59/7/1 60/8/1
f 61/6/1 62/9/1 63/10/1 64/7/1
f 65/16/1 66/17/1 67/6/1 68/5/1
f 69/17/1 70/18/1 71/9/1 72/6/1
f 73/14/1 74/15/1 75/2/1 76/1/1
f 77/16/1 78/17/1 79/6/1 80/5/1
f 81/17/1 82/18/1 83/9/1 84/6/1
f 85/14/1 86/15/1 87/2/1 88/1/1
f 89/8/1 90/7/1 91/11/1 92/12/1
f 93/7/1 94/10/1 95/13/1 96/11/1
f 97/16/1 98/17/1 99/6/1 100/5/1
f 101/17/1 102/18/1 103/9/1 104/6/1
f 105/5/1 106/6/1 107/7/1 108/8/1
f 109/6/1 110/9/1 111/10/1 112/7/1
f 113/16/1 114/17/1 115/6/1 116/5/1
f 117/17/1 118/18/1 119/9/1 120/6/1
f 121/1/1 122/2/1 123/3/1 124/4/1
f 125/8/1 126/7/1 127/11/1 128/12/1
f 129/7/1 130/10/1 131/13/1 132/11/1
f 133/14/1 134/15/1 135/2/1 136/1/1
f 137/5/1 138/6/1 139/7/1 140/8/1
f 141/6/1 142/9/1 143/10/1 144/7/1
f 145/19/1 146/20/1 147/21/1 148/22/1
f 149/23/1 150/24/1 151/25/1 152/26/1
f 153/16/1 154/17/1 155/6/1 156/5/1
f 157/17/1 158/18/1 159/9/1 160/6/1
f 161/7/1 162/10/1 163/13/1 164/11/1
f 165/19/1 166/20/1 167/21/1 168/22/1
f 169/23/1 170/24/1 171/25/1 172/26/1
f 173/6/1 174/9/1 175/10/1 176/7/1
f 177/19/1 178/20/1 179/21/1 180/22/1
f 181/23/1 182/24/1 183/25/1 184/26/1
f 185/17/1 186/18/1 187/9/1 188/6/1
f 189/19/1 190/20/1 191/21/1 192/22/1
f 193/23/1 194/24/1 195/25/1 196/26/1
f 197/23/1 198/24/1 199/25/1 200/26/1
f 201/8/1 202/7/1 203/11/1 204/12/1
f 205/7/1 206/10/1 207/13/1 208/11/1
f 209/1/1 210/2/1 211/3/1 212/4/1
f 213/5/1 214/6/1 215/7/1 216/8/1
f 217/6/1 218/9/1 219/10/1 220/7/1
f 221/14/1 222/15/1 223/2/1 224/1/1
f 225/8/1 226/7/1 227/11/1 228/12/1
f 229/7/1 230/10/1 231/13/1 232/11/1
f 233/8/1 234/7/1 235/11/1 236/12/1
f 237/7/1 238/10/1 239/13/1 240/11/1
f 241/16/1 242/17/1 243/6/1 244/5/1
f 245/17/1 246/18/1 247/9/1 248/6/1
f 249/8/1 250/7/1 251/11/1 252/12/1
f 253/7/1 254/10/1 255/13/1 256/11/1
f 257/5/1 258/6/1 259/7/1 260/8/1
f 261/6/1 262/9/1 263/10/1 264/7/1
f 265/8/1 266/7/1 267/11/1 268/12/1
f 269/7/1 270/10/1 271/13/1 272/11/1
f 273/1/1 274/2/1 275/3/1 276/4/1
f 277/5/1 278/6/1 279/7/1 280/8/1
f 281/6/1 282/9/1 283/10/1 284/7/1
f 285/8/1 286/7/1 287/11/1 288/12/1
f 289/7/1 290/10/1 291/13/1 292/11/1
f 293/5/1 294/6/1 295/7/1 296/8/1
f 297/6/1 298/9/1 299/10/1 300/7/1
f 301/16/1 302/17/1 303/6/1 304/5/1
f 305/17/1 306/18/1 307/9/1 308/6/1
f 309/5/1 310/6/1 311/7/1 312/8/1
f 313/6/1 314/9/1 315/10/1 316/7/1
f 317/14/1 318/15/1 319/2/1 320/1/1
f 321/16/1 322/17/1 323/6/1 324/5/1
f 325/17/1 326/18/1 327/9/1 328/6/1
f 329/5/1 330/6/1 331/7/1 332/8/1
f 333/6/1 334/9/1 335/10/1 336/7/1

