# Tiled2Unity generated file. Do not modify by hand.
# Wavefront file for 'BeachTB_mesh_0004.obj'

# Vertices (Count = 48)
v -16 -2 0
v -18 -2 0
v -18 0 0
v -16 0 0
v -22 -2 0
v -24 -2 0
v -24 0 0
v -22 0 0
v -16 -4 0
v -18 -4 0
v -18 -2 0
v -16 -2 0
v -22 -4 0
v -24 -4 0
v -24 -2 0
v -22 -2 0
v -16 -6 0
v -18 -6 0
v -18 -4 0
v -16 -4 0
v -22 -6 0
v -24 -6 0
v -24 -4 0
v -22 -4 0
v -36 -6 0
v -38 -6 0
v -38 -4 0
v -36 -4 0
v -38 -6 0
v -40 -6 0
v -40 -4 0
v -38 -4 0
v -36 -8 0
v -38 -8 0
v -38 -6 0
v -36 -6 0
v -38 -8 0
v -40 -8 0
v -40 -6 0
v -38 -6 0
v -36 -10 0
v -38 -10 0
v -38 -8 0
v -36 -8 0
v -38 -10 0
v -40 -10 0
v -40 -8 0
v -38 -8 0

# Texture cooridinates (Count = 22)
vt 0.25 0.9375
vt 0.375 0.9375
vt 0.375 0.96875
vt 0.25 0.96875
vt 0 0.9375
vt 0.125 0.9375
vt 0.125 0.96875
vt 0 0.96875
vt 0.25 0.90625
vt 0.375 0.90625
vt 0.75 0.96875
vt 0.875 0.96875
vt 0.875 1
vt 0.75 1
vt 1 0.96875
vt 1 1
vt 0.75 0.9375
vt 0.875 0.9375
vt 1 0.9375
vt 0.75 0.90625
vt 0.875 0.90625
vt 1 0.90625

# Normal
vn 0 0 -1

# Mesh description
g BeachTB_mesh_0004

# Faces
f 1/1/1 2/2/1 3/3/1 4/4/1
f 5/5/1 6/6/1 7/7/1 8/8/1
f 9/1/1 10/2/1 11/3/1 12/4/1
f 13/5/1 14/6/1 15/7/1 16/8/1
f 17/9/1 18/10/1 19/2/1 20/1/1
f 21/5/1 22/6/1 23/7/1 24/8/1
f 25/11/1 26/12/1 27/13/1 28/14/1
f 29/12/1 30/15/1 31/16/1 32/13/1
f 33/17/1 34/18/1 35/12/1 36/11/1
f 37/18/1 38/19/1 39/15/1 40/12/1
f 41/20/1 42/21/1 43/18/1 44/17/1
f 45/21/1 46/22/1 47/19/1 48/18/1

