# Tiled2Unity generated file. Do not modify by hand.
# Wavefront file for 'BeachR_mesh_0003.obj'

# Vertices (Count = 36)
v -6 -14 0
v -8 -14 0
v -8 -12 0
v -6 -12 0
v -6 -16 0
v -8 -16 0
v -8 -14 0
v -6 -14 0
v -6 -18 0
v -8 -18 0
v -8 -16 0
v -6 -16 0
v -16 -26 0
v -18 -26 0
v -18 -24 0
v -16 -24 0
v -22 -26 0
v -24 -26 0
v -24 -24 0
v -22 -24 0
v -16 -28 0
v -18 -28 0
v -18 -26 0
v -16 -26 0
v -22 -28 0
v -24 -28 0
v -24 -26 0
v -22 -26 0
v -16 -30 0
v -18 -30 0
v -18 -28 0
v -16 -28 0
v -22 -30 0
v -24 -30 0
v -24 -28 0
v -22 -28 0

# Texture cooridinates (Count = 12)
vt 0 0.9375
vt 0.125 0.9375
vt 0.125 0.96875
vt 0 0.96875
vt 0.25 0.96875
vt 0.375 0.96875
vt 0.375 1
vt 0.25 1
vt 0.125 1
vt 0 1
vt 0.25 0.9375
vt 0.375 0.9375

# Normal
vn 0 0 -1

# Mesh description
g BeachR_mesh_0003

# Faces
f 1/1/1 2/2/1 3/3/1 4/4/1
f 5/1/1 6/2/1 7/3/1 8/4/1
f 9/1/1 10/2/1 11/3/1 12/4/1
f 13/5/1 14/6/1 15/7/1 16/8/1
f 17/4/1 18/3/1 19/9/1 20/10/1
f 21/11/1 22/12/1 23/6/1 24/5/1
f 25/1/1 26/2/1 27/3/1 28/4/1
f 29/11/1 30/12/1 31/6/1 32/5/1
f 33/1/1 34/2/1 35/3/1 36/4/1

